G75*
%MOIN*%
%OFA0B0*%
%FSLAX25Y25*%
%IPPOS*%
%LPD*%
%AMOC8*
5,1,8,0,0,1.08239X$1,22.5*
%
%ADD10C,0.00400*%
%ADD11C,0.00600*%
%ADD12C,0.00500*%
%ADD13R,0.04000X0.07500*%
%ADD14R,0.07000X0.01500*%
%ADD15R,0.05000X0.01000*%
%ADD16R,0.03000X0.01000*%
%ADD17R,0.01000X0.01000*%
%ADD18R,0.01000X0.00500*%
%ADD19R,0.00500X0.00500*%
%ADD20C,0.00200*%
%ADD21R,0.03500X0.05000*%
%ADD22C,0.00700*%
%ADD23R,0.10000X0.01000*%
%ADD24C,0.00300*%
D10*
X0315958Y0085959D02*
X0315958Y0087494D01*
X0317493Y0089029D01*
X0319028Y0088261D02*
X0319028Y0085192D01*
X0319795Y0084425D01*
X0321330Y0084425D01*
X0322097Y0085192D01*
X0323631Y0084425D02*
X0325166Y0085959D01*
X0325166Y0087494D01*
X0323631Y0089029D01*
X0322097Y0088261D02*
X0321330Y0089029D01*
X0319795Y0089029D01*
X0319028Y0088261D01*
X0320562Y0090390D02*
X0320562Y0094994D01*
X0322864Y0094994D01*
X0323631Y0094227D01*
X0323631Y0092692D01*
X0322864Y0091925D01*
X0320562Y0091925D01*
X0319028Y0091925D02*
X0319028Y0094994D01*
X0317493Y0096529D01*
X0315958Y0094994D01*
X0315958Y0091925D01*
X0315958Y0094227D02*
X0319028Y0094227D01*
X0325166Y0094994D02*
X0327468Y0094994D01*
X0328235Y0094227D01*
X0328235Y0092692D01*
X0327468Y0091925D01*
X0325166Y0091925D01*
X0325166Y0090390D02*
X0325166Y0094994D01*
X0329770Y0096529D02*
X0330537Y0096529D01*
X0330537Y0091925D01*
X0329770Y0091925D02*
X0331305Y0091925D01*
X0332839Y0092692D02*
X0332839Y0094227D01*
X0333607Y0094994D01*
X0335141Y0094994D01*
X0335909Y0094227D01*
X0335909Y0093459D01*
X0332839Y0093459D01*
X0332839Y0092692D02*
X0333607Y0091925D01*
X0335141Y0091925D01*
X0334374Y0089029D02*
X0331305Y0089029D01*
X0331305Y0084425D01*
X0331305Y0086727D02*
X0332839Y0086727D01*
X0335909Y0089029D02*
X0336676Y0089029D01*
X0336676Y0084425D01*
X0335909Y0084425D02*
X0337443Y0084425D01*
X0338978Y0085192D02*
X0339745Y0084425D01*
X0341280Y0084425D01*
X0342047Y0085192D01*
X0342047Y0086727D01*
X0341280Y0087494D01*
X0339745Y0087494D01*
X0338978Y0086727D01*
X0338978Y0085192D01*
X0343582Y0085959D02*
X0345116Y0087494D01*
X0345884Y0087494D01*
X0347418Y0087494D02*
X0348186Y0087494D01*
X0348186Y0084425D01*
X0348953Y0084425D02*
X0347418Y0084425D01*
X0350488Y0085192D02*
X0351255Y0085959D01*
X0353557Y0085959D01*
X0353557Y0086727D02*
X0353557Y0084425D01*
X0351255Y0084425D01*
X0350488Y0085192D01*
X0351255Y0087494D02*
X0352790Y0087494D01*
X0353557Y0086727D01*
X0355092Y0087494D02*
X0355092Y0084425D01*
X0358161Y0084425D02*
X0358161Y0086727D01*
X0357394Y0087494D01*
X0355092Y0087494D01*
X0355092Y0091925D02*
X0353557Y0091925D01*
X0352790Y0092692D01*
X0353557Y0094227D02*
X0352790Y0094994D01*
X0352790Y0095761D01*
X0353557Y0096529D01*
X0355092Y0096529D01*
X0355859Y0095761D01*
X0355092Y0094227D02*
X0355859Y0093459D01*
X0355859Y0092692D01*
X0355092Y0091925D01*
X0357394Y0091925D02*
X0359696Y0091925D01*
X0360463Y0092692D01*
X0360463Y0095761D01*
X0359696Y0096529D01*
X0357394Y0096529D01*
X0357394Y0091925D01*
X0355092Y0094227D02*
X0353557Y0094227D01*
X0346651Y0096529D02*
X0345116Y0096529D01*
X0345116Y0091925D01*
X0346651Y0091925D01*
X0348186Y0089796D02*
X0348186Y0089029D01*
X0343582Y0087494D02*
X0343582Y0084425D01*
X0343582Y0091925D02*
X0343582Y0096529D01*
X0342047Y0096529D01*
X0342047Y0091925D02*
X0343582Y0091925D01*
X0364299Y0089029D02*
X0364299Y0084425D01*
X0364299Y0085959D02*
X0366601Y0085959D01*
X0367369Y0086727D01*
X0367369Y0088261D01*
X0366601Y0089029D01*
X0364299Y0089029D01*
X0365834Y0085959D02*
X0367369Y0084425D01*
X0368903Y0085192D02*
X0368903Y0086727D01*
X0369671Y0087494D01*
X0371205Y0087494D01*
X0371973Y0086727D01*
X0371973Y0085959D01*
X0368903Y0085959D01*
X0368903Y0085192D02*
X0369671Y0084425D01*
X0371205Y0084425D01*
X0373507Y0084425D02*
X0375042Y0084425D01*
X0374275Y0084425D02*
X0374275Y0087494D01*
X0373507Y0087494D01*
X0374275Y0089029D02*
X0374275Y0089796D01*
X0374275Y0091925D02*
X0371205Y0091925D01*
X0372740Y0091925D02*
X0372740Y0096529D01*
X0371205Y0094994D01*
X0369671Y0093459D02*
X0369671Y0096529D01*
X0366601Y0096529D02*
X0366601Y0093459D01*
X0368136Y0091925D01*
X0369671Y0093459D01*
X0375809Y0092692D02*
X0376577Y0092692D01*
X0376577Y0091925D01*
X0375809Y0091925D01*
X0375809Y0092692D01*
X0378111Y0092692D02*
X0381181Y0095761D01*
X0381181Y0092692D01*
X0380413Y0091925D01*
X0378879Y0091925D01*
X0378111Y0092692D01*
X0378111Y0095761D01*
X0378879Y0096529D01*
X0380413Y0096529D01*
X0381181Y0095761D01*
X0379646Y0087494D02*
X0382715Y0087494D01*
X0379646Y0084425D01*
X0382715Y0084425D01*
X0378111Y0084425D02*
X0377344Y0085192D01*
X0377344Y0088261D01*
X0376577Y0087494D02*
X0378111Y0087494D01*
X0388854Y0088261D02*
X0389621Y0089029D01*
X0391156Y0089029D01*
X0391923Y0088261D01*
X0391923Y0087494D01*
X0388854Y0084425D01*
X0391923Y0084425D01*
X0393458Y0085192D02*
X0396527Y0088261D01*
X0396527Y0085192D01*
X0395760Y0084425D01*
X0394225Y0084425D01*
X0393458Y0085192D01*
X0393458Y0088261D01*
X0394225Y0089029D01*
X0395760Y0089029D01*
X0396527Y0088261D01*
X0398062Y0087494D02*
X0399596Y0089029D01*
X0399596Y0084425D01*
X0398062Y0084425D02*
X0401131Y0084425D01*
X0402665Y0084425D02*
X0402665Y0085192D01*
X0405735Y0088261D01*
X0405735Y0089029D01*
X0402665Y0089029D01*
X0317493Y0084425D02*
X0315958Y0085959D01*
X0515998Y0110132D02*
X0515998Y0111666D01*
X0515998Y0110899D02*
X0520602Y0110899D01*
X0520602Y0110132D02*
X0520602Y0111666D01*
X0519834Y0113201D02*
X0520602Y0113968D01*
X0520602Y0115503D01*
X0519834Y0116270D01*
X0520602Y0117805D02*
X0520602Y0120874D01*
X0520602Y0119340D02*
X0515998Y0119340D01*
X0517532Y0117805D01*
X0516765Y0116270D02*
X0515998Y0115503D01*
X0515998Y0113968D01*
X0516765Y0113201D01*
X0519834Y0113201D01*
X0590033Y0098418D02*
X0590033Y0093814D01*
X0590033Y0095349D02*
X0592335Y0095349D01*
X0593102Y0096116D01*
X0593102Y0097651D01*
X0592335Y0098418D01*
X0590033Y0098418D01*
X0591568Y0095349D02*
X0593102Y0093814D01*
X0594637Y0093814D02*
X0597706Y0093814D01*
X0596172Y0093814D02*
X0596172Y0098418D01*
X0594637Y0096884D01*
X0599241Y0097651D02*
X0599241Y0094582D01*
X0602310Y0097651D01*
X0602310Y0094582D01*
X0601543Y0093814D01*
X0600008Y0093814D01*
X0599241Y0094582D01*
X0599241Y0097651D02*
X0600008Y0098418D01*
X0601543Y0098418D01*
X0602310Y0097651D01*
X0667900Y0117813D02*
X0669068Y0118981D01*
X0671403Y0118981D01*
X0671403Y0120237D02*
X0671403Y0122572D01*
X0671403Y0121404D02*
X0667900Y0121404D01*
X0669068Y0120237D01*
X0669652Y0118981D02*
X0669652Y0116646D01*
X0669068Y0116646D02*
X0667900Y0117813D01*
X0669068Y0116646D02*
X0671403Y0116646D01*
X0670819Y0123828D02*
X0671403Y0124412D01*
X0671403Y0125579D01*
X0670819Y0126163D01*
X0669652Y0126163D01*
X0669068Y0125579D01*
X0669068Y0124995D01*
X0669652Y0123828D01*
X0667900Y0123828D01*
X0667900Y0126163D01*
X0670819Y0128003D02*
X0671403Y0128003D01*
X0671403Y0128586D01*
X0670819Y0128586D01*
X0670819Y0128003D01*
X0671403Y0128586D02*
X0672571Y0127419D01*
X0671403Y0129813D02*
X0669068Y0132148D01*
X0668484Y0132148D01*
X0667900Y0131564D01*
X0667900Y0130397D01*
X0668484Y0129813D01*
X0671403Y0129813D02*
X0671403Y0132148D01*
X0671403Y0133404D02*
X0669068Y0133404D01*
X0669068Y0133988D01*
X0669652Y0134572D01*
X0669068Y0135155D01*
X0669652Y0135739D01*
X0671403Y0135739D01*
X0671403Y0134572D02*
X0669652Y0134572D01*
X0669068Y0136995D02*
X0669068Y0137579D01*
X0669652Y0138163D01*
X0669068Y0138747D01*
X0669652Y0139330D01*
X0671403Y0139330D01*
X0671403Y0138163D02*
X0669652Y0138163D01*
X0669068Y0136995D02*
X0671403Y0136995D01*
X0626210Y0154799D02*
X0623141Y0154799D01*
X0624676Y0154799D02*
X0624676Y0159403D01*
X0623141Y0157868D01*
X0621606Y0158635D02*
X0621606Y0157101D01*
X0620839Y0156333D01*
X0618537Y0156333D01*
X0618537Y0154799D02*
X0618537Y0159403D01*
X0620839Y0159403D01*
X0621606Y0158635D01*
X0620072Y0156333D02*
X0621606Y0154799D01*
X0609478Y0154917D02*
X0606409Y0154917D01*
X0609478Y0157986D01*
X0609478Y0158753D01*
X0608711Y0159521D01*
X0607176Y0159521D01*
X0606409Y0158753D01*
X0604874Y0158753D02*
X0604874Y0157219D01*
X0604107Y0156451D01*
X0601805Y0156451D01*
X0601805Y0154917D02*
X0601805Y0159521D01*
X0604107Y0159521D01*
X0604874Y0158753D01*
X0603339Y0156451D02*
X0604874Y0154917D01*
X0605972Y0167284D02*
X0605972Y0169586D01*
X0605205Y0170353D01*
X0603670Y0170353D01*
X0602903Y0169586D01*
X0602903Y0167284D01*
X0607507Y0167284D01*
X0605972Y0168818D02*
X0607507Y0170353D01*
X0607507Y0171888D02*
X0606740Y0171888D01*
X0603670Y0174957D01*
X0602903Y0174957D01*
X0602903Y0171888D01*
X0597507Y0172926D02*
X0597507Y0174460D01*
X0596740Y0175228D01*
X0595205Y0175228D01*
X0594438Y0174460D01*
X0594438Y0173693D01*
X0595205Y0172159D01*
X0592903Y0172159D01*
X0592903Y0175228D01*
X0593670Y0170624D02*
X0595205Y0170624D01*
X0595972Y0169857D01*
X0595972Y0167555D01*
X0595972Y0169089D02*
X0597507Y0170624D01*
X0596740Y0172159D02*
X0597507Y0172926D01*
X0593670Y0170624D02*
X0592903Y0169857D01*
X0592903Y0167555D01*
X0597507Y0167555D01*
X0612746Y0167284D02*
X0612746Y0169586D01*
X0613513Y0170353D01*
X0615048Y0170353D01*
X0615815Y0169586D01*
X0615815Y0167284D01*
X0615815Y0168818D02*
X0617350Y0170353D01*
X0616582Y0171888D02*
X0615815Y0171888D01*
X0615048Y0172655D01*
X0615048Y0174190D01*
X0615815Y0174957D01*
X0616582Y0174957D01*
X0617350Y0174190D01*
X0617350Y0172655D01*
X0616582Y0171888D01*
X0615048Y0172655D02*
X0614280Y0171888D01*
X0613513Y0171888D01*
X0612746Y0172655D01*
X0612746Y0174190D01*
X0613513Y0174957D01*
X0614280Y0174957D01*
X0615048Y0174190D01*
X0617350Y0167284D02*
X0612746Y0167284D01*
X0661171Y0167323D02*
X0661171Y0169625D01*
X0661938Y0170392D01*
X0663473Y0170392D01*
X0664240Y0169625D01*
X0664240Y0167323D01*
X0664240Y0168858D02*
X0665775Y0170392D01*
X0665007Y0171927D02*
X0665775Y0172694D01*
X0665775Y0174229D01*
X0665007Y0174996D01*
X0664240Y0174996D01*
X0663473Y0174229D01*
X0663473Y0173462D01*
X0663473Y0174229D02*
X0662706Y0174996D01*
X0661938Y0174996D01*
X0661171Y0174229D01*
X0661171Y0172694D01*
X0661938Y0171927D01*
X0661171Y0167323D02*
X0665775Y0167323D01*
X0670659Y0167555D02*
X0670659Y0169857D01*
X0671426Y0170624D01*
X0672961Y0170624D01*
X0673728Y0169857D01*
X0673728Y0167555D01*
X0673728Y0169089D02*
X0675263Y0170624D01*
X0674496Y0172159D02*
X0675263Y0172926D01*
X0675263Y0174460D01*
X0674496Y0175228D01*
X0673728Y0175228D01*
X0672961Y0174460D01*
X0672961Y0172159D01*
X0674496Y0172159D01*
X0672961Y0172159D02*
X0671426Y0173693D01*
X0670659Y0175228D01*
X0670659Y0167555D02*
X0675263Y0167555D01*
X0692470Y0234530D02*
X0692470Y0236832D01*
X0693237Y0237599D01*
X0694772Y0237599D01*
X0695539Y0236832D01*
X0695539Y0234530D01*
X0695539Y0236065D02*
X0697074Y0237599D01*
X0697074Y0239134D02*
X0697074Y0242203D01*
X0697074Y0240669D02*
X0692470Y0240669D01*
X0694005Y0239134D01*
X0692470Y0234530D02*
X0697074Y0234530D01*
X0697074Y0243738D02*
X0697074Y0246807D01*
X0697074Y0245273D02*
X0692470Y0245273D01*
X0694005Y0243738D01*
X0695382Y0275822D02*
X0695382Y0278124D01*
X0694615Y0278892D01*
X0693080Y0278892D01*
X0692313Y0278124D01*
X0692313Y0275822D01*
X0696917Y0275822D01*
X0695382Y0277357D02*
X0696917Y0278892D01*
X0696149Y0280426D02*
X0696917Y0281194D01*
X0696917Y0282728D01*
X0696149Y0283496D01*
X0693080Y0283496D01*
X0692313Y0282728D01*
X0692313Y0281194D01*
X0693080Y0280426D01*
X0693847Y0280426D01*
X0694615Y0281194D01*
X0694615Y0283496D01*
X0541877Y0303150D02*
X0537273Y0303150D01*
X0537273Y0305452D01*
X0538041Y0306219D01*
X0539575Y0306219D01*
X0540343Y0305452D01*
X0540343Y0303150D01*
X0540343Y0304685D02*
X0541877Y0306219D01*
X0539575Y0307754D02*
X0539575Y0310823D01*
X0537273Y0310056D02*
X0539575Y0307754D01*
X0541877Y0310056D02*
X0537273Y0310056D01*
X0537439Y0322015D02*
X0541043Y0322015D01*
X0541043Y0324417D01*
X0541043Y0325698D02*
X0541043Y0328100D01*
X0541043Y0329381D02*
X0541043Y0331183D01*
X0540442Y0331783D01*
X0538040Y0331783D01*
X0537439Y0331183D01*
X0537439Y0329381D01*
X0541043Y0329381D01*
X0539241Y0326899D02*
X0539241Y0325698D01*
X0537439Y0325698D02*
X0541043Y0325698D01*
X0537439Y0325698D02*
X0537439Y0328100D01*
X0538640Y0333064D02*
X0537439Y0334265D01*
X0541043Y0334265D01*
X0541043Y0333064D02*
X0541043Y0335466D01*
D11*
X0536743Y0336548D02*
X0526743Y0336548D01*
X0526743Y0316548D01*
X0536743Y0316548D01*
X0536743Y0336548D01*
X0497821Y0336229D02*
X0497821Y0249229D01*
X0497819Y0249131D01*
X0497813Y0249033D01*
X0497804Y0248935D01*
X0497790Y0248838D01*
X0497773Y0248741D01*
X0497752Y0248645D01*
X0497727Y0248550D01*
X0497699Y0248456D01*
X0497666Y0248364D01*
X0497631Y0248272D01*
X0497591Y0248182D01*
X0497549Y0248094D01*
X0497502Y0248007D01*
X0497453Y0247923D01*
X0497400Y0247840D01*
X0497344Y0247760D01*
X0497284Y0247681D01*
X0497222Y0247605D01*
X0497157Y0247532D01*
X0497089Y0247461D01*
X0497018Y0247393D01*
X0496945Y0247328D01*
X0496869Y0247266D01*
X0496790Y0247206D01*
X0496710Y0247150D01*
X0496627Y0247097D01*
X0496543Y0247048D01*
X0496456Y0247001D01*
X0496368Y0246959D01*
X0496278Y0246919D01*
X0496186Y0246884D01*
X0496094Y0246851D01*
X0496000Y0246823D01*
X0495905Y0246798D01*
X0495809Y0246777D01*
X0495712Y0246760D01*
X0495615Y0246746D01*
X0495517Y0246737D01*
X0495419Y0246731D01*
X0495321Y0246729D01*
X0408321Y0246729D01*
X0408223Y0246731D01*
X0408125Y0246737D01*
X0408027Y0246746D01*
X0407930Y0246760D01*
X0407833Y0246777D01*
X0407737Y0246798D01*
X0407642Y0246823D01*
X0407548Y0246851D01*
X0407456Y0246884D01*
X0407364Y0246919D01*
X0407274Y0246959D01*
X0407186Y0247001D01*
X0407099Y0247048D01*
X0407015Y0247097D01*
X0406932Y0247150D01*
X0406852Y0247206D01*
X0406773Y0247266D01*
X0406697Y0247328D01*
X0406624Y0247393D01*
X0406553Y0247461D01*
X0406485Y0247532D01*
X0406420Y0247605D01*
X0406358Y0247681D01*
X0406298Y0247760D01*
X0406242Y0247840D01*
X0406189Y0247923D01*
X0406140Y0248007D01*
X0406093Y0248094D01*
X0406051Y0248182D01*
X0406011Y0248272D01*
X0405976Y0248364D01*
X0405943Y0248456D01*
X0405915Y0248550D01*
X0405890Y0248645D01*
X0405869Y0248741D01*
X0405852Y0248838D01*
X0405838Y0248935D01*
X0405829Y0249033D01*
X0405823Y0249131D01*
X0405821Y0249229D01*
X0405821Y0332729D01*
X0411821Y0338729D01*
X0495321Y0338729D01*
X0495419Y0338727D01*
X0495517Y0338721D01*
X0495615Y0338712D01*
X0495712Y0338698D01*
X0495809Y0338681D01*
X0495905Y0338660D01*
X0496000Y0338635D01*
X0496094Y0338607D01*
X0496186Y0338574D01*
X0496278Y0338539D01*
X0496368Y0338499D01*
X0496456Y0338457D01*
X0496543Y0338410D01*
X0496627Y0338361D01*
X0496710Y0338308D01*
X0496790Y0338252D01*
X0496869Y0338192D01*
X0496945Y0338130D01*
X0497018Y0338065D01*
X0497089Y0337997D01*
X0497157Y0337926D01*
X0497222Y0337853D01*
X0497284Y0337777D01*
X0497344Y0337698D01*
X0497400Y0337618D01*
X0497453Y0337535D01*
X0497502Y0337451D01*
X0497549Y0337364D01*
X0497591Y0337276D01*
X0497631Y0337186D01*
X0497666Y0337094D01*
X0497699Y0337002D01*
X0497727Y0336908D01*
X0497752Y0336813D01*
X0497773Y0336717D01*
X0497790Y0336620D01*
X0497804Y0336523D01*
X0497813Y0336425D01*
X0497819Y0336327D01*
X0497821Y0336229D01*
X0492821Y0329729D02*
X0488821Y0333729D01*
X0480321Y0325229D01*
X0479321Y0325229D01*
X0484321Y0321229D02*
X0484321Y0320229D01*
X0484321Y0321229D02*
X0492821Y0329729D01*
X0473321Y0329729D02*
X0473321Y0333729D01*
X0470321Y0333729D01*
X0470321Y0329729D01*
X0463321Y0329729D02*
X0463321Y0333729D01*
X0460321Y0333729D01*
X0460321Y0329729D01*
X0453321Y0329729D02*
X0453321Y0333729D01*
X0450321Y0333729D01*
X0450321Y0329729D01*
X0443321Y0329729D02*
X0443321Y0333729D01*
X0440321Y0333729D01*
X0440321Y0329729D01*
X0433321Y0329729D02*
X0433321Y0333729D01*
X0430321Y0333729D01*
X0430321Y0329729D01*
X0424321Y0325229D02*
X0419321Y0320229D01*
X0414821Y0314229D02*
X0410821Y0314229D01*
X0410821Y0311229D01*
X0414821Y0311229D01*
X0414821Y0304229D02*
X0410821Y0304229D01*
X0410821Y0301229D01*
X0414821Y0301229D01*
X0414821Y0294229D02*
X0410821Y0294229D01*
X0410821Y0291229D01*
X0414821Y0291229D01*
X0414821Y0284229D02*
X0410821Y0284229D01*
X0410821Y0281229D01*
X0414821Y0281229D01*
X0414821Y0274229D02*
X0410821Y0274229D01*
X0410821Y0271229D01*
X0414821Y0271229D01*
X0419321Y0265229D02*
X0419321Y0264229D01*
X0410821Y0255729D01*
X0414821Y0251729D01*
X0423321Y0260229D01*
X0424321Y0260229D01*
X0430321Y0255729D02*
X0430321Y0251729D01*
X0433321Y0251729D01*
X0433321Y0255729D01*
X0440321Y0255229D02*
X0440321Y0251729D01*
X0443321Y0251729D01*
X0443321Y0255229D01*
X0450321Y0255229D02*
X0450321Y0251729D01*
X0453321Y0251729D01*
X0453321Y0255229D01*
X0460321Y0255229D02*
X0460321Y0251729D01*
X0463321Y0251729D01*
X0463321Y0255229D01*
X0470321Y0255229D02*
X0470321Y0251729D01*
X0473321Y0251729D01*
X0473321Y0255229D01*
X0479821Y0260229D02*
X0484321Y0260229D01*
X0484321Y0264729D01*
X0488821Y0271229D02*
X0492821Y0271229D01*
X0492821Y0274229D01*
X0488821Y0274229D01*
X0488821Y0281229D02*
X0492821Y0281229D01*
X0492821Y0284229D01*
X0488821Y0284229D01*
X0488821Y0291229D02*
X0492821Y0291229D01*
X0492821Y0294229D01*
X0488821Y0294229D01*
X0488821Y0301229D02*
X0492821Y0301229D01*
X0492821Y0304229D01*
X0488821Y0304229D01*
X0488821Y0311229D02*
X0492821Y0311229D01*
X0492821Y0314229D01*
X0488821Y0314229D01*
X0456821Y0302729D02*
X0456823Y0302870D01*
X0456829Y0303011D01*
X0456839Y0303151D01*
X0456853Y0303291D01*
X0456871Y0303431D01*
X0456892Y0303570D01*
X0456918Y0303709D01*
X0456947Y0303847D01*
X0456981Y0303983D01*
X0457018Y0304119D01*
X0457059Y0304254D01*
X0457104Y0304388D01*
X0457153Y0304520D01*
X0457205Y0304651D01*
X0457261Y0304780D01*
X0457321Y0304907D01*
X0457384Y0305033D01*
X0457450Y0305157D01*
X0457521Y0305280D01*
X0457594Y0305400D01*
X0457671Y0305518D01*
X0457751Y0305634D01*
X0457835Y0305747D01*
X0457921Y0305858D01*
X0458011Y0305967D01*
X0458104Y0306073D01*
X0458199Y0306176D01*
X0458298Y0306277D01*
X0458399Y0306375D01*
X0458503Y0306470D01*
X0458610Y0306562D01*
X0458719Y0306651D01*
X0458831Y0306736D01*
X0458945Y0306819D01*
X0459061Y0306899D01*
X0459180Y0306975D01*
X0459301Y0307047D01*
X0459423Y0307117D01*
X0459548Y0307182D01*
X0459674Y0307245D01*
X0459802Y0307303D01*
X0459932Y0307358D01*
X0460063Y0307410D01*
X0460196Y0307457D01*
X0460330Y0307501D01*
X0460465Y0307542D01*
X0460601Y0307578D01*
X0460738Y0307610D01*
X0460876Y0307639D01*
X0461014Y0307664D01*
X0461154Y0307684D01*
X0461294Y0307701D01*
X0461434Y0307714D01*
X0461575Y0307723D01*
X0461715Y0307728D01*
X0461856Y0307729D01*
X0461997Y0307726D01*
X0462138Y0307719D01*
X0462278Y0307708D01*
X0462418Y0307693D01*
X0462558Y0307674D01*
X0462697Y0307652D01*
X0462835Y0307625D01*
X0462973Y0307595D01*
X0463109Y0307560D01*
X0463245Y0307522D01*
X0463379Y0307480D01*
X0463513Y0307434D01*
X0463645Y0307385D01*
X0463775Y0307331D01*
X0463904Y0307274D01*
X0464031Y0307214D01*
X0464157Y0307150D01*
X0464280Y0307082D01*
X0464402Y0307011D01*
X0464522Y0306937D01*
X0464639Y0306859D01*
X0464754Y0306778D01*
X0464867Y0306694D01*
X0464978Y0306607D01*
X0465086Y0306516D01*
X0465191Y0306423D01*
X0465294Y0306326D01*
X0465394Y0306227D01*
X0465491Y0306125D01*
X0465585Y0306020D01*
X0465676Y0305913D01*
X0465764Y0305803D01*
X0465849Y0305691D01*
X0465931Y0305576D01*
X0466010Y0305459D01*
X0466085Y0305340D01*
X0466157Y0305219D01*
X0466225Y0305096D01*
X0466290Y0304971D01*
X0466352Y0304844D01*
X0466409Y0304715D01*
X0466464Y0304585D01*
X0466514Y0304454D01*
X0466561Y0304321D01*
X0466604Y0304187D01*
X0466643Y0304051D01*
X0466678Y0303915D01*
X0466710Y0303778D01*
X0466737Y0303640D01*
X0466761Y0303501D01*
X0466781Y0303361D01*
X0466797Y0303221D01*
X0466809Y0303081D01*
X0466817Y0302940D01*
X0466821Y0302799D01*
X0466821Y0302659D01*
X0466817Y0302518D01*
X0466809Y0302377D01*
X0466797Y0302237D01*
X0466781Y0302097D01*
X0466761Y0301957D01*
X0466737Y0301818D01*
X0466710Y0301680D01*
X0466678Y0301543D01*
X0466643Y0301407D01*
X0466604Y0301271D01*
X0466561Y0301137D01*
X0466514Y0301004D01*
X0466464Y0300873D01*
X0466409Y0300743D01*
X0466352Y0300614D01*
X0466290Y0300487D01*
X0466225Y0300362D01*
X0466157Y0300239D01*
X0466085Y0300118D01*
X0466010Y0299999D01*
X0465931Y0299882D01*
X0465849Y0299767D01*
X0465764Y0299655D01*
X0465676Y0299545D01*
X0465585Y0299438D01*
X0465491Y0299333D01*
X0465394Y0299231D01*
X0465294Y0299132D01*
X0465191Y0299035D01*
X0465086Y0298942D01*
X0464978Y0298851D01*
X0464867Y0298764D01*
X0464754Y0298680D01*
X0464639Y0298599D01*
X0464522Y0298521D01*
X0464402Y0298447D01*
X0464280Y0298376D01*
X0464157Y0298308D01*
X0464031Y0298244D01*
X0463904Y0298184D01*
X0463775Y0298127D01*
X0463645Y0298073D01*
X0463513Y0298024D01*
X0463379Y0297978D01*
X0463245Y0297936D01*
X0463109Y0297898D01*
X0462973Y0297863D01*
X0462835Y0297833D01*
X0462697Y0297806D01*
X0462558Y0297784D01*
X0462418Y0297765D01*
X0462278Y0297750D01*
X0462138Y0297739D01*
X0461997Y0297732D01*
X0461856Y0297729D01*
X0461715Y0297730D01*
X0461575Y0297735D01*
X0461434Y0297744D01*
X0461294Y0297757D01*
X0461154Y0297774D01*
X0461014Y0297794D01*
X0460876Y0297819D01*
X0460738Y0297848D01*
X0460601Y0297880D01*
X0460465Y0297916D01*
X0460330Y0297957D01*
X0460196Y0298001D01*
X0460063Y0298048D01*
X0459932Y0298100D01*
X0459802Y0298155D01*
X0459674Y0298213D01*
X0459548Y0298276D01*
X0459423Y0298341D01*
X0459301Y0298411D01*
X0459180Y0298483D01*
X0459061Y0298559D01*
X0458945Y0298639D01*
X0458831Y0298722D01*
X0458719Y0298807D01*
X0458610Y0298896D01*
X0458503Y0298988D01*
X0458399Y0299083D01*
X0458298Y0299181D01*
X0458199Y0299282D01*
X0458104Y0299385D01*
X0458011Y0299491D01*
X0457921Y0299600D01*
X0457835Y0299711D01*
X0457751Y0299824D01*
X0457671Y0299940D01*
X0457594Y0300058D01*
X0457521Y0300178D01*
X0457450Y0300301D01*
X0457384Y0300425D01*
X0457321Y0300551D01*
X0457261Y0300678D01*
X0457205Y0300807D01*
X0457153Y0300938D01*
X0457104Y0301070D01*
X0457059Y0301204D01*
X0457018Y0301339D01*
X0456981Y0301475D01*
X0456947Y0301611D01*
X0456918Y0301749D01*
X0456892Y0301888D01*
X0456871Y0302027D01*
X0456853Y0302167D01*
X0456839Y0302307D01*
X0456829Y0302447D01*
X0456823Y0302588D01*
X0456821Y0302729D01*
X0456821Y0307729D02*
X0446821Y0307729D01*
X0451821Y0312729D01*
X0456821Y0307729D01*
X0436821Y0302729D02*
X0436823Y0302870D01*
X0436829Y0303011D01*
X0436839Y0303151D01*
X0436853Y0303291D01*
X0436871Y0303431D01*
X0436892Y0303570D01*
X0436918Y0303709D01*
X0436947Y0303847D01*
X0436981Y0303983D01*
X0437018Y0304119D01*
X0437059Y0304254D01*
X0437104Y0304388D01*
X0437153Y0304520D01*
X0437205Y0304651D01*
X0437261Y0304780D01*
X0437321Y0304907D01*
X0437384Y0305033D01*
X0437450Y0305157D01*
X0437521Y0305280D01*
X0437594Y0305400D01*
X0437671Y0305518D01*
X0437751Y0305634D01*
X0437835Y0305747D01*
X0437921Y0305858D01*
X0438011Y0305967D01*
X0438104Y0306073D01*
X0438199Y0306176D01*
X0438298Y0306277D01*
X0438399Y0306375D01*
X0438503Y0306470D01*
X0438610Y0306562D01*
X0438719Y0306651D01*
X0438831Y0306736D01*
X0438945Y0306819D01*
X0439061Y0306899D01*
X0439180Y0306975D01*
X0439301Y0307047D01*
X0439423Y0307117D01*
X0439548Y0307182D01*
X0439674Y0307245D01*
X0439802Y0307303D01*
X0439932Y0307358D01*
X0440063Y0307410D01*
X0440196Y0307457D01*
X0440330Y0307501D01*
X0440465Y0307542D01*
X0440601Y0307578D01*
X0440738Y0307610D01*
X0440876Y0307639D01*
X0441014Y0307664D01*
X0441154Y0307684D01*
X0441294Y0307701D01*
X0441434Y0307714D01*
X0441575Y0307723D01*
X0441715Y0307728D01*
X0441856Y0307729D01*
X0441997Y0307726D01*
X0442138Y0307719D01*
X0442278Y0307708D01*
X0442418Y0307693D01*
X0442558Y0307674D01*
X0442697Y0307652D01*
X0442835Y0307625D01*
X0442973Y0307595D01*
X0443109Y0307560D01*
X0443245Y0307522D01*
X0443379Y0307480D01*
X0443513Y0307434D01*
X0443645Y0307385D01*
X0443775Y0307331D01*
X0443904Y0307274D01*
X0444031Y0307214D01*
X0444157Y0307150D01*
X0444280Y0307082D01*
X0444402Y0307011D01*
X0444522Y0306937D01*
X0444639Y0306859D01*
X0444754Y0306778D01*
X0444867Y0306694D01*
X0444978Y0306607D01*
X0445086Y0306516D01*
X0445191Y0306423D01*
X0445294Y0306326D01*
X0445394Y0306227D01*
X0445491Y0306125D01*
X0445585Y0306020D01*
X0445676Y0305913D01*
X0445764Y0305803D01*
X0445849Y0305691D01*
X0445931Y0305576D01*
X0446010Y0305459D01*
X0446085Y0305340D01*
X0446157Y0305219D01*
X0446225Y0305096D01*
X0446290Y0304971D01*
X0446352Y0304844D01*
X0446409Y0304715D01*
X0446464Y0304585D01*
X0446514Y0304454D01*
X0446561Y0304321D01*
X0446604Y0304187D01*
X0446643Y0304051D01*
X0446678Y0303915D01*
X0446710Y0303778D01*
X0446737Y0303640D01*
X0446761Y0303501D01*
X0446781Y0303361D01*
X0446797Y0303221D01*
X0446809Y0303081D01*
X0446817Y0302940D01*
X0446821Y0302799D01*
X0446821Y0302659D01*
X0446817Y0302518D01*
X0446809Y0302377D01*
X0446797Y0302237D01*
X0446781Y0302097D01*
X0446761Y0301957D01*
X0446737Y0301818D01*
X0446710Y0301680D01*
X0446678Y0301543D01*
X0446643Y0301407D01*
X0446604Y0301271D01*
X0446561Y0301137D01*
X0446514Y0301004D01*
X0446464Y0300873D01*
X0446409Y0300743D01*
X0446352Y0300614D01*
X0446290Y0300487D01*
X0446225Y0300362D01*
X0446157Y0300239D01*
X0446085Y0300118D01*
X0446010Y0299999D01*
X0445931Y0299882D01*
X0445849Y0299767D01*
X0445764Y0299655D01*
X0445676Y0299545D01*
X0445585Y0299438D01*
X0445491Y0299333D01*
X0445394Y0299231D01*
X0445294Y0299132D01*
X0445191Y0299035D01*
X0445086Y0298942D01*
X0444978Y0298851D01*
X0444867Y0298764D01*
X0444754Y0298680D01*
X0444639Y0298599D01*
X0444522Y0298521D01*
X0444402Y0298447D01*
X0444280Y0298376D01*
X0444157Y0298308D01*
X0444031Y0298244D01*
X0443904Y0298184D01*
X0443775Y0298127D01*
X0443645Y0298073D01*
X0443513Y0298024D01*
X0443379Y0297978D01*
X0443245Y0297936D01*
X0443109Y0297898D01*
X0442973Y0297863D01*
X0442835Y0297833D01*
X0442697Y0297806D01*
X0442558Y0297784D01*
X0442418Y0297765D01*
X0442278Y0297750D01*
X0442138Y0297739D01*
X0441997Y0297732D01*
X0441856Y0297729D01*
X0441715Y0297730D01*
X0441575Y0297735D01*
X0441434Y0297744D01*
X0441294Y0297757D01*
X0441154Y0297774D01*
X0441014Y0297794D01*
X0440876Y0297819D01*
X0440738Y0297848D01*
X0440601Y0297880D01*
X0440465Y0297916D01*
X0440330Y0297957D01*
X0440196Y0298001D01*
X0440063Y0298048D01*
X0439932Y0298100D01*
X0439802Y0298155D01*
X0439674Y0298213D01*
X0439548Y0298276D01*
X0439423Y0298341D01*
X0439301Y0298411D01*
X0439180Y0298483D01*
X0439061Y0298559D01*
X0438945Y0298639D01*
X0438831Y0298722D01*
X0438719Y0298807D01*
X0438610Y0298896D01*
X0438503Y0298988D01*
X0438399Y0299083D01*
X0438298Y0299181D01*
X0438199Y0299282D01*
X0438104Y0299385D01*
X0438011Y0299491D01*
X0437921Y0299600D01*
X0437835Y0299711D01*
X0437751Y0299824D01*
X0437671Y0299940D01*
X0437594Y0300058D01*
X0437521Y0300178D01*
X0437450Y0300301D01*
X0437384Y0300425D01*
X0437321Y0300551D01*
X0437261Y0300678D01*
X0437205Y0300807D01*
X0437153Y0300938D01*
X0437104Y0301070D01*
X0437059Y0301204D01*
X0437018Y0301339D01*
X0436981Y0301475D01*
X0436947Y0301611D01*
X0436918Y0301749D01*
X0436892Y0301888D01*
X0436871Y0302027D01*
X0436853Y0302167D01*
X0436839Y0302307D01*
X0436829Y0302447D01*
X0436823Y0302588D01*
X0436821Y0302729D01*
X0436821Y0282729D02*
X0436823Y0282870D01*
X0436829Y0283011D01*
X0436839Y0283151D01*
X0436853Y0283291D01*
X0436871Y0283431D01*
X0436892Y0283570D01*
X0436918Y0283709D01*
X0436947Y0283847D01*
X0436981Y0283983D01*
X0437018Y0284119D01*
X0437059Y0284254D01*
X0437104Y0284388D01*
X0437153Y0284520D01*
X0437205Y0284651D01*
X0437261Y0284780D01*
X0437321Y0284907D01*
X0437384Y0285033D01*
X0437450Y0285157D01*
X0437521Y0285280D01*
X0437594Y0285400D01*
X0437671Y0285518D01*
X0437751Y0285634D01*
X0437835Y0285747D01*
X0437921Y0285858D01*
X0438011Y0285967D01*
X0438104Y0286073D01*
X0438199Y0286176D01*
X0438298Y0286277D01*
X0438399Y0286375D01*
X0438503Y0286470D01*
X0438610Y0286562D01*
X0438719Y0286651D01*
X0438831Y0286736D01*
X0438945Y0286819D01*
X0439061Y0286899D01*
X0439180Y0286975D01*
X0439301Y0287047D01*
X0439423Y0287117D01*
X0439548Y0287182D01*
X0439674Y0287245D01*
X0439802Y0287303D01*
X0439932Y0287358D01*
X0440063Y0287410D01*
X0440196Y0287457D01*
X0440330Y0287501D01*
X0440465Y0287542D01*
X0440601Y0287578D01*
X0440738Y0287610D01*
X0440876Y0287639D01*
X0441014Y0287664D01*
X0441154Y0287684D01*
X0441294Y0287701D01*
X0441434Y0287714D01*
X0441575Y0287723D01*
X0441715Y0287728D01*
X0441856Y0287729D01*
X0441997Y0287726D01*
X0442138Y0287719D01*
X0442278Y0287708D01*
X0442418Y0287693D01*
X0442558Y0287674D01*
X0442697Y0287652D01*
X0442835Y0287625D01*
X0442973Y0287595D01*
X0443109Y0287560D01*
X0443245Y0287522D01*
X0443379Y0287480D01*
X0443513Y0287434D01*
X0443645Y0287385D01*
X0443775Y0287331D01*
X0443904Y0287274D01*
X0444031Y0287214D01*
X0444157Y0287150D01*
X0444280Y0287082D01*
X0444402Y0287011D01*
X0444522Y0286937D01*
X0444639Y0286859D01*
X0444754Y0286778D01*
X0444867Y0286694D01*
X0444978Y0286607D01*
X0445086Y0286516D01*
X0445191Y0286423D01*
X0445294Y0286326D01*
X0445394Y0286227D01*
X0445491Y0286125D01*
X0445585Y0286020D01*
X0445676Y0285913D01*
X0445764Y0285803D01*
X0445849Y0285691D01*
X0445931Y0285576D01*
X0446010Y0285459D01*
X0446085Y0285340D01*
X0446157Y0285219D01*
X0446225Y0285096D01*
X0446290Y0284971D01*
X0446352Y0284844D01*
X0446409Y0284715D01*
X0446464Y0284585D01*
X0446514Y0284454D01*
X0446561Y0284321D01*
X0446604Y0284187D01*
X0446643Y0284051D01*
X0446678Y0283915D01*
X0446710Y0283778D01*
X0446737Y0283640D01*
X0446761Y0283501D01*
X0446781Y0283361D01*
X0446797Y0283221D01*
X0446809Y0283081D01*
X0446817Y0282940D01*
X0446821Y0282799D01*
X0446821Y0282659D01*
X0446817Y0282518D01*
X0446809Y0282377D01*
X0446797Y0282237D01*
X0446781Y0282097D01*
X0446761Y0281957D01*
X0446737Y0281818D01*
X0446710Y0281680D01*
X0446678Y0281543D01*
X0446643Y0281407D01*
X0446604Y0281271D01*
X0446561Y0281137D01*
X0446514Y0281004D01*
X0446464Y0280873D01*
X0446409Y0280743D01*
X0446352Y0280614D01*
X0446290Y0280487D01*
X0446225Y0280362D01*
X0446157Y0280239D01*
X0446085Y0280118D01*
X0446010Y0279999D01*
X0445931Y0279882D01*
X0445849Y0279767D01*
X0445764Y0279655D01*
X0445676Y0279545D01*
X0445585Y0279438D01*
X0445491Y0279333D01*
X0445394Y0279231D01*
X0445294Y0279132D01*
X0445191Y0279035D01*
X0445086Y0278942D01*
X0444978Y0278851D01*
X0444867Y0278764D01*
X0444754Y0278680D01*
X0444639Y0278599D01*
X0444522Y0278521D01*
X0444402Y0278447D01*
X0444280Y0278376D01*
X0444157Y0278308D01*
X0444031Y0278244D01*
X0443904Y0278184D01*
X0443775Y0278127D01*
X0443645Y0278073D01*
X0443513Y0278024D01*
X0443379Y0277978D01*
X0443245Y0277936D01*
X0443109Y0277898D01*
X0442973Y0277863D01*
X0442835Y0277833D01*
X0442697Y0277806D01*
X0442558Y0277784D01*
X0442418Y0277765D01*
X0442278Y0277750D01*
X0442138Y0277739D01*
X0441997Y0277732D01*
X0441856Y0277729D01*
X0441715Y0277730D01*
X0441575Y0277735D01*
X0441434Y0277744D01*
X0441294Y0277757D01*
X0441154Y0277774D01*
X0441014Y0277794D01*
X0440876Y0277819D01*
X0440738Y0277848D01*
X0440601Y0277880D01*
X0440465Y0277916D01*
X0440330Y0277957D01*
X0440196Y0278001D01*
X0440063Y0278048D01*
X0439932Y0278100D01*
X0439802Y0278155D01*
X0439674Y0278213D01*
X0439548Y0278276D01*
X0439423Y0278341D01*
X0439301Y0278411D01*
X0439180Y0278483D01*
X0439061Y0278559D01*
X0438945Y0278639D01*
X0438831Y0278722D01*
X0438719Y0278807D01*
X0438610Y0278896D01*
X0438503Y0278988D01*
X0438399Y0279083D01*
X0438298Y0279181D01*
X0438199Y0279282D01*
X0438104Y0279385D01*
X0438011Y0279491D01*
X0437921Y0279600D01*
X0437835Y0279711D01*
X0437751Y0279824D01*
X0437671Y0279940D01*
X0437594Y0280058D01*
X0437521Y0280178D01*
X0437450Y0280301D01*
X0437384Y0280425D01*
X0437321Y0280551D01*
X0437261Y0280678D01*
X0437205Y0280807D01*
X0437153Y0280938D01*
X0437104Y0281070D01*
X0437059Y0281204D01*
X0437018Y0281339D01*
X0436981Y0281475D01*
X0436947Y0281611D01*
X0436918Y0281749D01*
X0436892Y0281888D01*
X0436871Y0282027D01*
X0436853Y0282167D01*
X0436839Y0282307D01*
X0436829Y0282447D01*
X0436823Y0282588D01*
X0436821Y0282729D01*
X0456821Y0282729D02*
X0456823Y0282870D01*
X0456829Y0283011D01*
X0456839Y0283151D01*
X0456853Y0283291D01*
X0456871Y0283431D01*
X0456892Y0283570D01*
X0456918Y0283709D01*
X0456947Y0283847D01*
X0456981Y0283983D01*
X0457018Y0284119D01*
X0457059Y0284254D01*
X0457104Y0284388D01*
X0457153Y0284520D01*
X0457205Y0284651D01*
X0457261Y0284780D01*
X0457321Y0284907D01*
X0457384Y0285033D01*
X0457450Y0285157D01*
X0457521Y0285280D01*
X0457594Y0285400D01*
X0457671Y0285518D01*
X0457751Y0285634D01*
X0457835Y0285747D01*
X0457921Y0285858D01*
X0458011Y0285967D01*
X0458104Y0286073D01*
X0458199Y0286176D01*
X0458298Y0286277D01*
X0458399Y0286375D01*
X0458503Y0286470D01*
X0458610Y0286562D01*
X0458719Y0286651D01*
X0458831Y0286736D01*
X0458945Y0286819D01*
X0459061Y0286899D01*
X0459180Y0286975D01*
X0459301Y0287047D01*
X0459423Y0287117D01*
X0459548Y0287182D01*
X0459674Y0287245D01*
X0459802Y0287303D01*
X0459932Y0287358D01*
X0460063Y0287410D01*
X0460196Y0287457D01*
X0460330Y0287501D01*
X0460465Y0287542D01*
X0460601Y0287578D01*
X0460738Y0287610D01*
X0460876Y0287639D01*
X0461014Y0287664D01*
X0461154Y0287684D01*
X0461294Y0287701D01*
X0461434Y0287714D01*
X0461575Y0287723D01*
X0461715Y0287728D01*
X0461856Y0287729D01*
X0461997Y0287726D01*
X0462138Y0287719D01*
X0462278Y0287708D01*
X0462418Y0287693D01*
X0462558Y0287674D01*
X0462697Y0287652D01*
X0462835Y0287625D01*
X0462973Y0287595D01*
X0463109Y0287560D01*
X0463245Y0287522D01*
X0463379Y0287480D01*
X0463513Y0287434D01*
X0463645Y0287385D01*
X0463775Y0287331D01*
X0463904Y0287274D01*
X0464031Y0287214D01*
X0464157Y0287150D01*
X0464280Y0287082D01*
X0464402Y0287011D01*
X0464522Y0286937D01*
X0464639Y0286859D01*
X0464754Y0286778D01*
X0464867Y0286694D01*
X0464978Y0286607D01*
X0465086Y0286516D01*
X0465191Y0286423D01*
X0465294Y0286326D01*
X0465394Y0286227D01*
X0465491Y0286125D01*
X0465585Y0286020D01*
X0465676Y0285913D01*
X0465764Y0285803D01*
X0465849Y0285691D01*
X0465931Y0285576D01*
X0466010Y0285459D01*
X0466085Y0285340D01*
X0466157Y0285219D01*
X0466225Y0285096D01*
X0466290Y0284971D01*
X0466352Y0284844D01*
X0466409Y0284715D01*
X0466464Y0284585D01*
X0466514Y0284454D01*
X0466561Y0284321D01*
X0466604Y0284187D01*
X0466643Y0284051D01*
X0466678Y0283915D01*
X0466710Y0283778D01*
X0466737Y0283640D01*
X0466761Y0283501D01*
X0466781Y0283361D01*
X0466797Y0283221D01*
X0466809Y0283081D01*
X0466817Y0282940D01*
X0466821Y0282799D01*
X0466821Y0282659D01*
X0466817Y0282518D01*
X0466809Y0282377D01*
X0466797Y0282237D01*
X0466781Y0282097D01*
X0466761Y0281957D01*
X0466737Y0281818D01*
X0466710Y0281680D01*
X0466678Y0281543D01*
X0466643Y0281407D01*
X0466604Y0281271D01*
X0466561Y0281137D01*
X0466514Y0281004D01*
X0466464Y0280873D01*
X0466409Y0280743D01*
X0466352Y0280614D01*
X0466290Y0280487D01*
X0466225Y0280362D01*
X0466157Y0280239D01*
X0466085Y0280118D01*
X0466010Y0279999D01*
X0465931Y0279882D01*
X0465849Y0279767D01*
X0465764Y0279655D01*
X0465676Y0279545D01*
X0465585Y0279438D01*
X0465491Y0279333D01*
X0465394Y0279231D01*
X0465294Y0279132D01*
X0465191Y0279035D01*
X0465086Y0278942D01*
X0464978Y0278851D01*
X0464867Y0278764D01*
X0464754Y0278680D01*
X0464639Y0278599D01*
X0464522Y0278521D01*
X0464402Y0278447D01*
X0464280Y0278376D01*
X0464157Y0278308D01*
X0464031Y0278244D01*
X0463904Y0278184D01*
X0463775Y0278127D01*
X0463645Y0278073D01*
X0463513Y0278024D01*
X0463379Y0277978D01*
X0463245Y0277936D01*
X0463109Y0277898D01*
X0462973Y0277863D01*
X0462835Y0277833D01*
X0462697Y0277806D01*
X0462558Y0277784D01*
X0462418Y0277765D01*
X0462278Y0277750D01*
X0462138Y0277739D01*
X0461997Y0277732D01*
X0461856Y0277729D01*
X0461715Y0277730D01*
X0461575Y0277735D01*
X0461434Y0277744D01*
X0461294Y0277757D01*
X0461154Y0277774D01*
X0461014Y0277794D01*
X0460876Y0277819D01*
X0460738Y0277848D01*
X0460601Y0277880D01*
X0460465Y0277916D01*
X0460330Y0277957D01*
X0460196Y0278001D01*
X0460063Y0278048D01*
X0459932Y0278100D01*
X0459802Y0278155D01*
X0459674Y0278213D01*
X0459548Y0278276D01*
X0459423Y0278341D01*
X0459301Y0278411D01*
X0459180Y0278483D01*
X0459061Y0278559D01*
X0458945Y0278639D01*
X0458831Y0278722D01*
X0458719Y0278807D01*
X0458610Y0278896D01*
X0458503Y0278988D01*
X0458399Y0279083D01*
X0458298Y0279181D01*
X0458199Y0279282D01*
X0458104Y0279385D01*
X0458011Y0279491D01*
X0457921Y0279600D01*
X0457835Y0279711D01*
X0457751Y0279824D01*
X0457671Y0279940D01*
X0457594Y0280058D01*
X0457521Y0280178D01*
X0457450Y0280301D01*
X0457384Y0280425D01*
X0457321Y0280551D01*
X0457261Y0280678D01*
X0457205Y0280807D01*
X0457153Y0280938D01*
X0457104Y0281070D01*
X0457059Y0281204D01*
X0457018Y0281339D01*
X0456981Y0281475D01*
X0456947Y0281611D01*
X0456918Y0281749D01*
X0456892Y0281888D01*
X0456871Y0282027D01*
X0456853Y0282167D01*
X0456839Y0282307D01*
X0456829Y0282447D01*
X0456823Y0282588D01*
X0456821Y0282729D01*
X0369971Y0285150D02*
X0369971Y0280150D01*
X0367471Y0277650D01*
X0362471Y0277650D01*
X0359971Y0280150D01*
X0359971Y0285150D01*
X0362471Y0287650D01*
X0359971Y0290150D01*
X0359971Y0295150D01*
X0362471Y0297650D01*
X0359971Y0300150D01*
X0359971Y0305150D01*
X0362471Y0307650D01*
X0359971Y0310150D01*
X0359971Y0315150D01*
X0362471Y0317650D01*
X0359971Y0320150D01*
X0359971Y0325150D01*
X0362471Y0327650D01*
X0359971Y0330150D01*
X0359971Y0335150D01*
X0362471Y0337650D01*
X0367471Y0337650D01*
X0369971Y0335150D01*
X0369971Y0330150D01*
X0367471Y0327650D01*
X0369971Y0325150D01*
X0369971Y0320150D01*
X0367471Y0317650D01*
X0369971Y0315150D01*
X0369971Y0310150D01*
X0367471Y0307650D01*
X0369971Y0305150D01*
X0369971Y0300150D01*
X0367471Y0297650D01*
X0369971Y0295150D01*
X0369971Y0290150D01*
X0367471Y0287650D01*
X0369971Y0285150D01*
X0473987Y0235347D02*
X0476487Y0237847D01*
X0481487Y0237847D01*
X0483987Y0235347D01*
X0486487Y0237847D01*
X0491487Y0237847D01*
X0493987Y0235347D01*
X0496487Y0237847D01*
X0501487Y0237847D01*
X0503987Y0235347D01*
X0503987Y0230347D01*
X0501487Y0227847D01*
X0496487Y0227847D01*
X0493987Y0230347D01*
X0491487Y0227847D01*
X0486487Y0227847D01*
X0483987Y0230347D01*
X0481487Y0227847D01*
X0476487Y0227847D01*
X0473987Y0230347D01*
X0473987Y0235347D01*
X0494144Y0213835D02*
X0374144Y0213835D01*
X0374144Y0160835D01*
X0494144Y0160835D01*
X0494144Y0183335D01*
X0494018Y0183337D01*
X0493893Y0183343D01*
X0493768Y0183353D01*
X0493643Y0183367D01*
X0493518Y0183384D01*
X0493394Y0183406D01*
X0493271Y0183431D01*
X0493149Y0183461D01*
X0493028Y0183494D01*
X0492908Y0183531D01*
X0492789Y0183571D01*
X0492672Y0183616D01*
X0492555Y0183664D01*
X0492441Y0183716D01*
X0492328Y0183771D01*
X0492217Y0183830D01*
X0492108Y0183892D01*
X0492001Y0183958D01*
X0491896Y0184027D01*
X0491793Y0184099D01*
X0491692Y0184174D01*
X0491594Y0184253D01*
X0491499Y0184335D01*
X0491406Y0184419D01*
X0491316Y0184507D01*
X0491228Y0184597D01*
X0491144Y0184690D01*
X0491062Y0184785D01*
X0490983Y0184883D01*
X0490908Y0184984D01*
X0490836Y0185087D01*
X0490767Y0185192D01*
X0490701Y0185299D01*
X0490639Y0185408D01*
X0490580Y0185519D01*
X0490525Y0185632D01*
X0490473Y0185746D01*
X0490425Y0185863D01*
X0490380Y0185980D01*
X0490340Y0186099D01*
X0490303Y0186219D01*
X0490270Y0186340D01*
X0490240Y0186462D01*
X0490215Y0186585D01*
X0490193Y0186709D01*
X0490176Y0186834D01*
X0490162Y0186959D01*
X0490152Y0187084D01*
X0490146Y0187209D01*
X0490144Y0187335D01*
X0490146Y0187461D01*
X0490152Y0187586D01*
X0490162Y0187711D01*
X0490176Y0187836D01*
X0490193Y0187961D01*
X0490215Y0188085D01*
X0490240Y0188208D01*
X0490270Y0188330D01*
X0490303Y0188451D01*
X0490340Y0188571D01*
X0490380Y0188690D01*
X0490425Y0188807D01*
X0490473Y0188924D01*
X0490525Y0189038D01*
X0490580Y0189151D01*
X0490639Y0189262D01*
X0490701Y0189371D01*
X0490767Y0189478D01*
X0490836Y0189583D01*
X0490908Y0189686D01*
X0490983Y0189787D01*
X0491062Y0189885D01*
X0491144Y0189980D01*
X0491228Y0190073D01*
X0491316Y0190163D01*
X0491406Y0190251D01*
X0491499Y0190335D01*
X0491594Y0190417D01*
X0491692Y0190496D01*
X0491793Y0190571D01*
X0491896Y0190643D01*
X0492001Y0190712D01*
X0492108Y0190778D01*
X0492217Y0190840D01*
X0492328Y0190899D01*
X0492441Y0190954D01*
X0492555Y0191006D01*
X0492672Y0191054D01*
X0492789Y0191099D01*
X0492908Y0191139D01*
X0493028Y0191176D01*
X0493149Y0191209D01*
X0493271Y0191239D01*
X0493394Y0191264D01*
X0493518Y0191286D01*
X0493643Y0191303D01*
X0493768Y0191317D01*
X0493893Y0191327D01*
X0494018Y0191333D01*
X0494144Y0191335D01*
X0494144Y0213835D01*
X0631703Y0143386D02*
X0680703Y0143386D01*
X0680703Y0139886D01*
X0686703Y0139886D01*
X0686703Y0143386D01*
X0694203Y0143386D01*
X0694203Y0102386D01*
X0686703Y0102386D01*
X0686703Y0105886D01*
X0680703Y0105886D01*
X0680703Y0102386D01*
X0631703Y0102386D01*
X0631703Y0143386D01*
X0593858Y0122689D02*
X0593861Y0122934D01*
X0593870Y0123180D01*
X0593885Y0123425D01*
X0593906Y0123669D01*
X0593933Y0123913D01*
X0593966Y0124156D01*
X0594005Y0124399D01*
X0594050Y0124640D01*
X0594101Y0124880D01*
X0594158Y0125119D01*
X0594220Y0125356D01*
X0594289Y0125592D01*
X0594363Y0125826D01*
X0594443Y0126058D01*
X0594528Y0126288D01*
X0594619Y0126516D01*
X0594716Y0126741D01*
X0594818Y0126965D01*
X0594926Y0127185D01*
X0595039Y0127403D01*
X0595157Y0127618D01*
X0595281Y0127830D01*
X0595409Y0128039D01*
X0595543Y0128245D01*
X0595682Y0128447D01*
X0595826Y0128646D01*
X0595975Y0128841D01*
X0596128Y0129033D01*
X0596286Y0129221D01*
X0596448Y0129405D01*
X0596616Y0129584D01*
X0596787Y0129760D01*
X0596963Y0129931D01*
X0597142Y0130099D01*
X0597326Y0130261D01*
X0597514Y0130419D01*
X0597706Y0130572D01*
X0597901Y0130721D01*
X0598100Y0130865D01*
X0598302Y0131004D01*
X0598508Y0131138D01*
X0598717Y0131266D01*
X0598929Y0131390D01*
X0599144Y0131508D01*
X0599362Y0131621D01*
X0599582Y0131729D01*
X0599806Y0131831D01*
X0600031Y0131928D01*
X0600259Y0132019D01*
X0600489Y0132104D01*
X0600721Y0132184D01*
X0600955Y0132258D01*
X0601191Y0132327D01*
X0601428Y0132389D01*
X0601667Y0132446D01*
X0601907Y0132497D01*
X0602148Y0132542D01*
X0602391Y0132581D01*
X0602634Y0132614D01*
X0602878Y0132641D01*
X0603122Y0132662D01*
X0603367Y0132677D01*
X0603613Y0132686D01*
X0603858Y0132689D01*
X0604103Y0132686D01*
X0604349Y0132677D01*
X0604594Y0132662D01*
X0604838Y0132641D01*
X0605082Y0132614D01*
X0605325Y0132581D01*
X0605568Y0132542D01*
X0605809Y0132497D01*
X0606049Y0132446D01*
X0606288Y0132389D01*
X0606525Y0132327D01*
X0606761Y0132258D01*
X0606995Y0132184D01*
X0607227Y0132104D01*
X0607457Y0132019D01*
X0607685Y0131928D01*
X0607910Y0131831D01*
X0608134Y0131729D01*
X0608354Y0131621D01*
X0608572Y0131508D01*
X0608787Y0131390D01*
X0608999Y0131266D01*
X0609208Y0131138D01*
X0609414Y0131004D01*
X0609616Y0130865D01*
X0609815Y0130721D01*
X0610010Y0130572D01*
X0610202Y0130419D01*
X0610390Y0130261D01*
X0610574Y0130099D01*
X0610753Y0129931D01*
X0610929Y0129760D01*
X0611100Y0129584D01*
X0611268Y0129405D01*
X0611430Y0129221D01*
X0611588Y0129033D01*
X0611741Y0128841D01*
X0611890Y0128646D01*
X0612034Y0128447D01*
X0612173Y0128245D01*
X0612307Y0128039D01*
X0612435Y0127830D01*
X0612559Y0127618D01*
X0612677Y0127403D01*
X0612790Y0127185D01*
X0612898Y0126965D01*
X0613000Y0126741D01*
X0613097Y0126516D01*
X0613188Y0126288D01*
X0613273Y0126058D01*
X0613353Y0125826D01*
X0613427Y0125592D01*
X0613496Y0125356D01*
X0613558Y0125119D01*
X0613615Y0124880D01*
X0613666Y0124640D01*
X0613711Y0124399D01*
X0613750Y0124156D01*
X0613783Y0123913D01*
X0613810Y0123669D01*
X0613831Y0123425D01*
X0613846Y0123180D01*
X0613855Y0122934D01*
X0613858Y0122689D01*
X0613855Y0122444D01*
X0613846Y0122198D01*
X0613831Y0121953D01*
X0613810Y0121709D01*
X0613783Y0121465D01*
X0613750Y0121222D01*
X0613711Y0120979D01*
X0613666Y0120738D01*
X0613615Y0120498D01*
X0613558Y0120259D01*
X0613496Y0120022D01*
X0613427Y0119786D01*
X0613353Y0119552D01*
X0613273Y0119320D01*
X0613188Y0119090D01*
X0613097Y0118862D01*
X0613000Y0118637D01*
X0612898Y0118413D01*
X0612790Y0118193D01*
X0612677Y0117975D01*
X0612559Y0117760D01*
X0612435Y0117548D01*
X0612307Y0117339D01*
X0612173Y0117133D01*
X0612034Y0116931D01*
X0611890Y0116732D01*
X0611741Y0116537D01*
X0611588Y0116345D01*
X0611430Y0116157D01*
X0611268Y0115973D01*
X0611100Y0115794D01*
X0610929Y0115618D01*
X0610753Y0115447D01*
X0610574Y0115279D01*
X0610390Y0115117D01*
X0610202Y0114959D01*
X0610010Y0114806D01*
X0609815Y0114657D01*
X0609616Y0114513D01*
X0609414Y0114374D01*
X0609208Y0114240D01*
X0608999Y0114112D01*
X0608787Y0113988D01*
X0608572Y0113870D01*
X0608354Y0113757D01*
X0608134Y0113649D01*
X0607910Y0113547D01*
X0607685Y0113450D01*
X0607457Y0113359D01*
X0607227Y0113274D01*
X0606995Y0113194D01*
X0606761Y0113120D01*
X0606525Y0113051D01*
X0606288Y0112989D01*
X0606049Y0112932D01*
X0605809Y0112881D01*
X0605568Y0112836D01*
X0605325Y0112797D01*
X0605082Y0112764D01*
X0604838Y0112737D01*
X0604594Y0112716D01*
X0604349Y0112701D01*
X0604103Y0112692D01*
X0603858Y0112689D01*
X0603613Y0112692D01*
X0603367Y0112701D01*
X0603122Y0112716D01*
X0602878Y0112737D01*
X0602634Y0112764D01*
X0602391Y0112797D01*
X0602148Y0112836D01*
X0601907Y0112881D01*
X0601667Y0112932D01*
X0601428Y0112989D01*
X0601191Y0113051D01*
X0600955Y0113120D01*
X0600721Y0113194D01*
X0600489Y0113274D01*
X0600259Y0113359D01*
X0600031Y0113450D01*
X0599806Y0113547D01*
X0599582Y0113649D01*
X0599362Y0113757D01*
X0599144Y0113870D01*
X0598929Y0113988D01*
X0598717Y0114112D01*
X0598508Y0114240D01*
X0598302Y0114374D01*
X0598100Y0114513D01*
X0597901Y0114657D01*
X0597706Y0114806D01*
X0597514Y0114959D01*
X0597326Y0115117D01*
X0597142Y0115279D01*
X0596963Y0115447D01*
X0596787Y0115618D01*
X0596616Y0115794D01*
X0596448Y0115973D01*
X0596286Y0116157D01*
X0596128Y0116345D01*
X0595975Y0116537D01*
X0595826Y0116732D01*
X0595682Y0116931D01*
X0595543Y0117133D01*
X0595409Y0117339D01*
X0595281Y0117548D01*
X0595157Y0117760D01*
X0595039Y0117975D01*
X0594926Y0118193D01*
X0594818Y0118413D01*
X0594716Y0118637D01*
X0594619Y0118862D01*
X0594528Y0119090D01*
X0594443Y0119320D01*
X0594363Y0119552D01*
X0594289Y0119786D01*
X0594220Y0120022D01*
X0594158Y0120259D01*
X0594101Y0120498D01*
X0594050Y0120738D01*
X0594005Y0120979D01*
X0593966Y0121222D01*
X0593933Y0121465D01*
X0593906Y0121709D01*
X0593885Y0121953D01*
X0593870Y0122198D01*
X0593861Y0122444D01*
X0593858Y0122689D01*
X0608358Y0117689D02*
X0609358Y0117689D01*
X0609358Y0116689D01*
X0609358Y0117689D02*
X0609358Y0118689D01*
X0609358Y0117689D02*
X0610358Y0117689D01*
X0673603Y0122886D02*
X0673605Y0123060D01*
X0673612Y0123234D01*
X0673622Y0123408D01*
X0673637Y0123582D01*
X0673656Y0123755D01*
X0673680Y0123928D01*
X0673708Y0124100D01*
X0673739Y0124271D01*
X0673776Y0124442D01*
X0673816Y0124611D01*
X0673860Y0124780D01*
X0673909Y0124947D01*
X0673961Y0125113D01*
X0674018Y0125278D01*
X0674079Y0125441D01*
X0674143Y0125603D01*
X0674212Y0125763D01*
X0674285Y0125922D01*
X0674361Y0126078D01*
X0674441Y0126233D01*
X0674525Y0126386D01*
X0674613Y0126536D01*
X0674705Y0126684D01*
X0674800Y0126831D01*
X0674898Y0126974D01*
X0675000Y0127115D01*
X0675106Y0127254D01*
X0675215Y0127390D01*
X0675327Y0127524D01*
X0675442Y0127654D01*
X0675561Y0127782D01*
X0675683Y0127906D01*
X0675807Y0128028D01*
X0675935Y0128147D01*
X0676065Y0128262D01*
X0676199Y0128374D01*
X0676335Y0128483D01*
X0676474Y0128589D01*
X0676615Y0128691D01*
X0676758Y0128789D01*
X0676905Y0128884D01*
X0677053Y0128976D01*
X0677203Y0129064D01*
X0677356Y0129148D01*
X0677511Y0129228D01*
X0677667Y0129304D01*
X0677826Y0129377D01*
X0677986Y0129446D01*
X0678148Y0129510D01*
X0678311Y0129571D01*
X0678476Y0129628D01*
X0678642Y0129680D01*
X0678809Y0129729D01*
X0678978Y0129773D01*
X0679147Y0129813D01*
X0679318Y0129850D01*
X0679489Y0129881D01*
X0679661Y0129909D01*
X0679834Y0129933D01*
X0680007Y0129952D01*
X0680181Y0129967D01*
X0680355Y0129977D01*
X0680529Y0129984D01*
X0680703Y0129986D01*
X0680877Y0129984D01*
X0681051Y0129977D01*
X0681225Y0129967D01*
X0681399Y0129952D01*
X0681572Y0129933D01*
X0681745Y0129909D01*
X0681917Y0129881D01*
X0682088Y0129850D01*
X0682259Y0129813D01*
X0682428Y0129773D01*
X0682597Y0129729D01*
X0682764Y0129680D01*
X0682930Y0129628D01*
X0683095Y0129571D01*
X0683258Y0129510D01*
X0683420Y0129446D01*
X0683580Y0129377D01*
X0683739Y0129304D01*
X0683895Y0129228D01*
X0684050Y0129148D01*
X0684203Y0129064D01*
X0684353Y0128976D01*
X0684501Y0128884D01*
X0684648Y0128789D01*
X0684791Y0128691D01*
X0684932Y0128589D01*
X0685071Y0128483D01*
X0685207Y0128374D01*
X0685341Y0128262D01*
X0685471Y0128147D01*
X0685599Y0128028D01*
X0685723Y0127906D01*
X0685845Y0127782D01*
X0685964Y0127654D01*
X0686079Y0127524D01*
X0686191Y0127390D01*
X0686300Y0127254D01*
X0686406Y0127115D01*
X0686508Y0126974D01*
X0686606Y0126831D01*
X0686701Y0126684D01*
X0686793Y0126536D01*
X0686881Y0126386D01*
X0686965Y0126233D01*
X0687045Y0126078D01*
X0687121Y0125922D01*
X0687194Y0125763D01*
X0687263Y0125603D01*
X0687327Y0125441D01*
X0687388Y0125278D01*
X0687445Y0125113D01*
X0687497Y0124947D01*
X0687546Y0124780D01*
X0687590Y0124611D01*
X0687630Y0124442D01*
X0687667Y0124271D01*
X0687698Y0124100D01*
X0687726Y0123928D01*
X0687750Y0123755D01*
X0687769Y0123582D01*
X0687784Y0123408D01*
X0687794Y0123234D01*
X0687801Y0123060D01*
X0687803Y0122886D01*
X0687801Y0122712D01*
X0687794Y0122538D01*
X0687784Y0122364D01*
X0687769Y0122190D01*
X0687750Y0122017D01*
X0687726Y0121844D01*
X0687698Y0121672D01*
X0687667Y0121501D01*
X0687630Y0121330D01*
X0687590Y0121161D01*
X0687546Y0120992D01*
X0687497Y0120825D01*
X0687445Y0120659D01*
X0687388Y0120494D01*
X0687327Y0120331D01*
X0687263Y0120169D01*
X0687194Y0120009D01*
X0687121Y0119850D01*
X0687045Y0119694D01*
X0686965Y0119539D01*
X0686881Y0119386D01*
X0686793Y0119236D01*
X0686701Y0119088D01*
X0686606Y0118941D01*
X0686508Y0118798D01*
X0686406Y0118657D01*
X0686300Y0118518D01*
X0686191Y0118382D01*
X0686079Y0118248D01*
X0685964Y0118118D01*
X0685845Y0117990D01*
X0685723Y0117866D01*
X0685599Y0117744D01*
X0685471Y0117625D01*
X0685341Y0117510D01*
X0685207Y0117398D01*
X0685071Y0117289D01*
X0684932Y0117183D01*
X0684791Y0117081D01*
X0684648Y0116983D01*
X0684501Y0116888D01*
X0684353Y0116796D01*
X0684203Y0116708D01*
X0684050Y0116624D01*
X0683895Y0116544D01*
X0683739Y0116468D01*
X0683580Y0116395D01*
X0683420Y0116326D01*
X0683258Y0116262D01*
X0683095Y0116201D01*
X0682930Y0116144D01*
X0682764Y0116092D01*
X0682597Y0116043D01*
X0682428Y0115999D01*
X0682259Y0115959D01*
X0682088Y0115922D01*
X0681917Y0115891D01*
X0681745Y0115863D01*
X0681572Y0115839D01*
X0681399Y0115820D01*
X0681225Y0115805D01*
X0681051Y0115795D01*
X0680877Y0115788D01*
X0680703Y0115786D01*
X0680529Y0115788D01*
X0680355Y0115795D01*
X0680181Y0115805D01*
X0680007Y0115820D01*
X0679834Y0115839D01*
X0679661Y0115863D01*
X0679489Y0115891D01*
X0679318Y0115922D01*
X0679147Y0115959D01*
X0678978Y0115999D01*
X0678809Y0116043D01*
X0678642Y0116092D01*
X0678476Y0116144D01*
X0678311Y0116201D01*
X0678148Y0116262D01*
X0677986Y0116326D01*
X0677826Y0116395D01*
X0677667Y0116468D01*
X0677511Y0116544D01*
X0677356Y0116624D01*
X0677203Y0116708D01*
X0677053Y0116796D01*
X0676905Y0116888D01*
X0676758Y0116983D01*
X0676615Y0117081D01*
X0676474Y0117183D01*
X0676335Y0117289D01*
X0676199Y0117398D01*
X0676065Y0117510D01*
X0675935Y0117625D01*
X0675807Y0117744D01*
X0675683Y0117866D01*
X0675561Y0117990D01*
X0675442Y0118118D01*
X0675327Y0118248D01*
X0675215Y0118382D01*
X0675106Y0118518D01*
X0675000Y0118657D01*
X0674898Y0118798D01*
X0674800Y0118941D01*
X0674705Y0119088D01*
X0674613Y0119236D01*
X0674525Y0119386D01*
X0674441Y0119539D01*
X0674361Y0119694D01*
X0674285Y0119850D01*
X0674212Y0120009D01*
X0674143Y0120169D01*
X0674079Y0120331D01*
X0674018Y0120494D01*
X0673961Y0120659D01*
X0673909Y0120825D01*
X0673860Y0120992D01*
X0673816Y0121161D01*
X0673776Y0121330D01*
X0673739Y0121501D01*
X0673708Y0121672D01*
X0673680Y0121844D01*
X0673656Y0122017D01*
X0673637Y0122190D01*
X0673622Y0122364D01*
X0673612Y0122538D01*
X0673605Y0122712D01*
X0673603Y0122886D01*
X0680768Y0059139D02*
X0679700Y0058071D01*
X0679700Y0057004D01*
X0680768Y0055936D01*
X0682903Y0055936D01*
X0683970Y0054868D01*
X0683970Y0053801D01*
X0682903Y0052733D01*
X0680768Y0052733D01*
X0679700Y0053801D01*
X0683970Y0058071D02*
X0682903Y0059139D01*
X0680768Y0059139D01*
X0686145Y0059139D02*
X0690416Y0059139D01*
X0688281Y0059139D02*
X0688281Y0052733D01*
X0692591Y0052733D02*
X0696861Y0052733D01*
X0694726Y0052733D02*
X0694726Y0059139D01*
X0692591Y0057004D01*
X0514302Y0098709D02*
X0514302Y0106209D01*
X0514176Y0106211D01*
X0514051Y0106217D01*
X0513926Y0106227D01*
X0513801Y0106241D01*
X0513676Y0106258D01*
X0513552Y0106280D01*
X0513429Y0106305D01*
X0513307Y0106335D01*
X0513186Y0106368D01*
X0513066Y0106405D01*
X0512947Y0106445D01*
X0512830Y0106490D01*
X0512713Y0106538D01*
X0512599Y0106590D01*
X0512486Y0106645D01*
X0512375Y0106704D01*
X0512266Y0106766D01*
X0512159Y0106832D01*
X0512054Y0106901D01*
X0511951Y0106973D01*
X0511850Y0107048D01*
X0511752Y0107127D01*
X0511657Y0107209D01*
X0511564Y0107293D01*
X0511474Y0107381D01*
X0511386Y0107471D01*
X0511302Y0107564D01*
X0511220Y0107659D01*
X0511141Y0107757D01*
X0511066Y0107858D01*
X0510994Y0107961D01*
X0510925Y0108066D01*
X0510859Y0108173D01*
X0510797Y0108282D01*
X0510738Y0108393D01*
X0510683Y0108506D01*
X0510631Y0108620D01*
X0510583Y0108737D01*
X0510538Y0108854D01*
X0510498Y0108973D01*
X0510461Y0109093D01*
X0510428Y0109214D01*
X0510398Y0109336D01*
X0510373Y0109459D01*
X0510351Y0109583D01*
X0510334Y0109708D01*
X0510320Y0109833D01*
X0510310Y0109958D01*
X0510304Y0110083D01*
X0510302Y0110209D01*
X0510304Y0110335D01*
X0510310Y0110460D01*
X0510320Y0110585D01*
X0510334Y0110710D01*
X0510351Y0110835D01*
X0510373Y0110959D01*
X0510398Y0111082D01*
X0510428Y0111204D01*
X0510461Y0111325D01*
X0510498Y0111445D01*
X0510538Y0111564D01*
X0510583Y0111681D01*
X0510631Y0111798D01*
X0510683Y0111912D01*
X0510738Y0112025D01*
X0510797Y0112136D01*
X0510859Y0112245D01*
X0510925Y0112352D01*
X0510994Y0112457D01*
X0511066Y0112560D01*
X0511141Y0112661D01*
X0511220Y0112759D01*
X0511302Y0112854D01*
X0511386Y0112947D01*
X0511474Y0113037D01*
X0511564Y0113125D01*
X0511657Y0113209D01*
X0511752Y0113291D01*
X0511850Y0113370D01*
X0511951Y0113445D01*
X0512054Y0113517D01*
X0512159Y0113586D01*
X0512266Y0113652D01*
X0512375Y0113714D01*
X0512486Y0113773D01*
X0512599Y0113828D01*
X0512713Y0113880D01*
X0512830Y0113928D01*
X0512947Y0113973D01*
X0513066Y0114013D01*
X0513186Y0114050D01*
X0513307Y0114083D01*
X0513429Y0114113D01*
X0513552Y0114138D01*
X0513676Y0114160D01*
X0513801Y0114177D01*
X0513926Y0114191D01*
X0514051Y0114201D01*
X0514176Y0114207D01*
X0514302Y0114209D01*
X0514302Y0121709D01*
X0414302Y0121709D01*
X0414302Y0098709D01*
X0514302Y0098709D01*
D12*
X0585400Y0113690D02*
X0586151Y0112939D01*
X0587652Y0112939D01*
X0588403Y0113690D01*
X0590004Y0112939D02*
X0593007Y0115942D01*
X0593007Y0116692D01*
X0592256Y0117443D01*
X0590755Y0117443D01*
X0590004Y0116692D01*
X0588403Y0116692D02*
X0587652Y0117443D01*
X0586151Y0117443D01*
X0585400Y0116692D01*
X0585400Y0113690D01*
X0590004Y0112939D02*
X0593007Y0112939D01*
X0574026Y0199382D02*
X0684853Y0199382D01*
X0684853Y0315524D01*
X0574026Y0315524D01*
X0574026Y0199382D01*
X0486447Y0239597D02*
X0483444Y0239597D01*
X0484946Y0239597D02*
X0484946Y0244101D01*
X0483444Y0242599D01*
X0481843Y0241098D02*
X0481843Y0244101D01*
X0478841Y0244101D02*
X0478841Y0241098D01*
X0480342Y0239597D01*
X0481843Y0241098D01*
X0477239Y0241098D02*
X0477239Y0240347D01*
X0476489Y0239597D01*
X0474987Y0239597D01*
X0474237Y0240347D01*
X0474987Y0241849D02*
X0476489Y0241849D01*
X0477239Y0241098D01*
X0477239Y0243350D02*
X0476489Y0244101D01*
X0474987Y0244101D01*
X0474237Y0243350D01*
X0474237Y0242599D01*
X0474987Y0241849D01*
X0470738Y0235101D02*
X0470738Y0230597D01*
X0469237Y0230597D02*
X0472239Y0230597D01*
X0469237Y0233599D02*
X0470738Y0235101D01*
X0486823Y0250479D02*
X0486823Y0254982D01*
X0484571Y0252731D01*
X0487574Y0252731D01*
X0489175Y0252731D02*
X0491427Y0254982D01*
X0491427Y0250479D01*
X0492178Y0252731D02*
X0489175Y0252731D01*
X0418810Y0241837D02*
X0415807Y0241837D01*
X0418059Y0244089D01*
X0418059Y0239585D01*
X0414206Y0240336D02*
X0413455Y0239585D01*
X0411954Y0239585D01*
X0411204Y0240336D01*
X0411204Y0243338D01*
X0411954Y0244089D01*
X0413455Y0244089D01*
X0414206Y0243338D01*
X0409636Y0244089D02*
X0408134Y0244089D01*
X0408885Y0244089D02*
X0408885Y0239585D01*
X0408134Y0239585D02*
X0409636Y0239585D01*
X0375470Y0280796D02*
X0373969Y0280796D01*
X0373969Y0283048D01*
X0374720Y0283798D01*
X0375470Y0283798D01*
X0376221Y0283048D01*
X0376221Y0281547D01*
X0375470Y0280796D01*
X0373969Y0280796D02*
X0372468Y0282297D01*
X0371717Y0283798D01*
X0372468Y0324088D02*
X0373218Y0324088D01*
X0373969Y0324839D01*
X0373969Y0326340D01*
X0374720Y0327091D01*
X0375470Y0327091D01*
X0376221Y0326340D01*
X0376221Y0324839D01*
X0375470Y0324088D01*
X0372468Y0324088D02*
X0371717Y0324839D01*
X0371717Y0326340D01*
X0372468Y0327091D01*
X0371717Y0328692D02*
X0374720Y0328692D01*
X0376221Y0330193D01*
X0374720Y0331695D01*
X0371717Y0331695D01*
X0372468Y0333296D02*
X0371717Y0334047D01*
X0371717Y0335548D01*
X0372468Y0336298D01*
X0373218Y0336298D01*
X0376221Y0333296D01*
X0376221Y0336298D01*
X0358221Y0333798D02*
X0358221Y0330796D01*
X0358221Y0332297D02*
X0353717Y0332297D01*
X0355218Y0330796D01*
D13*
X0451821Y0304979D03*
D14*
X0451821Y0308479D03*
D15*
X0451821Y0309729D03*
D16*
X0451821Y0310729D03*
D17*
X0451821Y0311729D03*
D18*
X0447821Y0307979D03*
X0455821Y0307979D03*
D19*
X0455571Y0308479D03*
X0454571Y0309479D03*
X0453571Y0310479D03*
X0452571Y0311479D03*
X0451071Y0311479D03*
X0450071Y0310479D03*
X0449071Y0309479D03*
X0448071Y0308479D03*
D20*
X0634203Y0140886D02*
X0666703Y0140886D01*
X0666703Y0104886D01*
X0634203Y0104886D01*
X0634203Y0140886D01*
D21*
X0629953Y0132886D03*
X0629953Y0122886D03*
X0629953Y0112886D03*
D22*
X0657048Y0121048D02*
X0657048Y0123150D01*
X0657048Y0122099D02*
X0663353Y0122099D01*
X0663353Y0121048D02*
X0663353Y0123150D01*
X0662302Y0125345D02*
X0663353Y0126396D01*
X0663353Y0128498D01*
X0662302Y0129549D01*
X0663353Y0131791D02*
X0659150Y0135994D01*
X0658099Y0135994D01*
X0657048Y0134943D01*
X0657048Y0132841D01*
X0658099Y0131791D01*
X0658099Y0129549D02*
X0657048Y0128498D01*
X0657048Y0126396D01*
X0658099Y0125345D01*
X0662302Y0125345D01*
X0663353Y0131791D02*
X0663353Y0135994D01*
X0501794Y0196997D02*
X0501794Y0199099D01*
X0501794Y0198048D02*
X0495489Y0198048D01*
X0495489Y0196997D02*
X0495489Y0199099D01*
X0496540Y0201294D02*
X0500743Y0201294D01*
X0501794Y0202345D01*
X0501794Y0204447D01*
X0500743Y0205497D01*
X0500743Y0207739D02*
X0501794Y0208790D01*
X0501794Y0210892D01*
X0500743Y0211943D01*
X0499692Y0211943D01*
X0498641Y0210892D01*
X0498641Y0209841D01*
X0498641Y0210892D02*
X0497591Y0211943D01*
X0496540Y0211943D01*
X0495489Y0210892D01*
X0495489Y0208790D01*
X0496540Y0207739D01*
X0496540Y0205497D02*
X0495489Y0204447D01*
X0495489Y0202345D01*
X0496540Y0201294D01*
D23*
X0531743Y0317548D03*
D24*
X0595773Y0106125D02*
X0595156Y0105508D01*
X0595156Y0103039D01*
X0595773Y0102422D01*
X0597008Y0102422D01*
X0597625Y0103039D01*
X0598839Y0102422D02*
X0601308Y0102422D01*
X0600074Y0102422D02*
X0600074Y0106125D01*
X0598839Y0104891D01*
X0597625Y0105508D02*
X0597008Y0106125D01*
X0595773Y0106125D01*
M02*
