G75*
%MOIN*%
%OFA0B0*%
%FSLAX25Y25*%
%IPPOS*%
%LPD*%
%AMOC8*
5,1,8,0,0,1.08239X$1,22.5*
%
%ADD10R,0.06000X0.25500*%
%ADD11C,0.04775*%
%ADD12OC8,0.04775*%
%ADD13C,0.04775*%
%ADD14C,0.05575*%
%ADD15OC8,0.06300*%
%ADD16C,0.06300*%
%ADD17C,0.07874*%
%ADD18R,0.04134X0.04252*%
%ADD19R,0.04252X0.04134*%
%ADD20C,0.02559*%
%ADD21C,0.01575*%
%ADD22C,0.03937*%
%ADD23C,0.02362*%
D10*
X0414400Y0057433D03*
X0424400Y0057433D03*
X0434400Y0057433D03*
X0444400Y0057433D03*
X0454400Y0057433D03*
X0464400Y0057433D03*
X0474400Y0057433D03*
X0484400Y0057433D03*
X0494400Y0057433D03*
X0504400Y0057433D03*
X0514400Y0057433D03*
X0524400Y0057433D03*
X0534400Y0057433D03*
X0544400Y0057433D03*
X0554400Y0057433D03*
X0564400Y0057433D03*
X0574400Y0057433D03*
X0584400Y0057433D03*
X0594400Y0057433D03*
X0604400Y0057433D03*
X0614400Y0057433D03*
X0624400Y0057433D03*
X0634400Y0057433D03*
X0644400Y0057433D03*
X0654400Y0057433D03*
D11*
X0456821Y0317729D03*
D12*
X0446821Y0317729D03*
X0436821Y0317729D03*
X0426821Y0317729D03*
X0416821Y0317729D03*
X0416821Y0307729D03*
X0426821Y0307729D03*
X0426821Y0297729D03*
X0416821Y0297729D03*
X0416821Y0287729D03*
X0426821Y0287729D03*
X0426821Y0277729D03*
X0416821Y0277729D03*
X0416821Y0267729D03*
X0426821Y0267729D03*
X0436821Y0267729D03*
X0446821Y0267729D03*
X0456821Y0267729D03*
X0466821Y0267729D03*
X0476821Y0267729D03*
X0486821Y0267729D03*
X0486821Y0277729D03*
X0476821Y0277729D03*
X0476821Y0287729D03*
X0486821Y0287729D03*
X0486821Y0297729D03*
X0476821Y0297729D03*
X0476821Y0307729D03*
X0486821Y0307729D03*
X0486821Y0317729D03*
X0476821Y0317729D03*
X0466821Y0317729D03*
X0466821Y0327729D03*
X0476821Y0327729D03*
X0456821Y0327729D03*
X0446821Y0327729D03*
X0436821Y0327729D03*
X0426821Y0327729D03*
X0531743Y0331548D03*
X0531743Y0321548D03*
X0476821Y0257729D03*
X0466821Y0257729D03*
X0456821Y0257729D03*
X0446821Y0257729D03*
X0436821Y0257729D03*
X0426821Y0257729D03*
D13*
X0429144Y0219722D02*
X0429144Y0214948D01*
X0419144Y0214948D02*
X0419144Y0219722D01*
X0409144Y0219722D02*
X0409144Y0214948D01*
X0399144Y0214948D02*
X0399144Y0219722D01*
X0389144Y0219722D02*
X0389144Y0214948D01*
X0379144Y0214948D02*
X0379144Y0219722D01*
X0439144Y0219722D02*
X0439144Y0214948D01*
X0449144Y0214948D02*
X0449144Y0219722D01*
X0459144Y0219722D02*
X0459144Y0214948D01*
X0469144Y0214948D02*
X0469144Y0219722D01*
X0479144Y0219722D02*
X0479144Y0214948D01*
X0489144Y0214948D02*
X0489144Y0219722D01*
X0489144Y0159722D02*
X0489144Y0154948D01*
X0479144Y0154948D02*
X0479144Y0159722D01*
X0469144Y0159722D02*
X0469144Y0154948D01*
X0459144Y0154948D02*
X0459144Y0159722D01*
X0449144Y0159722D02*
X0449144Y0154948D01*
X0439144Y0154948D02*
X0439144Y0159722D01*
X0429144Y0159722D02*
X0429144Y0154948D01*
X0419144Y0154948D02*
X0419144Y0159722D01*
X0409144Y0159722D02*
X0409144Y0154948D01*
X0399144Y0154948D02*
X0399144Y0159722D01*
X0389144Y0159722D02*
X0389144Y0154948D01*
X0379144Y0154948D02*
X0379144Y0159722D01*
X0419302Y0127596D02*
X0419302Y0122822D01*
X0429302Y0122822D02*
X0429302Y0127596D01*
X0439302Y0127596D02*
X0439302Y0122822D01*
X0449302Y0122822D02*
X0449302Y0127596D01*
X0459302Y0127596D02*
X0459302Y0122822D01*
X0469302Y0122822D02*
X0469302Y0127596D01*
X0479302Y0127596D02*
X0479302Y0122822D01*
X0489302Y0122822D02*
X0489302Y0127596D01*
X0499302Y0127596D02*
X0499302Y0122822D01*
X0509302Y0122822D02*
X0509302Y0127596D01*
X0509302Y0097596D02*
X0509302Y0092822D01*
X0499302Y0092822D02*
X0499302Y0097596D01*
X0489302Y0097596D02*
X0489302Y0092822D01*
X0479302Y0092822D02*
X0479302Y0097596D01*
X0469302Y0097596D02*
X0469302Y0092822D01*
X0459302Y0092822D02*
X0459302Y0097596D01*
X0449302Y0097596D02*
X0449302Y0092822D01*
X0439302Y0092822D02*
X0439302Y0097596D01*
X0429302Y0097596D02*
X0429302Y0092822D01*
X0419302Y0092822D02*
X0419302Y0097596D01*
D14*
X0618916Y0112886D02*
X0624491Y0112886D01*
X0624491Y0122886D02*
X0618916Y0122886D01*
X0618916Y0132886D02*
X0624491Y0132886D01*
X0498987Y0230059D02*
X0498987Y0235634D01*
X0488987Y0235634D02*
X0488987Y0230059D01*
X0478987Y0230059D02*
X0478987Y0235634D01*
X0367758Y0282650D02*
X0362183Y0282650D01*
X0362183Y0292650D02*
X0367758Y0292650D01*
X0367758Y0302650D02*
X0362183Y0302650D01*
X0362183Y0312650D02*
X0367758Y0312650D01*
X0367758Y0322650D02*
X0362183Y0322650D01*
X0362183Y0332650D02*
X0367758Y0332650D01*
D15*
X0598858Y0122689D03*
D16*
X0608858Y0122689D03*
D17*
X0574420Y0294658D03*
X0684459Y0294658D03*
D18*
X0490463Y0325366D03*
X0483573Y0325366D03*
X0483573Y0331272D03*
X0490463Y0331272D03*
D19*
X0460443Y0306173D03*
X0460443Y0299284D03*
X0467333Y0299284D03*
X0467333Y0292394D03*
X0431900Y0249087D03*
X0425994Y0249087D03*
X0425994Y0242197D03*
X0431900Y0242197D03*
X0500798Y0169362D03*
X0500798Y0162473D03*
X0519498Y0107355D03*
X0519498Y0100465D03*
D20*
X0530325Y0095051D03*
X0533278Y0090130D03*
X0533278Y0079303D03*
X0554931Y0092099D03*
X0559853Y0092099D03*
X0613987Y0089146D03*
X0533278Y0125563D03*
X0499813Y0135406D03*
X0530325Y0157059D03*
X0624813Y0193477D03*
X0654341Y0193477D03*
X0663199Y0230878D03*
X0633672Y0237768D03*
X0633672Y0247610D03*
X0559853Y0227925D03*
X0554931Y0231862D03*
X0531309Y0240721D03*
X0509302Y0232847D03*
X0500798Y0240721D03*
X0496861Y0243673D03*
X0520483Y0261390D03*
X0545089Y0279107D03*
X0472254Y0262374D03*
X0441743Y0262374D03*
X0419105Y0262374D03*
X0441743Y0242689D03*
X0454538Y0224973D03*
X0428947Y0174776D03*
X0414183Y0174776D03*
X0373829Y0166902D03*
X0428947Y0132453D03*
X0440758Y0293870D03*
X0451585Y0301744D03*
X0447648Y0306666D03*
X0379735Y0297807D03*
D21*
X0309368Y0342977D02*
X0309368Y0073110D01*
X0405423Y0073110D01*
X0406330Y0072735D01*
X0406651Y0072414D01*
X0422235Y0072414D01*
X0422235Y0080001D01*
X0418208Y0084028D01*
X0416939Y0085296D01*
X0416939Y0089859D01*
X0416109Y0090689D01*
X0415536Y0092073D01*
X0415536Y0098345D01*
X0416109Y0099729D01*
X0417169Y0100788D01*
X0418553Y0101362D01*
X0420051Y0101362D01*
X0421434Y0100788D01*
X0422494Y0099729D01*
X0423067Y0098345D01*
X0423067Y0092073D01*
X0422494Y0090689D01*
X0421434Y0089629D01*
X0421270Y0089561D01*
X0421270Y0087090D01*
X0426565Y0081795D01*
X0426565Y0072414D01*
X0432235Y0072414D01*
X0432235Y0078859D01*
X0428050Y0083044D01*
X0428050Y0083044D01*
X0426782Y0084312D01*
X0426782Y0090016D01*
X0426109Y0090689D01*
X0425536Y0092073D01*
X0425536Y0098345D01*
X0426109Y0099729D01*
X0427169Y0100788D01*
X0428553Y0101362D01*
X0430051Y0101362D01*
X0431434Y0100788D01*
X0432494Y0099729D01*
X0433067Y0098345D01*
X0433067Y0092073D01*
X0432494Y0090689D01*
X0431434Y0089629D01*
X0431113Y0089496D01*
X0431113Y0086106D01*
X0436565Y0080653D01*
X0436565Y0072414D01*
X0442235Y0072414D01*
X0442235Y0079686D01*
X0438877Y0083044D01*
X0437609Y0084312D01*
X0437609Y0089447D01*
X0437169Y0089629D01*
X0436109Y0090689D01*
X0435536Y0092073D01*
X0435536Y0098345D01*
X0436109Y0099729D01*
X0437169Y0100788D01*
X0438553Y0101362D01*
X0440051Y0101362D01*
X0441434Y0100788D01*
X0442494Y0099729D01*
X0443067Y0098345D01*
X0443067Y0092073D01*
X0442494Y0090689D01*
X0441939Y0090134D01*
X0441939Y0086106D01*
X0446565Y0081480D01*
X0446565Y0072414D01*
X0452235Y0072414D01*
X0452235Y0079529D01*
X0448720Y0083044D01*
X0447451Y0084312D01*
X0447451Y0089512D01*
X0447169Y0089629D01*
X0446109Y0090689D01*
X0445536Y0092073D01*
X0445536Y0098345D01*
X0446109Y0099729D01*
X0447169Y0100788D01*
X0448553Y0101362D01*
X0450051Y0101362D01*
X0451434Y0100788D01*
X0452494Y0099729D01*
X0453067Y0098345D01*
X0453067Y0092073D01*
X0452494Y0090689D01*
X0451782Y0089977D01*
X0451782Y0086106D01*
X0456565Y0081322D01*
X0456565Y0072414D01*
X0462235Y0072414D01*
X0462235Y0079371D01*
X0458562Y0083044D01*
X0457294Y0084312D01*
X0457294Y0089578D01*
X0457169Y0089629D01*
X0456109Y0090689D01*
X0455536Y0092073D01*
X0455536Y0098345D01*
X0456109Y0099729D01*
X0457169Y0100788D01*
X0458553Y0101362D01*
X0460051Y0101362D01*
X0461434Y0100788D01*
X0462494Y0099729D01*
X0463067Y0098345D01*
X0463067Y0092073D01*
X0462494Y0090689D01*
X0461624Y0089819D01*
X0461624Y0086106D01*
X0466565Y0081165D01*
X0466565Y0072414D01*
X0472235Y0072414D01*
X0472235Y0079214D01*
X0468405Y0083044D01*
X0467136Y0084312D01*
X0467136Y0089662D01*
X0466109Y0090689D01*
X0465536Y0092073D01*
X0465536Y0098345D01*
X0466109Y0099729D01*
X0467169Y0100788D01*
X0468553Y0101362D01*
X0470051Y0101362D01*
X0471434Y0100788D01*
X0472494Y0099729D01*
X0473067Y0098345D01*
X0473067Y0092073D01*
X0472494Y0090689D01*
X0471467Y0089662D01*
X0471467Y0086106D01*
X0476565Y0081007D01*
X0476565Y0072414D01*
X0482235Y0072414D01*
X0482235Y0078072D01*
X0478247Y0082059D01*
X0476979Y0083328D01*
X0476979Y0089819D01*
X0476109Y0090689D01*
X0475536Y0092073D01*
X0475536Y0098345D01*
X0476109Y0099729D01*
X0477169Y0100788D01*
X0478553Y0101362D01*
X0480051Y0101362D01*
X0481434Y0100788D01*
X0482494Y0099729D01*
X0483067Y0098345D01*
X0483067Y0092073D01*
X0482494Y0090689D01*
X0481434Y0089629D01*
X0481309Y0089578D01*
X0481309Y0085122D01*
X0486565Y0079866D01*
X0486565Y0072414D01*
X0492235Y0072414D01*
X0492235Y0077914D01*
X0488090Y0082059D01*
X0486821Y0083328D01*
X0486821Y0089977D01*
X0486109Y0090689D01*
X0485536Y0092073D01*
X0485536Y0098345D01*
X0486109Y0099729D01*
X0487169Y0100788D01*
X0488553Y0101362D01*
X0490051Y0101362D01*
X0491434Y0100788D01*
X0492494Y0099729D01*
X0493067Y0098345D01*
X0493067Y0092073D01*
X0492494Y0090689D01*
X0491434Y0089629D01*
X0491152Y0089512D01*
X0491152Y0085122D01*
X0496565Y0079708D01*
X0496565Y0072414D01*
X0502235Y0072414D01*
X0502235Y0078121D01*
X0502201Y0078157D01*
X0502235Y0079011D01*
X0502235Y0079866D01*
X0502269Y0079900D01*
X0502271Y0079949D01*
X0502899Y0080530D01*
X0503503Y0081134D01*
X0503552Y0081134D01*
X0515020Y0091743D01*
X0515360Y0092564D01*
X0515840Y0093044D01*
X0513067Y0093044D01*
X0513067Y0092073D01*
X0512494Y0090689D01*
X0511434Y0089629D01*
X0510051Y0089056D01*
X0508553Y0089056D01*
X0507169Y0089629D01*
X0506109Y0090689D01*
X0505536Y0092073D01*
X0505536Y0098345D01*
X0506109Y0099729D01*
X0507169Y0100788D01*
X0508553Y0101362D01*
X0510051Y0101362D01*
X0511434Y0100788D01*
X0512494Y0099729D01*
X0513067Y0098345D01*
X0513067Y0097374D01*
X0516447Y0097374D01*
X0515994Y0097827D01*
X0515994Y0103103D01*
X0516731Y0103839D01*
X0516405Y0104027D01*
X0516112Y0104321D01*
X0515905Y0104680D01*
X0515798Y0105080D01*
X0515798Y0107109D01*
X0519252Y0107109D01*
X0519252Y0107601D01*
X0519252Y0110996D01*
X0517165Y0110996D01*
X0516765Y0110889D01*
X0516405Y0110682D01*
X0516112Y0110388D01*
X0515905Y0110029D01*
X0515798Y0109629D01*
X0515798Y0107601D01*
X0519252Y0107601D01*
X0519744Y0107601D01*
X0519744Y0110996D01*
X0521832Y0110996D01*
X0522232Y0110889D01*
X0522591Y0110682D01*
X0522885Y0110388D01*
X0523092Y0110029D01*
X0523199Y0109629D01*
X0523199Y0107601D01*
X0519745Y0107601D01*
X0519745Y0107109D01*
X0523199Y0107109D01*
X0523199Y0105080D01*
X0523092Y0104680D01*
X0522885Y0104321D01*
X0522591Y0104027D01*
X0522265Y0103839D01*
X0523002Y0103103D01*
X0523002Y0097827D01*
X0522549Y0097374D01*
X0528989Y0097374D01*
X0529797Y0097709D01*
X0530854Y0097709D01*
X0531831Y0097304D01*
X0532578Y0096557D01*
X0532983Y0095580D01*
X0532983Y0094523D01*
X0532578Y0093546D01*
X0531831Y0092799D01*
X0530854Y0092394D01*
X0529797Y0092394D01*
X0528820Y0092799D01*
X0528575Y0093044D01*
X0519220Y0093044D01*
X0519699Y0092564D01*
X0520089Y0091623D01*
X0520089Y0090605D01*
X0519699Y0089665D01*
X0518980Y0088945D01*
X0518039Y0088555D01*
X0517952Y0088555D01*
X0506565Y0078022D01*
X0506565Y0072414D01*
X0512235Y0072414D01*
X0512235Y0078055D01*
X0517924Y0083744D01*
X0517924Y0083749D01*
X0518313Y0084690D01*
X0519033Y0085410D01*
X0519974Y0085799D01*
X0520992Y0085799D01*
X0521932Y0085410D01*
X0522652Y0084690D01*
X0523042Y0083749D01*
X0523042Y0082731D01*
X0522652Y0081791D01*
X0521932Y0081071D01*
X0520992Y0080681D01*
X0520986Y0080681D01*
X0516565Y0076261D01*
X0516565Y0072414D01*
X0552766Y0072414D01*
X0552766Y0090506D01*
X0552679Y0090593D01*
X0552274Y0091570D01*
X0552274Y0092627D01*
X0552679Y0093604D01*
X0553426Y0094352D01*
X0554403Y0094756D01*
X0555460Y0094756D01*
X0556437Y0094352D01*
X0557184Y0093604D01*
X0557392Y0093102D01*
X0557600Y0093604D01*
X0558347Y0094352D01*
X0559324Y0094756D01*
X0560381Y0094756D01*
X0561358Y0094352D01*
X0562106Y0093604D01*
X0562510Y0092627D01*
X0562510Y0092503D01*
X0570592Y0084422D01*
X0597167Y0084422D01*
X0598435Y0083153D01*
X0606565Y0075023D01*
X0606565Y0072414D01*
X0611821Y0072414D01*
X0611821Y0087553D01*
X0611734Y0087641D01*
X0611329Y0088617D01*
X0611329Y0089675D01*
X0611734Y0090651D01*
X0612481Y0091399D01*
X0613458Y0091803D01*
X0614515Y0091803D01*
X0615492Y0091399D01*
X0616240Y0090651D01*
X0616644Y0089675D01*
X0616644Y0088617D01*
X0616240Y0087641D01*
X0616152Y0087553D01*
X0616152Y0072414D01*
X0632235Y0072414D01*
X0632235Y0073540D01*
X0632097Y0073873D01*
X0632097Y0074891D01*
X0632486Y0075832D01*
X0633206Y0076552D01*
X0634147Y0076941D01*
X0635165Y0076941D01*
X0636105Y0076552D01*
X0636825Y0075832D01*
X0637215Y0074891D01*
X0637215Y0073873D01*
X0636825Y0072933D01*
X0636565Y0072673D01*
X0636565Y0072414D01*
X0642333Y0072414D01*
X0642333Y0072928D01*
X0642329Y0072933D01*
X0641939Y0073873D01*
X0641939Y0074891D01*
X0642329Y0075832D01*
X0643049Y0076552D01*
X0643989Y0076941D01*
X0645007Y0076941D01*
X0645948Y0076552D01*
X0646668Y0075832D01*
X0647057Y0074891D01*
X0647057Y0073873D01*
X0646668Y0072933D01*
X0646664Y0072928D01*
X0646664Y0072414D01*
X0662267Y0072414D01*
X0662588Y0072735D01*
X0663496Y0073110D01*
X0698920Y0073110D01*
X0698920Y0342977D01*
X0309368Y0342977D01*
X0309368Y0342010D02*
X0698920Y0342010D01*
X0698920Y0340436D02*
X0309368Y0340436D01*
X0309368Y0338863D02*
X0698920Y0338863D01*
X0698920Y0337290D02*
X0309368Y0337290D01*
X0309368Y0335716D02*
X0359359Y0335716D01*
X0359824Y0336181D02*
X0358652Y0335009D01*
X0358018Y0333478D01*
X0358018Y0331821D01*
X0358652Y0330290D01*
X0359824Y0329119D01*
X0361355Y0328485D01*
X0368587Y0328485D01*
X0370118Y0329119D01*
X0371289Y0330290D01*
X0371924Y0331821D01*
X0371924Y0333478D01*
X0371289Y0335009D01*
X0370118Y0336181D01*
X0368587Y0336815D01*
X0361355Y0336815D01*
X0359824Y0336181D01*
X0358293Y0334143D02*
X0309368Y0334143D01*
X0309368Y0332570D02*
X0358018Y0332570D01*
X0358360Y0330997D02*
X0309368Y0330997D01*
X0309368Y0329423D02*
X0359519Y0329423D01*
X0360509Y0326692D02*
X0359897Y0326381D01*
X0359342Y0325977D01*
X0358856Y0325492D01*
X0358453Y0324936D01*
X0358141Y0324324D01*
X0357929Y0323671D01*
X0357821Y0322993D01*
X0357821Y0322862D01*
X0364758Y0322862D01*
X0364758Y0322437D01*
X0365183Y0322437D01*
X0365183Y0318288D01*
X0368102Y0318288D01*
X0368780Y0318395D01*
X0369433Y0318607D01*
X0370045Y0318919D01*
X0370600Y0319323D01*
X0371086Y0319808D01*
X0371489Y0320364D01*
X0371801Y0320975D01*
X0372013Y0321628D01*
X0372120Y0322307D01*
X0372120Y0322437D01*
X0365184Y0322437D01*
X0365184Y0322862D01*
X0372120Y0322862D01*
X0372120Y0322993D01*
X0372013Y0323671D01*
X0371801Y0324324D01*
X0371489Y0324936D01*
X0371086Y0325492D01*
X0370600Y0325977D01*
X0370045Y0326381D01*
X0369433Y0326692D01*
X0368780Y0326905D01*
X0368102Y0327012D01*
X0365183Y0327012D01*
X0365183Y0322863D01*
X0364758Y0322863D01*
X0364758Y0327012D01*
X0361840Y0327012D01*
X0361162Y0326905D01*
X0360509Y0326692D01*
X0359754Y0326277D02*
X0309368Y0326277D01*
X0309368Y0327850D02*
X0423056Y0327850D01*
X0423056Y0329288D02*
X0423056Y0326169D01*
X0425262Y0323963D01*
X0428381Y0323963D01*
X0430587Y0326169D01*
X0430587Y0329288D01*
X0428381Y0331494D01*
X0425262Y0331494D01*
X0423056Y0329288D01*
X0423191Y0329423D02*
X0370422Y0329423D01*
X0371582Y0330997D02*
X0424764Y0330997D01*
X0428878Y0330997D02*
X0434764Y0330997D01*
X0435262Y0331494D02*
X0433056Y0329288D01*
X0433056Y0326169D01*
X0435262Y0323963D01*
X0438381Y0323963D01*
X0440587Y0326169D01*
X0440587Y0329288D01*
X0438381Y0331494D01*
X0435262Y0331494D01*
X0433191Y0329423D02*
X0430452Y0329423D01*
X0430587Y0327850D02*
X0433056Y0327850D01*
X0433056Y0326277D02*
X0430587Y0326277D01*
X0429121Y0324703D02*
X0434522Y0324703D01*
X0435262Y0321494D02*
X0433056Y0319288D01*
X0433056Y0318414D01*
X0431813Y0319658D01*
X0430217Y0319658D01*
X0428381Y0321494D01*
X0425262Y0321494D01*
X0423056Y0319288D01*
X0423056Y0316169D01*
X0425262Y0313963D01*
X0428381Y0313963D01*
X0429745Y0315327D01*
X0430019Y0315327D01*
X0440452Y0304894D01*
X0429590Y0304894D01*
X0430783Y0306087D01*
X0430783Y0307716D01*
X0426834Y0307716D01*
X0426834Y0307741D01*
X0430783Y0307741D01*
X0430783Y0309370D01*
X0428462Y0311691D01*
X0426834Y0311691D01*
X0426834Y0307741D01*
X0426809Y0307741D01*
X0426809Y0311691D01*
X0425180Y0311691D01*
X0422859Y0309370D01*
X0422859Y0307741D01*
X0426809Y0307741D01*
X0426809Y0307716D01*
X0422859Y0307716D01*
X0422859Y0306087D01*
X0424053Y0304894D01*
X0419312Y0304894D01*
X0420587Y0306169D01*
X0420587Y0309288D01*
X0418381Y0311494D01*
X0415262Y0311494D01*
X0413056Y0309288D01*
X0413056Y0306169D01*
X0414331Y0304894D01*
X0371337Y0304894D01*
X0371289Y0305009D01*
X0370118Y0306181D01*
X0368587Y0306815D01*
X0361355Y0306815D01*
X0359824Y0306181D01*
X0358652Y0305009D01*
X0358018Y0303478D01*
X0358018Y0301821D01*
X0358652Y0300290D01*
X0359824Y0299119D01*
X0361355Y0298485D01*
X0368587Y0298485D01*
X0370118Y0299119D01*
X0371289Y0300290D01*
X0371402Y0300563D01*
X0414331Y0300563D01*
X0413740Y0299973D01*
X0381328Y0299973D01*
X0381240Y0300060D01*
X0380263Y0300465D01*
X0379206Y0300465D01*
X0378229Y0300060D01*
X0377482Y0299313D01*
X0377077Y0298336D01*
X0377077Y0297279D01*
X0377482Y0296302D01*
X0378229Y0295554D01*
X0379206Y0295150D01*
X0380263Y0295150D01*
X0381240Y0295554D01*
X0381328Y0295642D01*
X0413583Y0295642D01*
X0415262Y0293963D01*
X0418381Y0293963D01*
X0420587Y0296169D01*
X0420587Y0299288D01*
X0419312Y0300563D01*
X0424331Y0300563D01*
X0423056Y0299288D01*
X0423056Y0296169D01*
X0425262Y0293963D01*
X0428381Y0293963D01*
X0430060Y0295642D01*
X0441830Y0295642D01*
X0465978Y0271494D01*
X0465262Y0271494D01*
X0463056Y0269288D01*
X0463056Y0266169D01*
X0465262Y0263963D01*
X0468381Y0263963D01*
X0470089Y0265671D01*
X0470089Y0263967D01*
X0470001Y0263880D01*
X0469597Y0262903D01*
X0469597Y0261846D01*
X0470001Y0260869D01*
X0470749Y0260121D01*
X0471726Y0259717D01*
X0472783Y0259717D01*
X0473760Y0260121D01*
X0474507Y0260869D01*
X0474912Y0261846D01*
X0474912Y0262903D01*
X0474507Y0263880D01*
X0474420Y0263967D01*
X0474420Y0264805D01*
X0475262Y0263963D01*
X0478381Y0263963D01*
X0480587Y0266169D01*
X0480587Y0269288D01*
X0479823Y0270051D01*
X0483819Y0270051D01*
X0483056Y0269288D01*
X0483056Y0266169D01*
X0485262Y0263963D01*
X0488381Y0263963D01*
X0490587Y0266169D01*
X0490587Y0269288D01*
X0489823Y0270051D01*
X0508759Y0270051D01*
X0517825Y0260985D01*
X0517825Y0260861D01*
X0518230Y0259885D01*
X0518977Y0259137D01*
X0519526Y0258910D01*
X0480587Y0258910D01*
X0480587Y0259288D01*
X0478381Y0261494D01*
X0475262Y0261494D01*
X0473056Y0259288D01*
X0473056Y0256169D01*
X0475262Y0253963D01*
X0478381Y0253963D01*
X0478997Y0254579D01*
X0524231Y0254579D01*
X0530019Y0248792D01*
X0519974Y0248792D01*
X0520089Y0249070D01*
X0520089Y0250088D01*
X0519699Y0251029D01*
X0518980Y0251748D01*
X0518039Y0252138D01*
X0517021Y0252138D01*
X0516080Y0251748D01*
X0516076Y0251744D01*
X0460356Y0251744D01*
X0458987Y0253114D01*
X0458987Y0254569D01*
X0460587Y0256169D01*
X0460587Y0259288D01*
X0458381Y0261494D01*
X0455262Y0261494D01*
X0453056Y0259288D01*
X0453056Y0256169D01*
X0454656Y0254569D01*
X0454656Y0251320D01*
X0457184Y0248792D01*
X0444608Y0248792D01*
X0438987Y0254413D01*
X0438987Y0254569D01*
X0440587Y0256169D01*
X0440587Y0259288D01*
X0438381Y0261494D01*
X0435262Y0261494D01*
X0434065Y0260298D01*
X0434065Y0263446D01*
X0434922Y0264303D01*
X0435262Y0263963D01*
X0438381Y0263963D01*
X0440587Y0266169D01*
X0440587Y0269288D01*
X0438381Y0271494D01*
X0435262Y0271494D01*
X0433056Y0269288D01*
X0433056Y0268561D01*
X0431003Y0266508D01*
X0429735Y0265240D01*
X0429735Y0260140D01*
X0428381Y0261494D01*
X0425262Y0261494D01*
X0423056Y0259288D01*
X0423056Y0256169D01*
X0425262Y0253963D01*
X0428381Y0253963D01*
X0429735Y0255317D01*
X0429735Y0252532D01*
X0429203Y0252532D01*
X0428947Y0252276D01*
X0428691Y0252532D01*
X0423298Y0252532D01*
X0422491Y0251725D01*
X0422491Y0246449D01*
X0423227Y0245712D01*
X0422902Y0245524D01*
X0422608Y0245231D01*
X0422401Y0244872D01*
X0422294Y0244471D01*
X0422294Y0242443D01*
X0425748Y0242443D01*
X0425748Y0241951D01*
X0422294Y0241951D01*
X0422294Y0239923D01*
X0422401Y0239522D01*
X0422608Y0239163D01*
X0422902Y0238870D01*
X0423261Y0238663D01*
X0423661Y0238555D01*
X0425748Y0238555D01*
X0425748Y0241951D01*
X0426241Y0241951D01*
X0426241Y0242443D01*
X0431654Y0242443D01*
X0431654Y0241951D01*
X0432146Y0241951D01*
X0432146Y0238555D01*
X0434233Y0238555D01*
X0434634Y0238663D01*
X0434993Y0238870D01*
X0435286Y0239163D01*
X0435493Y0239522D01*
X0435601Y0239923D01*
X0435601Y0241951D01*
X0432146Y0241951D01*
X0432146Y0242443D01*
X0435601Y0242443D01*
X0435601Y0244471D01*
X0435493Y0244872D01*
X0435286Y0245231D01*
X0434993Y0245524D01*
X0434667Y0245712D01*
X0435404Y0246449D01*
X0435404Y0251725D01*
X0434597Y0252532D01*
X0434065Y0252532D01*
X0434065Y0255160D01*
X0434656Y0254569D01*
X0434656Y0252619D01*
X0441546Y0245729D01*
X0442814Y0244461D01*
X0494310Y0244461D01*
X0494203Y0244202D01*
X0494203Y0243145D01*
X0494608Y0242168D01*
X0495355Y0241421D01*
X0496332Y0241016D01*
X0497389Y0241016D01*
X0498366Y0241421D01*
X0498454Y0241508D01*
X0527460Y0241508D01*
X0528652Y0240316D01*
X0528652Y0240192D01*
X0529057Y0239215D01*
X0529804Y0238468D01*
X0530781Y0238063D01*
X0531838Y0238063D01*
X0532815Y0238468D01*
X0533562Y0239215D01*
X0533888Y0240001D01*
X0548129Y0225760D01*
X0558260Y0225760D01*
X0558347Y0225673D01*
X0559324Y0225268D01*
X0560381Y0225268D01*
X0561358Y0225673D01*
X0562106Y0226420D01*
X0562510Y0227397D01*
X0562510Y0228454D01*
X0562106Y0229431D01*
X0561358Y0230178D01*
X0560381Y0230583D01*
X0559324Y0230583D01*
X0558347Y0230178D01*
X0558260Y0230091D01*
X0556918Y0230091D01*
X0557184Y0230357D01*
X0557589Y0231334D01*
X0557589Y0232391D01*
X0557184Y0233368D01*
X0556957Y0233595D01*
X0556957Y0237601D01*
X0560640Y0233918D01*
X0561909Y0232650D01*
X0658365Y0232650D01*
X0660542Y0230473D01*
X0660542Y0230350D01*
X0660946Y0229373D01*
X0661694Y0228625D01*
X0662671Y0228221D01*
X0663728Y0228221D01*
X0664705Y0228625D01*
X0665452Y0229373D01*
X0665857Y0230350D01*
X0665857Y0231407D01*
X0665452Y0232384D01*
X0664705Y0233131D01*
X0663728Y0233536D01*
X0663604Y0233536D01*
X0660159Y0236981D01*
X0636222Y0236981D01*
X0636329Y0237239D01*
X0636329Y0238297D01*
X0635925Y0239273D01*
X0635837Y0239361D01*
X0635837Y0246018D01*
X0635925Y0246105D01*
X0636329Y0247082D01*
X0636329Y0248139D01*
X0635925Y0249116D01*
X0635177Y0249863D01*
X0634200Y0250268D01*
X0633143Y0250268D01*
X0632166Y0249863D01*
X0631419Y0249116D01*
X0631014Y0248139D01*
X0631014Y0247082D01*
X0631419Y0246105D01*
X0631506Y0246018D01*
X0631506Y0239361D01*
X0631419Y0239273D01*
X0631014Y0238297D01*
X0631014Y0237239D01*
X0631121Y0236981D01*
X0563702Y0236981D01*
X0560107Y0240576D01*
X0560107Y0253317D01*
X0560221Y0253432D01*
X0560221Y0255226D01*
X0560107Y0255340D01*
X0560099Y0255347D01*
X0560099Y0255358D01*
X0559466Y0255980D01*
X0558838Y0256609D01*
X0558828Y0256609D01*
X0538156Y0276941D01*
X0543496Y0276941D01*
X0543584Y0276854D01*
X0544560Y0276449D01*
X0545618Y0276449D01*
X0546594Y0276854D01*
X0547342Y0277601D01*
X0547746Y0278578D01*
X0547746Y0279635D01*
X0547342Y0280612D01*
X0546594Y0281359D01*
X0545618Y0281764D01*
X0544560Y0281764D01*
X0543584Y0281359D01*
X0543496Y0281272D01*
X0538112Y0281272D01*
X0500994Y0318389D01*
X0499726Y0319658D01*
X0490217Y0319658D01*
X0488381Y0321494D01*
X0485262Y0321494D01*
X0483056Y0319288D01*
X0483056Y0316169D01*
X0484488Y0314736D01*
X0479154Y0314736D01*
X0480587Y0316169D01*
X0480587Y0319288D01*
X0480572Y0319303D01*
X0483132Y0321862D01*
X0486211Y0321862D01*
X0486948Y0322599D01*
X0487136Y0322273D01*
X0487429Y0321980D01*
X0487788Y0321773D01*
X0488189Y0321666D01*
X0490217Y0321666D01*
X0490217Y0325120D01*
X0490709Y0325120D01*
X0490709Y0321666D01*
X0492737Y0321666D01*
X0493138Y0321773D01*
X0493497Y0321980D01*
X0493790Y0322273D01*
X0493997Y0322633D01*
X0494105Y0323033D01*
X0494105Y0325120D01*
X0490709Y0325120D01*
X0490709Y0325612D01*
X0494105Y0325612D01*
X0494105Y0327700D01*
X0493997Y0328100D01*
X0493871Y0328319D01*
X0493997Y0328538D01*
X0494105Y0328939D01*
X0494105Y0331026D01*
X0490709Y0331026D01*
X0490709Y0331518D01*
X0490217Y0331518D01*
X0490217Y0334973D01*
X0488189Y0334973D01*
X0487788Y0334865D01*
X0487429Y0334658D01*
X0487136Y0334365D01*
X0486948Y0334039D01*
X0486211Y0334776D01*
X0480936Y0334776D01*
X0480128Y0333969D01*
X0480128Y0329746D01*
X0478381Y0331494D01*
X0475262Y0331494D01*
X0473056Y0329288D01*
X0473056Y0327026D01*
X0471052Y0325021D01*
X0469783Y0323753D01*
X0469783Y0320091D01*
X0468381Y0321494D01*
X0465262Y0321494D01*
X0463056Y0319288D01*
X0463056Y0316169D01*
X0464656Y0314569D01*
X0464656Y0310218D01*
X0474310Y0300563D01*
X0474331Y0300563D01*
X0473056Y0299288D01*
X0473056Y0296169D01*
X0475262Y0293963D01*
X0478381Y0293963D01*
X0480587Y0296169D01*
X0480587Y0299288D01*
X0479312Y0300563D01*
X0484331Y0300563D01*
X0483056Y0299288D01*
X0483056Y0296169D01*
X0485262Y0293963D01*
X0488381Y0293963D01*
X0489981Y0295563D01*
X0505885Y0295563D01*
X0549813Y0251635D01*
X0549813Y0245521D01*
X0549491Y0245843D01*
X0548580Y0246220D01*
X0507136Y0288611D01*
X0507136Y0288626D01*
X0506511Y0289251D01*
X0505892Y0289884D01*
X0505878Y0289884D01*
X0505868Y0289894D01*
X0504983Y0289894D01*
X0504098Y0289904D01*
X0504088Y0289894D01*
X0489981Y0289894D01*
X0488381Y0291494D01*
X0485262Y0291494D01*
X0483056Y0289288D01*
X0483056Y0286169D01*
X0484016Y0285209D01*
X0482994Y0285209D01*
X0480587Y0287616D01*
X0480587Y0289288D01*
X0478381Y0291494D01*
X0475262Y0291494D01*
X0473056Y0289288D01*
X0473056Y0286169D01*
X0475262Y0283963D01*
X0478115Y0283963D01*
X0479931Y0282147D01*
X0481200Y0280878D01*
X0484367Y0280878D01*
X0482859Y0279370D01*
X0482859Y0277741D01*
X0486809Y0277741D01*
X0486809Y0277716D01*
X0482859Y0277716D01*
X0482859Y0276087D01*
X0484564Y0274382D01*
X0478800Y0274382D01*
X0480587Y0276169D01*
X0480587Y0279288D01*
X0478381Y0281494D01*
X0475262Y0281494D01*
X0475080Y0281312D01*
X0467443Y0288949D01*
X0470030Y0288949D01*
X0470837Y0289756D01*
X0470837Y0295032D01*
X0470100Y0295769D01*
X0470426Y0295957D01*
X0470719Y0296250D01*
X0470927Y0296609D01*
X0471034Y0297009D01*
X0471034Y0299038D01*
X0467579Y0299038D01*
X0467579Y0299530D01*
X0467087Y0299530D01*
X0467087Y0302925D01*
X0465000Y0302925D01*
X0464599Y0302818D01*
X0464240Y0302611D01*
X0463947Y0302318D01*
X0463802Y0302067D01*
X0463210Y0302658D01*
X0463536Y0302846D01*
X0463829Y0303140D01*
X0464037Y0303499D01*
X0464144Y0303899D01*
X0464144Y0305927D01*
X0460689Y0305927D01*
X0460689Y0306420D01*
X0460197Y0306420D01*
X0460197Y0309815D01*
X0458110Y0309815D01*
X0457709Y0309708D01*
X0457350Y0309501D01*
X0457057Y0309207D01*
X0456850Y0308848D01*
X0456743Y0308448D01*
X0456743Y0306420D01*
X0460197Y0306420D01*
X0460197Y0305927D01*
X0456743Y0305927D01*
X0456743Y0303899D01*
X0456850Y0303499D01*
X0457057Y0303140D01*
X0457350Y0302846D01*
X0457676Y0302658D01*
X0456939Y0301921D01*
X0456939Y0299452D01*
X0454243Y0302149D01*
X0454243Y0302273D01*
X0453838Y0303250D01*
X0453090Y0303997D01*
X0452114Y0304402D01*
X0451056Y0304402D01*
X0450080Y0303997D01*
X0449332Y0303250D01*
X0449007Y0302464D01*
X0437507Y0313963D01*
X0438381Y0313963D01*
X0440587Y0316169D01*
X0440587Y0319288D01*
X0438381Y0321494D01*
X0435262Y0321494D01*
X0433751Y0319983D02*
X0429892Y0319983D01*
X0430916Y0317492D02*
X0476191Y0272217D01*
X0509656Y0272217D01*
X0520483Y0261390D01*
X0518100Y0260197D02*
X0479677Y0260197D01*
X0476821Y0257729D02*
X0477806Y0256744D01*
X0525128Y0256744D01*
X0547057Y0234815D01*
X0543585Y0230304D02*
X0510108Y0230304D01*
X0509830Y0230189D02*
X0510807Y0230594D01*
X0511554Y0231341D01*
X0511959Y0232318D01*
X0511959Y0233375D01*
X0511554Y0234352D01*
X0510807Y0235100D01*
X0509830Y0235504D01*
X0508773Y0235504D01*
X0507796Y0235100D01*
X0507709Y0235012D01*
X0503152Y0235012D01*
X0503152Y0236463D01*
X0502518Y0237994D01*
X0501346Y0239165D01*
X0499815Y0239799D01*
X0498158Y0239799D01*
X0496627Y0239165D01*
X0495455Y0237994D01*
X0494821Y0236463D01*
X0494821Y0229231D01*
X0495455Y0227700D01*
X0496627Y0226528D01*
X0498158Y0225894D01*
X0499815Y0225894D01*
X0501346Y0226528D01*
X0502518Y0227700D01*
X0503152Y0229231D01*
X0503152Y0230681D01*
X0507709Y0230681D01*
X0507796Y0230594D01*
X0508773Y0230189D01*
X0509830Y0230189D01*
X0508495Y0230304D02*
X0503152Y0230304D01*
X0502945Y0228731D02*
X0545158Y0228731D01*
X0546731Y0227158D02*
X0501976Y0227158D01*
X0495997Y0227158D02*
X0491976Y0227158D01*
X0492518Y0227700D02*
X0493152Y0229231D01*
X0493152Y0236463D01*
X0492518Y0237994D01*
X0491346Y0239165D01*
X0489815Y0239799D01*
X0488158Y0239799D01*
X0486627Y0239165D01*
X0485455Y0237994D01*
X0484821Y0236463D01*
X0484821Y0229231D01*
X0485455Y0227700D01*
X0486017Y0227138D01*
X0481956Y0227138D01*
X0482518Y0227700D01*
X0483152Y0229231D01*
X0483152Y0236463D01*
X0482518Y0237994D01*
X0481346Y0239165D01*
X0479815Y0239799D01*
X0478158Y0239799D01*
X0476627Y0239165D01*
X0475455Y0237994D01*
X0474821Y0236463D01*
X0474821Y0229231D01*
X0475455Y0227700D01*
X0476017Y0227138D01*
X0456131Y0227138D01*
X0456043Y0227226D01*
X0455066Y0227630D01*
X0454009Y0227630D01*
X0453032Y0227226D01*
X0452285Y0226478D01*
X0451880Y0225501D01*
X0451880Y0224444D01*
X0452285Y0223467D01*
X0453032Y0222720D01*
X0454009Y0222315D01*
X0455066Y0222315D01*
X0456043Y0222720D01*
X0456131Y0222807D01*
X0456904Y0222807D01*
X0455952Y0221855D01*
X0455379Y0220471D01*
X0455379Y0214199D01*
X0455952Y0212815D01*
X0457011Y0211755D01*
X0458395Y0211182D01*
X0459893Y0211182D01*
X0461277Y0211755D01*
X0462336Y0212815D01*
X0462909Y0214199D01*
X0462909Y0220471D01*
X0462336Y0221855D01*
X0461384Y0222807D01*
X0466904Y0222807D01*
X0465952Y0221855D01*
X0465379Y0220471D01*
X0465379Y0214199D01*
X0465952Y0212815D01*
X0467011Y0211755D01*
X0468395Y0211182D01*
X0469893Y0211182D01*
X0471277Y0211755D01*
X0472336Y0212815D01*
X0472909Y0214199D01*
X0472909Y0220471D01*
X0472336Y0221855D01*
X0471384Y0222807D01*
X0476904Y0222807D01*
X0475952Y0221855D01*
X0475379Y0220471D01*
X0475379Y0214199D01*
X0475952Y0212815D01*
X0477011Y0211755D01*
X0478395Y0211182D01*
X0479893Y0211182D01*
X0481277Y0211755D01*
X0482336Y0212815D01*
X0482909Y0214199D01*
X0482909Y0220471D01*
X0482336Y0221855D01*
X0481384Y0222807D01*
X0486904Y0222807D01*
X0485952Y0221855D01*
X0485379Y0220471D01*
X0485379Y0214199D01*
X0485952Y0212815D01*
X0487011Y0211755D01*
X0488395Y0211182D01*
X0489893Y0211182D01*
X0491277Y0211755D01*
X0492336Y0212815D01*
X0492909Y0214199D01*
X0492909Y0220471D01*
X0492336Y0221855D01*
X0491277Y0222914D01*
X0489893Y0223488D01*
X0488595Y0223488D01*
X0489183Y0224076D01*
X0491152Y0226044D01*
X0491152Y0226448D01*
X0491346Y0226528D01*
X0492518Y0227700D01*
X0492945Y0228731D02*
X0495028Y0228731D01*
X0494821Y0230304D02*
X0493152Y0230304D01*
X0493152Y0231878D02*
X0494821Y0231878D01*
X0494821Y0233451D02*
X0493152Y0233451D01*
X0493152Y0235024D02*
X0494821Y0235024D01*
X0494877Y0236598D02*
X0493096Y0236598D01*
X0492340Y0238171D02*
X0495633Y0238171D01*
X0498025Y0239744D02*
X0489948Y0239744D01*
X0488025Y0239744D02*
X0479948Y0239744D01*
X0478025Y0239744D02*
X0435553Y0239744D01*
X0435601Y0241318D02*
X0495604Y0241318D01*
X0494308Y0242891D02*
X0435601Y0242891D01*
X0435601Y0244464D02*
X0442811Y0244464D01*
X0441237Y0246038D02*
X0434992Y0246038D01*
X0435404Y0247611D02*
X0439664Y0247611D01*
X0438091Y0249184D02*
X0435404Y0249184D01*
X0435404Y0250757D02*
X0436518Y0250757D01*
X0434944Y0252331D02*
X0434798Y0252331D01*
X0434656Y0253904D02*
X0434065Y0253904D01*
X0436821Y0253516D02*
X0443711Y0246626D01*
X0530325Y0246626D01*
X0549026Y0227925D01*
X0559853Y0227925D01*
X0561054Y0230304D02*
X0660560Y0230304D01*
X0661588Y0228731D02*
X0562395Y0228731D01*
X0562411Y0227158D02*
X0698920Y0227158D01*
X0698920Y0228731D02*
X0664810Y0228731D01*
X0665838Y0230304D02*
X0698920Y0230304D01*
X0698920Y0231878D02*
X0665662Y0231878D01*
X0663932Y0233451D02*
X0698920Y0233451D01*
X0698920Y0235024D02*
X0662115Y0235024D01*
X0660542Y0236598D02*
X0698920Y0236598D01*
X0698920Y0238171D02*
X0636329Y0238171D01*
X0635837Y0239744D02*
X0698920Y0239744D01*
X0698920Y0241318D02*
X0635837Y0241318D01*
X0635837Y0242891D02*
X0698920Y0242891D01*
X0698920Y0244464D02*
X0635837Y0244464D01*
X0635857Y0246038D02*
X0698920Y0246038D01*
X0698920Y0247611D02*
X0636329Y0247611D01*
X0635856Y0249184D02*
X0698920Y0249184D01*
X0698920Y0250757D02*
X0560107Y0250757D01*
X0560107Y0249184D02*
X0631487Y0249184D01*
X0631014Y0247611D02*
X0560107Y0247611D01*
X0560107Y0246038D02*
X0631486Y0246038D01*
X0631506Y0244464D02*
X0560107Y0244464D01*
X0560107Y0242891D02*
X0631506Y0242891D01*
X0631506Y0241318D02*
X0560107Y0241318D01*
X0560939Y0239744D02*
X0631506Y0239744D01*
X0631014Y0238171D02*
X0562512Y0238171D01*
X0562806Y0234815D02*
X0659262Y0234815D01*
X0663199Y0230878D01*
X0659137Y0231878D02*
X0557589Y0231878D01*
X0557132Y0230304D02*
X0558652Y0230304D01*
X0557101Y0233451D02*
X0561107Y0233451D01*
X0562806Y0234815D02*
X0557941Y0239679D01*
X0557941Y0254443D01*
X0558056Y0254329D01*
X0557941Y0254443D02*
X0501612Y0309848D01*
X0498889Y0312571D01*
X0475207Y0312571D01*
X0471949Y0315829D01*
X0471949Y0322856D01*
X0476821Y0327729D01*
X0473056Y0327850D02*
X0470587Y0327850D01*
X0470587Y0329288D02*
X0468381Y0331494D01*
X0465262Y0331494D01*
X0463056Y0329288D01*
X0463056Y0326169D01*
X0465262Y0323963D01*
X0468381Y0323963D01*
X0470587Y0326169D01*
X0470587Y0329288D01*
X0470452Y0329423D02*
X0473191Y0329423D01*
X0474764Y0330997D02*
X0468878Y0330997D01*
X0464764Y0330997D02*
X0458878Y0330997D01*
X0458381Y0331494D02*
X0455262Y0331494D01*
X0453056Y0329288D01*
X0453056Y0326169D01*
X0455262Y0323963D01*
X0458381Y0323963D01*
X0460587Y0326169D01*
X0460587Y0329288D01*
X0458381Y0331494D01*
X0460452Y0329423D02*
X0463191Y0329423D01*
X0463056Y0327850D02*
X0460587Y0327850D01*
X0460587Y0326277D02*
X0463056Y0326277D01*
X0464522Y0324703D02*
X0459121Y0324703D01*
X0457570Y0321494D02*
X0456072Y0321494D01*
X0454688Y0320921D01*
X0453629Y0319862D01*
X0453056Y0318478D01*
X0453056Y0316980D01*
X0453629Y0315596D01*
X0454688Y0314536D01*
X0456072Y0313963D01*
X0457570Y0313963D01*
X0458954Y0314536D01*
X0460013Y0315596D01*
X0460587Y0316980D01*
X0460587Y0318478D01*
X0460013Y0319862D01*
X0458954Y0320921D01*
X0457570Y0321494D01*
X0459892Y0319983D02*
X0463751Y0319983D01*
X0463056Y0318410D02*
X0460587Y0318410D01*
X0460527Y0316837D02*
X0463056Y0316837D01*
X0463961Y0315263D02*
X0459681Y0315263D01*
X0464656Y0313690D02*
X0437780Y0313690D01*
X0439354Y0312117D02*
X0464656Y0312117D01*
X0464656Y0310543D02*
X0440927Y0310543D01*
X0442500Y0308970D02*
X0456920Y0308970D01*
X0456743Y0307397D02*
X0444074Y0307397D01*
X0445647Y0305823D02*
X0456743Y0305823D01*
X0456743Y0304250D02*
X0452480Y0304250D01*
X0450690Y0304250D02*
X0447220Y0304250D01*
X0448794Y0302677D02*
X0449095Y0302677D01*
X0451585Y0301744D02*
X0457315Y0296015D01*
X0460443Y0299143D01*
X0460443Y0299284D01*
X0456939Y0299530D02*
X0456861Y0299530D01*
X0456939Y0301104D02*
X0455288Y0301104D01*
X0454075Y0302677D02*
X0457644Y0302677D01*
X0460689Y0306420D02*
X0464144Y0306420D01*
X0464144Y0308448D01*
X0464037Y0308848D01*
X0463829Y0309207D01*
X0463536Y0309501D01*
X0463177Y0309708D01*
X0462777Y0309815D01*
X0460689Y0309815D01*
X0460689Y0306420D01*
X0460689Y0307397D02*
X0460197Y0307397D01*
X0460197Y0308970D02*
X0460689Y0308970D01*
X0463966Y0308970D02*
X0465903Y0308970D01*
X0467477Y0307397D02*
X0464144Y0307397D01*
X0464144Y0305823D02*
X0469050Y0305823D01*
X0470623Y0304250D02*
X0464144Y0304250D01*
X0464355Y0302677D02*
X0463243Y0302677D01*
X0467087Y0302677D02*
X0467579Y0302677D01*
X0467579Y0302925D02*
X0467579Y0299530D01*
X0467087Y0299530D01*
X0467579Y0299530D02*
X0471034Y0299530D01*
X0471034Y0301558D01*
X0470927Y0301959D01*
X0470719Y0302318D01*
X0470426Y0302611D01*
X0470067Y0302818D01*
X0469666Y0302925D01*
X0467579Y0302925D01*
X0467579Y0301104D02*
X0467087Y0301104D01*
X0470312Y0302677D02*
X0472197Y0302677D01*
X0471034Y0301104D02*
X0473770Y0301104D01*
X0473298Y0299530D02*
X0471034Y0299530D01*
X0471034Y0297957D02*
X0473056Y0297957D01*
X0473056Y0296384D02*
X0470796Y0296384D01*
X0470837Y0294810D02*
X0474415Y0294810D01*
X0470837Y0293237D02*
X0508211Y0293237D01*
X0506638Y0294810D02*
X0489228Y0294810D01*
X0486821Y0297729D02*
X0506782Y0297729D01*
X0551979Y0252532D01*
X0551979Y0237768D01*
X0556957Y0236598D02*
X0557961Y0236598D01*
X0556957Y0235024D02*
X0559534Y0235024D01*
X0554931Y0231862D02*
X0554792Y0232002D01*
X0554792Y0253656D01*
X0505719Y0302729D01*
X0475207Y0302729D01*
X0466821Y0311114D01*
X0466821Y0317729D01*
X0469783Y0321557D02*
X0371990Y0321557D01*
X0372099Y0323130D02*
X0469783Y0323130D01*
X0469121Y0324703D02*
X0470734Y0324703D01*
X0470587Y0326277D02*
X0472307Y0326277D01*
X0478878Y0330997D02*
X0480128Y0330997D01*
X0480128Y0332570D02*
X0371924Y0332570D01*
X0371648Y0334143D02*
X0480303Y0334143D01*
X0483573Y0331272D02*
X0483573Y0325366D01*
X0476821Y0318614D01*
X0476821Y0317729D01*
X0479681Y0315263D02*
X0483961Y0315263D01*
X0483056Y0316837D02*
X0480587Y0316837D01*
X0480587Y0318410D02*
X0483056Y0318410D01*
X0483751Y0319983D02*
X0481252Y0319983D01*
X0482826Y0321557D02*
X0527977Y0321557D01*
X0527977Y0323107D02*
X0527977Y0319988D01*
X0530183Y0317782D01*
X0533302Y0317782D01*
X0535508Y0319988D01*
X0535508Y0323107D01*
X0533302Y0325313D01*
X0530183Y0325313D01*
X0527977Y0323107D01*
X0528000Y0323130D02*
X0494105Y0323130D01*
X0494105Y0324703D02*
X0529573Y0324703D01*
X0530183Y0327782D02*
X0527977Y0329988D01*
X0527977Y0333107D01*
X0530183Y0335313D01*
X0533302Y0335313D01*
X0535508Y0333107D01*
X0535508Y0329988D01*
X0533302Y0327782D01*
X0530183Y0327782D01*
X0530115Y0327850D02*
X0494064Y0327850D01*
X0494105Y0329423D02*
X0528542Y0329423D01*
X0527977Y0330997D02*
X0494105Y0330997D01*
X0494105Y0331518D02*
X0494105Y0333605D01*
X0493997Y0334006D01*
X0493790Y0334365D01*
X0493497Y0334658D01*
X0493138Y0334865D01*
X0492737Y0334973D01*
X0490709Y0334973D01*
X0490709Y0331518D01*
X0494105Y0331518D01*
X0494105Y0332570D02*
X0527977Y0332570D01*
X0529013Y0334143D02*
X0493918Y0334143D01*
X0490709Y0334143D02*
X0490217Y0334143D01*
X0490217Y0332570D02*
X0490709Y0332570D01*
X0490709Y0331026D02*
X0490709Y0325613D01*
X0490217Y0325613D01*
X0490217Y0329067D01*
X0490217Y0331026D01*
X0490709Y0331026D01*
X0490709Y0330997D02*
X0490217Y0330997D01*
X0490217Y0329423D02*
X0490709Y0329423D01*
X0490709Y0327850D02*
X0490217Y0327850D01*
X0490217Y0326277D02*
X0490709Y0326277D01*
X0490709Y0324703D02*
X0490217Y0324703D01*
X0490217Y0323130D02*
X0490709Y0323130D01*
X0489892Y0319983D02*
X0527982Y0319983D01*
X0529555Y0318410D02*
X0500974Y0318410D01*
X0502547Y0316837D02*
X0698920Y0316837D01*
X0698920Y0318410D02*
X0533930Y0318410D01*
X0535503Y0319983D02*
X0698920Y0319983D01*
X0698920Y0321557D02*
X0535508Y0321557D01*
X0535485Y0323130D02*
X0698920Y0323130D01*
X0698920Y0324703D02*
X0533912Y0324703D01*
X0533370Y0327850D02*
X0698920Y0327850D01*
X0698920Y0329423D02*
X0534943Y0329423D01*
X0535508Y0330997D02*
X0698920Y0330997D01*
X0698920Y0332570D02*
X0535508Y0332570D01*
X0534472Y0334143D02*
X0698920Y0334143D01*
X0698920Y0335716D02*
X0370582Y0335716D01*
X0370188Y0326277D02*
X0423056Y0326277D01*
X0424522Y0324703D02*
X0371608Y0324703D01*
X0371213Y0319983D02*
X0413751Y0319983D01*
X0413056Y0319288D02*
X0415262Y0321494D01*
X0418381Y0321494D01*
X0420587Y0319288D01*
X0420587Y0316169D01*
X0418381Y0313963D01*
X0415262Y0313963D01*
X0413056Y0316169D01*
X0413056Y0319288D01*
X0413056Y0318410D02*
X0368826Y0318410D01*
X0368587Y0316815D02*
X0361355Y0316815D01*
X0359824Y0316181D01*
X0358652Y0315009D01*
X0358018Y0313478D01*
X0358018Y0312618D01*
X0352963Y0307563D01*
X0352963Y0276241D01*
X0354231Y0274973D01*
X0363641Y0265563D01*
X0413662Y0265563D01*
X0415262Y0263963D01*
X0416935Y0263963D01*
X0416852Y0263880D01*
X0416447Y0262903D01*
X0416447Y0261846D01*
X0416852Y0260869D01*
X0417599Y0260121D01*
X0418576Y0259717D01*
X0419633Y0259717D01*
X0420610Y0260121D01*
X0420698Y0260209D01*
X0422364Y0260209D01*
X0426118Y0263963D01*
X0428381Y0263963D01*
X0430587Y0266169D01*
X0430587Y0269288D01*
X0428381Y0271494D01*
X0425262Y0271494D01*
X0423056Y0269288D01*
X0423056Y0267026D01*
X0420634Y0264603D01*
X0420610Y0264627D01*
X0419633Y0265032D01*
X0419449Y0265032D01*
X0420587Y0266169D01*
X0420587Y0269288D01*
X0418839Y0271036D01*
X0422954Y0271036D01*
X0424223Y0272304D01*
X0425882Y0273963D01*
X0428381Y0273963D01*
X0430587Y0276169D01*
X0430587Y0279288D01*
X0428381Y0281494D01*
X0425262Y0281494D01*
X0423056Y0279288D01*
X0423056Y0277262D01*
X0421161Y0275366D01*
X0419784Y0275366D01*
X0420587Y0276169D01*
X0420587Y0279288D01*
X0418381Y0281494D01*
X0415262Y0281494D01*
X0413662Y0279894D01*
X0380789Y0279894D01*
X0370841Y0289842D01*
X0371289Y0290290D01*
X0371924Y0291821D01*
X0371924Y0293478D01*
X0371289Y0295009D01*
X0370118Y0296181D01*
X0368587Y0296815D01*
X0361355Y0296815D01*
X0359824Y0296181D01*
X0358652Y0295009D01*
X0358018Y0293478D01*
X0358018Y0291821D01*
X0358652Y0290290D01*
X0359824Y0289119D01*
X0361355Y0288485D01*
X0366074Y0288485D01*
X0367743Y0286815D01*
X0361355Y0286815D01*
X0359824Y0286181D01*
X0358652Y0285009D01*
X0358018Y0283478D01*
X0358018Y0281821D01*
X0358652Y0280290D01*
X0359824Y0279119D01*
X0361355Y0278485D01*
X0366074Y0278485D01*
X0372254Y0272304D01*
X0373523Y0271036D01*
X0414803Y0271036D01*
X0413662Y0269894D01*
X0365435Y0269894D01*
X0357294Y0278035D01*
X0357294Y0305769D01*
X0360404Y0308879D01*
X0361355Y0308485D01*
X0368587Y0308485D01*
X0370118Y0309119D01*
X0371289Y0310290D01*
X0371924Y0311821D01*
X0371924Y0313478D01*
X0371289Y0315009D01*
X0370118Y0316181D01*
X0368587Y0316815D01*
X0371035Y0315263D02*
X0413961Y0315263D01*
X0413056Y0316837D02*
X0309368Y0316837D01*
X0309368Y0318410D02*
X0361116Y0318410D01*
X0361162Y0318395D02*
X0361840Y0318288D01*
X0364758Y0318288D01*
X0364758Y0322437D01*
X0357821Y0322437D01*
X0357821Y0322307D01*
X0357929Y0321628D01*
X0358141Y0320975D01*
X0358453Y0320364D01*
X0358856Y0319808D01*
X0359342Y0319323D01*
X0359897Y0318919D01*
X0360509Y0318607D01*
X0361162Y0318395D01*
X0358729Y0319983D02*
X0309368Y0319983D01*
X0309368Y0321557D02*
X0357952Y0321557D01*
X0357843Y0323130D02*
X0309368Y0323130D01*
X0309368Y0324703D02*
X0358334Y0324703D01*
X0364758Y0324703D02*
X0365183Y0324703D01*
X0365183Y0323130D02*
X0364758Y0323130D01*
X0364758Y0321557D02*
X0365183Y0321557D01*
X0365183Y0319983D02*
X0364758Y0319983D01*
X0364758Y0318410D02*
X0365183Y0318410D01*
X0358906Y0315263D02*
X0309368Y0315263D01*
X0309368Y0313690D02*
X0358106Y0313690D01*
X0357517Y0312117D02*
X0309368Y0312117D01*
X0309368Y0310543D02*
X0355944Y0310543D01*
X0354371Y0308970D02*
X0309368Y0308970D01*
X0309368Y0307397D02*
X0352963Y0307397D01*
X0352963Y0305823D02*
X0309368Y0305823D01*
X0309368Y0304250D02*
X0352963Y0304250D01*
X0352963Y0302677D02*
X0309368Y0302677D01*
X0309368Y0301104D02*
X0352963Y0301104D01*
X0352963Y0299530D02*
X0309368Y0299530D01*
X0309368Y0297957D02*
X0352963Y0297957D01*
X0352963Y0296384D02*
X0309368Y0296384D01*
X0309368Y0294810D02*
X0352963Y0294810D01*
X0352963Y0293237D02*
X0309368Y0293237D01*
X0309368Y0291664D02*
X0352963Y0291664D01*
X0352963Y0290090D02*
X0309368Y0290090D01*
X0309368Y0288517D02*
X0352963Y0288517D01*
X0352963Y0286944D02*
X0309368Y0286944D01*
X0309368Y0285370D02*
X0352963Y0285370D01*
X0352963Y0283797D02*
X0309368Y0283797D01*
X0309368Y0282224D02*
X0352963Y0282224D01*
X0352963Y0280650D02*
X0309368Y0280650D01*
X0309368Y0279077D02*
X0352963Y0279077D01*
X0352963Y0277504D02*
X0309368Y0277504D01*
X0309368Y0275930D02*
X0353274Y0275930D01*
X0355128Y0277138D02*
X0355128Y0306666D01*
X0361034Y0312571D01*
X0364892Y0312571D01*
X0364971Y0312650D01*
X0369759Y0308970D02*
X0413056Y0308970D01*
X0413056Y0307397D02*
X0358922Y0307397D01*
X0359466Y0305823D02*
X0357348Y0305823D01*
X0357294Y0304250D02*
X0358338Y0304250D01*
X0358018Y0302677D02*
X0357294Y0302677D01*
X0357294Y0301104D02*
X0358315Y0301104D01*
X0357294Y0299530D02*
X0359412Y0299530D01*
X0357294Y0297957D02*
X0377077Y0297957D01*
X0377448Y0296384D02*
X0369629Y0296384D01*
X0371372Y0294810D02*
X0414415Y0294810D01*
X0415262Y0291494D02*
X0413056Y0289288D01*
X0413056Y0286169D01*
X0415262Y0283963D01*
X0418381Y0283963D01*
X0420587Y0286169D01*
X0420587Y0289288D01*
X0418381Y0291494D01*
X0415262Y0291494D01*
X0413858Y0290090D02*
X0371089Y0290090D01*
X0371858Y0291664D02*
X0445808Y0291664D01*
X0444235Y0293237D02*
X0371924Y0293237D01*
X0372166Y0288517D02*
X0413056Y0288517D01*
X0413056Y0286944D02*
X0373739Y0286944D01*
X0375313Y0285370D02*
X0413854Y0285370D01*
X0419788Y0285370D02*
X0423854Y0285370D01*
X0423056Y0286169D02*
X0425262Y0283963D01*
X0428381Y0283963D01*
X0430587Y0286169D01*
X0430587Y0289288D01*
X0428381Y0291494D01*
X0425262Y0291494D01*
X0423056Y0289288D01*
X0423056Y0286169D01*
X0423056Y0286944D02*
X0420587Y0286944D01*
X0420587Y0288517D02*
X0423056Y0288517D01*
X0423858Y0290090D02*
X0419785Y0290090D01*
X0419228Y0294810D02*
X0424415Y0294810D01*
X0423056Y0296384D02*
X0420587Y0296384D01*
X0420587Y0297957D02*
X0423056Y0297957D01*
X0423298Y0299530D02*
X0420345Y0299530D01*
X0416821Y0297729D02*
X0416743Y0297807D01*
X0379735Y0297807D01*
X0377699Y0299530D02*
X0370529Y0299530D01*
X0368987Y0302729D02*
X0364971Y0302650D01*
X0368987Y0302729D02*
X0441743Y0302729D01*
X0476743Y0267729D01*
X0476821Y0267729D01*
X0479335Y0264917D02*
X0484308Y0264917D01*
X0483056Y0266491D02*
X0480587Y0266491D01*
X0480587Y0268064D02*
X0483056Y0268064D01*
X0483405Y0269637D02*
X0480238Y0269637D01*
X0472254Y0268280D02*
X0442727Y0297807D01*
X0426900Y0297807D01*
X0426821Y0297729D01*
X0429228Y0294810D02*
X0442662Y0294810D01*
X0447382Y0290090D02*
X0429785Y0290090D01*
X0430587Y0288517D02*
X0448955Y0288517D01*
X0450528Y0286944D02*
X0430587Y0286944D01*
X0429788Y0285370D02*
X0452101Y0285370D01*
X0453675Y0283797D02*
X0376886Y0283797D01*
X0378459Y0282224D02*
X0455248Y0282224D01*
X0456821Y0280650D02*
X0429224Y0280650D01*
X0430587Y0279077D02*
X0458395Y0279077D01*
X0459968Y0277504D02*
X0430587Y0277504D01*
X0430348Y0275930D02*
X0461541Y0275930D01*
X0463115Y0274357D02*
X0428775Y0274357D01*
X0428664Y0271211D02*
X0434978Y0271211D01*
X0433405Y0269637D02*
X0430238Y0269637D01*
X0430587Y0268064D02*
X0432559Y0268064D01*
X0430986Y0266491D02*
X0430587Y0266491D01*
X0429735Y0264917D02*
X0429335Y0264917D01*
X0429735Y0263344D02*
X0425499Y0263344D01*
X0423926Y0261771D02*
X0429735Y0261771D01*
X0429735Y0260197D02*
X0429677Y0260197D01*
X0434065Y0261771D02*
X0469628Y0261771D01*
X0468381Y0261494D02*
X0465262Y0261494D01*
X0463056Y0259288D01*
X0463056Y0256169D01*
X0465262Y0253963D01*
X0468381Y0253963D01*
X0470587Y0256169D01*
X0470587Y0259288D01*
X0468381Y0261494D01*
X0469677Y0260197D02*
X0470673Y0260197D01*
X0470587Y0258624D02*
X0473056Y0258624D01*
X0473056Y0257051D02*
X0470587Y0257051D01*
X0469895Y0255477D02*
X0473747Y0255477D01*
X0473836Y0260197D02*
X0473965Y0260197D01*
X0474881Y0261771D02*
X0517040Y0261771D01*
X0515466Y0263344D02*
X0474729Y0263344D01*
X0472254Y0262374D02*
X0472254Y0268280D01*
X0470089Y0264917D02*
X0469335Y0264917D01*
X0469780Y0263344D02*
X0434065Y0263344D01*
X0431900Y0264343D02*
X0431900Y0249087D01*
X0425994Y0249087D01*
X0422491Y0249184D02*
X0309368Y0249184D01*
X0309368Y0247611D02*
X0422491Y0247611D01*
X0422902Y0246038D02*
X0309368Y0246038D01*
X0309368Y0244464D02*
X0422294Y0244464D01*
X0422294Y0242891D02*
X0309368Y0242891D01*
X0309368Y0241318D02*
X0422294Y0241318D01*
X0422342Y0239744D02*
X0309368Y0239744D01*
X0309368Y0238171D02*
X0475633Y0238171D01*
X0474877Y0236598D02*
X0309368Y0236598D01*
X0309368Y0235024D02*
X0474821Y0235024D01*
X0474821Y0233451D02*
X0309368Y0233451D01*
X0309368Y0231878D02*
X0474821Y0231878D01*
X0474821Y0230304D02*
X0309368Y0230304D01*
X0309368Y0228731D02*
X0475028Y0228731D01*
X0475997Y0227158D02*
X0456111Y0227158D01*
X0454538Y0224973D02*
X0487018Y0224973D01*
X0488987Y0226941D01*
X0488987Y0232847D01*
X0484821Y0233451D02*
X0483152Y0233451D01*
X0483152Y0231878D02*
X0484821Y0231878D01*
X0484821Y0230304D02*
X0483152Y0230304D01*
X0482945Y0228731D02*
X0485028Y0228731D01*
X0485997Y0227158D02*
X0481976Y0227158D01*
X0481754Y0222438D02*
X0486535Y0222438D01*
X0485542Y0220864D02*
X0482747Y0220864D01*
X0482909Y0219291D02*
X0485379Y0219291D01*
X0485379Y0217718D02*
X0482909Y0217718D01*
X0482909Y0216145D02*
X0485379Y0216145D01*
X0485379Y0214571D02*
X0482909Y0214571D01*
X0482412Y0212998D02*
X0485876Y0212998D01*
X0487810Y0211425D02*
X0480478Y0211425D01*
X0477810Y0211425D02*
X0470478Y0211425D01*
X0472412Y0212998D02*
X0475876Y0212998D01*
X0475379Y0214571D02*
X0472909Y0214571D01*
X0472909Y0216145D02*
X0475379Y0216145D01*
X0475379Y0217718D02*
X0472909Y0217718D01*
X0472909Y0219291D02*
X0475379Y0219291D01*
X0475542Y0220864D02*
X0472747Y0220864D01*
X0471754Y0222438D02*
X0476535Y0222438D01*
X0466535Y0222438D02*
X0461754Y0222438D01*
X0462747Y0220864D02*
X0465542Y0220864D01*
X0465379Y0219291D02*
X0462909Y0219291D01*
X0462909Y0217718D02*
X0465379Y0217718D01*
X0465379Y0216145D02*
X0462909Y0216145D01*
X0462909Y0214571D02*
X0465379Y0214571D01*
X0465876Y0212998D02*
X0462412Y0212998D01*
X0460478Y0211425D02*
X0467810Y0211425D01*
X0457810Y0211425D02*
X0450478Y0211425D01*
X0449893Y0211182D02*
X0451277Y0211755D01*
X0452336Y0212815D01*
X0452909Y0214199D01*
X0452909Y0220471D01*
X0452336Y0221855D01*
X0451277Y0222914D01*
X0449893Y0223488D01*
X0448395Y0223488D01*
X0447011Y0222914D01*
X0445952Y0221855D01*
X0445379Y0220471D01*
X0445379Y0214199D01*
X0445952Y0212815D01*
X0447011Y0211755D01*
X0448395Y0211182D01*
X0449893Y0211182D01*
X0447810Y0211425D02*
X0440478Y0211425D01*
X0439893Y0211182D02*
X0441277Y0211755D01*
X0442336Y0212815D01*
X0442909Y0214199D01*
X0442909Y0220471D01*
X0442336Y0221855D01*
X0441277Y0222914D01*
X0439893Y0223488D01*
X0438395Y0223488D01*
X0437011Y0222914D01*
X0435952Y0221855D01*
X0435379Y0220471D01*
X0435379Y0214199D01*
X0435952Y0212815D01*
X0437011Y0211755D01*
X0438395Y0211182D01*
X0439893Y0211182D01*
X0437810Y0211425D02*
X0430478Y0211425D01*
X0429893Y0211182D02*
X0431277Y0211755D01*
X0432336Y0212815D01*
X0432909Y0214199D01*
X0432909Y0220471D01*
X0432336Y0221855D01*
X0431277Y0222914D01*
X0429893Y0223488D01*
X0428395Y0223488D01*
X0427011Y0222914D01*
X0425952Y0221855D01*
X0425379Y0220471D01*
X0425379Y0214199D01*
X0425952Y0212815D01*
X0427011Y0211755D01*
X0428395Y0211182D01*
X0429893Y0211182D01*
X0427810Y0211425D02*
X0420478Y0211425D01*
X0419893Y0211182D02*
X0421277Y0211755D01*
X0422336Y0212815D01*
X0422909Y0214199D01*
X0422909Y0220471D01*
X0422336Y0221855D01*
X0421277Y0222914D01*
X0419893Y0223488D01*
X0418395Y0223488D01*
X0417011Y0222914D01*
X0415952Y0221855D01*
X0415379Y0220471D01*
X0415379Y0214199D01*
X0415952Y0212815D01*
X0417011Y0211755D01*
X0418395Y0211182D01*
X0419893Y0211182D01*
X0417810Y0211425D02*
X0410478Y0211425D01*
X0409893Y0211182D02*
X0411277Y0211755D01*
X0412336Y0212815D01*
X0412909Y0214199D01*
X0412909Y0220471D01*
X0412336Y0221855D01*
X0411277Y0222914D01*
X0409893Y0223488D01*
X0408395Y0223488D01*
X0407011Y0222914D01*
X0405952Y0221855D01*
X0405379Y0220471D01*
X0405379Y0214199D01*
X0405952Y0212815D01*
X0407011Y0211755D01*
X0408395Y0211182D01*
X0409893Y0211182D01*
X0407810Y0211425D02*
X0400478Y0211425D01*
X0399893Y0211182D02*
X0401277Y0211755D01*
X0402336Y0212815D01*
X0402909Y0214199D01*
X0402909Y0220471D01*
X0402336Y0221855D01*
X0401277Y0222914D01*
X0399893Y0223488D01*
X0398395Y0223488D01*
X0397011Y0222914D01*
X0395952Y0221855D01*
X0395379Y0220471D01*
X0395379Y0214199D01*
X0395952Y0212815D01*
X0397011Y0211755D01*
X0398395Y0211182D01*
X0399893Y0211182D01*
X0397810Y0211425D02*
X0390478Y0211425D01*
X0389893Y0211182D02*
X0391277Y0211755D01*
X0392336Y0212815D01*
X0392909Y0214199D01*
X0392909Y0220471D01*
X0392336Y0221855D01*
X0391277Y0222914D01*
X0389893Y0223488D01*
X0388395Y0223488D01*
X0387011Y0222914D01*
X0385952Y0221855D01*
X0385379Y0220471D01*
X0385379Y0214199D01*
X0385952Y0212815D01*
X0387011Y0211755D01*
X0388395Y0211182D01*
X0389893Y0211182D01*
X0387810Y0211425D02*
X0380993Y0211425D01*
X0381021Y0211436D02*
X0381670Y0211870D01*
X0382222Y0212422D01*
X0382655Y0213071D01*
X0382954Y0213792D01*
X0383106Y0214557D01*
X0383106Y0217322D01*
X0379157Y0217322D01*
X0379157Y0217348D01*
X0379131Y0217348D01*
X0379131Y0223684D01*
X0378754Y0223684D01*
X0377988Y0223532D01*
X0377267Y0223234D01*
X0376618Y0222800D01*
X0376066Y0222248D01*
X0375633Y0221599D01*
X0375334Y0220878D01*
X0375182Y0220113D01*
X0375182Y0217348D01*
X0379131Y0217348D01*
X0379131Y0217322D01*
X0375182Y0217322D01*
X0375182Y0214557D01*
X0375334Y0213792D01*
X0375633Y0213071D01*
X0376066Y0212422D01*
X0376618Y0211870D01*
X0377267Y0211436D01*
X0377988Y0211138D01*
X0378754Y0210985D01*
X0379131Y0210985D01*
X0379131Y0217322D01*
X0379157Y0217322D01*
X0379157Y0210985D01*
X0379534Y0210985D01*
X0380300Y0211138D01*
X0381021Y0211436D01*
X0379157Y0211425D02*
X0379131Y0211425D01*
X0379131Y0212998D02*
X0379157Y0212998D01*
X0379131Y0214571D02*
X0379157Y0214571D01*
X0379131Y0216145D02*
X0379157Y0216145D01*
X0379157Y0217348D02*
X0383106Y0217348D01*
X0383106Y0220113D01*
X0382954Y0220878D01*
X0382655Y0221599D01*
X0382222Y0222248D01*
X0381670Y0222800D01*
X0381021Y0223234D01*
X0380300Y0223532D01*
X0379534Y0223684D01*
X0379157Y0223684D01*
X0379157Y0217348D01*
X0379131Y0217718D02*
X0379157Y0217718D01*
X0379131Y0219291D02*
X0379157Y0219291D01*
X0379131Y0220864D02*
X0379157Y0220864D01*
X0379131Y0222438D02*
X0379157Y0222438D01*
X0382032Y0222438D02*
X0386535Y0222438D01*
X0385542Y0220864D02*
X0382957Y0220864D01*
X0383106Y0219291D02*
X0385379Y0219291D01*
X0385379Y0217718D02*
X0383106Y0217718D01*
X0383106Y0216145D02*
X0385379Y0216145D01*
X0385379Y0214571D02*
X0383106Y0214571D01*
X0382607Y0212998D02*
X0385876Y0212998D01*
X0392412Y0212998D02*
X0395876Y0212998D01*
X0395379Y0214571D02*
X0392909Y0214571D01*
X0392909Y0216145D02*
X0395379Y0216145D01*
X0395379Y0217718D02*
X0392909Y0217718D01*
X0392909Y0219291D02*
X0395379Y0219291D01*
X0395542Y0220864D02*
X0392747Y0220864D01*
X0391754Y0222438D02*
X0396535Y0222438D01*
X0401754Y0222438D02*
X0406535Y0222438D01*
X0405542Y0220864D02*
X0402747Y0220864D01*
X0402909Y0219291D02*
X0405379Y0219291D01*
X0405379Y0217718D02*
X0402909Y0217718D01*
X0402909Y0216145D02*
X0405379Y0216145D01*
X0405379Y0214571D02*
X0402909Y0214571D01*
X0402412Y0212998D02*
X0405876Y0212998D01*
X0412412Y0212998D02*
X0415876Y0212998D01*
X0415379Y0214571D02*
X0412909Y0214571D01*
X0412909Y0216145D02*
X0415379Y0216145D01*
X0415379Y0217718D02*
X0412909Y0217718D01*
X0412909Y0219291D02*
X0415379Y0219291D01*
X0415542Y0220864D02*
X0412747Y0220864D01*
X0411754Y0222438D02*
X0416535Y0222438D01*
X0421754Y0222438D02*
X0426535Y0222438D01*
X0425542Y0220864D02*
X0422747Y0220864D01*
X0422909Y0219291D02*
X0425379Y0219291D01*
X0425379Y0217718D02*
X0422909Y0217718D01*
X0422909Y0216145D02*
X0425379Y0216145D01*
X0425379Y0214571D02*
X0422909Y0214571D01*
X0422412Y0212998D02*
X0425876Y0212998D01*
X0432412Y0212998D02*
X0435876Y0212998D01*
X0435379Y0214571D02*
X0432909Y0214571D01*
X0432909Y0216145D02*
X0435379Y0216145D01*
X0435379Y0217718D02*
X0432909Y0217718D01*
X0432909Y0219291D02*
X0435379Y0219291D01*
X0435542Y0220864D02*
X0432747Y0220864D01*
X0431754Y0222438D02*
X0436535Y0222438D01*
X0441754Y0222438D02*
X0446535Y0222438D01*
X0445542Y0220864D02*
X0442747Y0220864D01*
X0442909Y0219291D02*
X0445379Y0219291D01*
X0445379Y0217718D02*
X0442909Y0217718D01*
X0442909Y0216145D02*
X0445379Y0216145D01*
X0445379Y0214571D02*
X0442909Y0214571D01*
X0442412Y0212998D02*
X0445876Y0212998D01*
X0452412Y0212998D02*
X0455876Y0212998D01*
X0455379Y0214571D02*
X0452909Y0214571D01*
X0452909Y0216145D02*
X0455379Y0216145D01*
X0455379Y0217718D02*
X0452909Y0217718D01*
X0452909Y0219291D02*
X0455379Y0219291D01*
X0455542Y0220864D02*
X0452747Y0220864D01*
X0453713Y0222438D02*
X0451754Y0222438D01*
X0452060Y0224011D02*
X0309368Y0224011D01*
X0309368Y0222438D02*
X0376256Y0222438D01*
X0375331Y0220864D02*
X0309368Y0220864D01*
X0309368Y0219291D02*
X0375182Y0219291D01*
X0375182Y0217718D02*
X0309368Y0217718D01*
X0309368Y0216145D02*
X0375182Y0216145D01*
X0375182Y0214571D02*
X0309368Y0214571D01*
X0309368Y0212998D02*
X0375681Y0212998D01*
X0377295Y0211425D02*
X0309368Y0211425D01*
X0309368Y0209851D02*
X0698920Y0209851D01*
X0698920Y0208278D02*
X0309368Y0208278D01*
X0309368Y0206705D02*
X0698920Y0206705D01*
X0698920Y0205131D02*
X0309368Y0205131D01*
X0309368Y0203558D02*
X0698920Y0203558D01*
X0698920Y0201985D02*
X0309368Y0201985D01*
X0309368Y0200411D02*
X0698920Y0200411D01*
X0698920Y0198838D02*
X0309368Y0198838D01*
X0309368Y0197265D02*
X0698920Y0197265D01*
X0698920Y0195691D02*
X0309368Y0195691D01*
X0309368Y0194118D02*
X0698920Y0194118D01*
X0698920Y0192545D02*
X0309368Y0192545D01*
X0309368Y0190972D02*
X0698920Y0190972D01*
X0698920Y0189398D02*
X0309368Y0189398D01*
X0309368Y0187825D02*
X0698920Y0187825D01*
X0698920Y0186252D02*
X0309368Y0186252D01*
X0309368Y0184678D02*
X0698920Y0184678D01*
X0698920Y0183105D02*
X0309368Y0183105D01*
X0309368Y0181532D02*
X0698920Y0181532D01*
X0698920Y0179958D02*
X0309368Y0179958D01*
X0309368Y0178385D02*
X0698920Y0178385D01*
X0698920Y0176812D02*
X0430670Y0176812D01*
X0430453Y0177029D02*
X0429476Y0177433D01*
X0428419Y0177433D01*
X0427442Y0177029D01*
X0427354Y0176941D01*
X0415776Y0176941D01*
X0415689Y0177029D01*
X0414712Y0177433D01*
X0413655Y0177433D01*
X0412678Y0177029D01*
X0411931Y0176281D01*
X0411526Y0175304D01*
X0411526Y0174247D01*
X0411931Y0173270D01*
X0412678Y0172523D01*
X0413655Y0172118D01*
X0414712Y0172118D01*
X0415689Y0172523D01*
X0415776Y0172610D01*
X0427354Y0172610D01*
X0427442Y0172523D01*
X0428419Y0172118D01*
X0429476Y0172118D01*
X0430453Y0172523D01*
X0431200Y0173270D01*
X0431605Y0174247D01*
X0431605Y0175304D01*
X0431200Y0176281D01*
X0430453Y0177029D01*
X0431605Y0175238D02*
X0698920Y0175238D01*
X0698920Y0173665D02*
X0431364Y0173665D01*
X0428947Y0174776D02*
X0414183Y0174776D01*
X0411767Y0173665D02*
X0309368Y0173665D01*
X0309368Y0172092D02*
X0497236Y0172092D01*
X0497204Y0172037D02*
X0497097Y0171637D01*
X0497097Y0169609D01*
X0500551Y0169609D01*
X0500552Y0169609D02*
X0500552Y0173004D01*
X0498464Y0173004D01*
X0498064Y0172897D01*
X0497705Y0172690D01*
X0497411Y0172396D01*
X0497204Y0172037D01*
X0497097Y0170518D02*
X0309368Y0170518D01*
X0309368Y0168945D02*
X0372114Y0168945D01*
X0372324Y0169155D02*
X0371576Y0168407D01*
X0371172Y0167430D01*
X0371172Y0166373D01*
X0371576Y0165396D01*
X0372324Y0164649D01*
X0373301Y0164244D01*
X0374358Y0164244D01*
X0375334Y0164649D01*
X0375422Y0164736D01*
X0406397Y0164736D01*
X0406979Y0164155D01*
X0406979Y0162882D01*
X0405952Y0161855D01*
X0405379Y0160471D01*
X0405379Y0154199D01*
X0405952Y0152815D01*
X0407011Y0151755D01*
X0407097Y0151720D01*
X0407097Y0148288D01*
X0408365Y0147020D01*
X0410924Y0144461D01*
X0405238Y0144461D01*
X0401585Y0148114D01*
X0401585Y0152063D01*
X0402336Y0152815D01*
X0402909Y0154199D01*
X0402909Y0160471D01*
X0402336Y0161855D01*
X0401277Y0162914D01*
X0399893Y0163488D01*
X0398395Y0163488D01*
X0397011Y0162914D01*
X0395952Y0161855D01*
X0395379Y0160471D01*
X0395379Y0154199D01*
X0395952Y0152815D01*
X0397011Y0151755D01*
X0397254Y0151655D01*
X0397254Y0146320D01*
X0398523Y0145051D01*
X0402066Y0141508D01*
X0397364Y0141508D01*
X0391743Y0147129D01*
X0391743Y0152221D01*
X0392336Y0152815D01*
X0392909Y0154199D01*
X0392909Y0160471D01*
X0392336Y0161855D01*
X0391277Y0162914D01*
X0389893Y0163488D01*
X0388395Y0163488D01*
X0387011Y0162914D01*
X0385952Y0161855D01*
X0385379Y0160471D01*
X0385379Y0154199D01*
X0385952Y0152815D01*
X0387011Y0151755D01*
X0387412Y0151589D01*
X0387412Y0145336D01*
X0388680Y0144067D01*
X0394192Y0138555D01*
X0390474Y0138555D01*
X0381900Y0147129D01*
X0381900Y0152378D01*
X0382336Y0152815D01*
X0382909Y0154199D01*
X0382909Y0160471D01*
X0382336Y0161855D01*
X0381277Y0162914D01*
X0379893Y0163488D01*
X0378395Y0163488D01*
X0377011Y0162914D01*
X0375952Y0161855D01*
X0375379Y0160471D01*
X0375379Y0154199D01*
X0375952Y0152815D01*
X0377011Y0151755D01*
X0377569Y0151524D01*
X0377569Y0145336D01*
X0378838Y0144067D01*
X0388680Y0134225D01*
X0455609Y0134225D01*
X0457136Y0132698D01*
X0457136Y0130756D01*
X0456109Y0129729D01*
X0455536Y0128345D01*
X0455536Y0122073D01*
X0456109Y0120689D01*
X0457169Y0119629D01*
X0458553Y0119056D01*
X0460051Y0119056D01*
X0461434Y0119629D01*
X0462494Y0120689D01*
X0463067Y0122073D01*
X0463067Y0128345D01*
X0462494Y0129729D01*
X0461467Y0130756D01*
X0461467Y0134492D01*
X0460198Y0135760D01*
X0458781Y0137177D01*
X0462499Y0137177D01*
X0467136Y0132540D01*
X0467136Y0130756D01*
X0466109Y0129729D01*
X0465536Y0128345D01*
X0465536Y0122073D01*
X0466109Y0120689D01*
X0467169Y0119629D01*
X0468553Y0119056D01*
X0470051Y0119056D01*
X0471434Y0119629D01*
X0472494Y0120689D01*
X0473067Y0122073D01*
X0473067Y0128345D01*
X0472494Y0129729D01*
X0471467Y0130756D01*
X0471467Y0134334D01*
X0465671Y0140130D01*
X0469389Y0140130D01*
X0477136Y0132383D01*
X0477136Y0130756D01*
X0476109Y0129729D01*
X0475536Y0128345D01*
X0475536Y0122073D01*
X0476109Y0120689D01*
X0477169Y0119629D01*
X0478553Y0119056D01*
X0480051Y0119056D01*
X0481434Y0119629D01*
X0482494Y0120689D01*
X0483067Y0122073D01*
X0483067Y0128345D01*
X0482494Y0129729D01*
X0481467Y0130756D01*
X0481467Y0134177D01*
X0480198Y0135445D01*
X0472758Y0142886D01*
X0477263Y0142886D01*
X0487136Y0133013D01*
X0487136Y0130756D01*
X0486109Y0129729D01*
X0485536Y0128345D01*
X0485536Y0122073D01*
X0486109Y0120689D01*
X0487169Y0119629D01*
X0488553Y0119056D01*
X0490051Y0119056D01*
X0491434Y0119629D01*
X0492494Y0120689D01*
X0493067Y0122073D01*
X0493067Y0128345D01*
X0492494Y0129729D01*
X0491467Y0130756D01*
X0491467Y0134460D01*
X0496277Y0129897D01*
X0496109Y0129729D01*
X0495536Y0128345D01*
X0495536Y0122073D01*
X0496109Y0120689D01*
X0497169Y0119629D01*
X0498553Y0119056D01*
X0500051Y0119056D01*
X0501434Y0119629D01*
X0502494Y0120689D01*
X0502569Y0120871D01*
X0502569Y0106775D01*
X0497136Y0101342D01*
X0497136Y0100756D01*
X0496109Y0099729D01*
X0495536Y0098345D01*
X0495536Y0092073D01*
X0496109Y0090689D01*
X0497169Y0089629D01*
X0498553Y0089056D01*
X0500051Y0089056D01*
X0501434Y0089629D01*
X0502494Y0090689D01*
X0503067Y0092073D01*
X0503067Y0098345D01*
X0502494Y0099729D01*
X0502071Y0100152D01*
X0505632Y0103713D01*
X0506900Y0104981D01*
X0506900Y0119898D01*
X0507169Y0119629D01*
X0508553Y0119056D01*
X0510051Y0119056D01*
X0511434Y0119629D01*
X0512494Y0120689D01*
X0513067Y0122073D01*
X0513067Y0123398D01*
X0531685Y0123398D01*
X0531773Y0123310D01*
X0532749Y0122906D01*
X0533807Y0122906D01*
X0534783Y0123310D01*
X0535531Y0124058D01*
X0535935Y0125035D01*
X0535935Y0126092D01*
X0535531Y0127069D01*
X0534783Y0127816D01*
X0533807Y0128221D01*
X0532749Y0128221D01*
X0531773Y0127816D01*
X0531685Y0127729D01*
X0513067Y0127729D01*
X0513067Y0128345D01*
X0512494Y0129729D01*
X0511434Y0130788D01*
X0510051Y0131362D01*
X0508553Y0131362D01*
X0507169Y0130788D01*
X0506900Y0130520D01*
X0506900Y0131381D01*
X0502471Y0135811D01*
X0502471Y0135934D01*
X0502066Y0136911D01*
X0501319Y0137659D01*
X0500342Y0138063D01*
X0499285Y0138063D01*
X0498308Y0137659D01*
X0497560Y0136911D01*
X0497156Y0135934D01*
X0497156Y0135032D01*
X0481639Y0149752D01*
X0481025Y0150366D01*
X0480992Y0150366D01*
X0480968Y0150389D01*
X0480100Y0150366D01*
X0421970Y0150366D01*
X0421270Y0151066D01*
X0421270Y0151753D01*
X0421277Y0151755D01*
X0422336Y0152815D01*
X0422909Y0154199D01*
X0422909Y0160471D01*
X0422336Y0161855D01*
X0421277Y0162914D01*
X0419893Y0163488D01*
X0418395Y0163488D01*
X0417011Y0162914D01*
X0415952Y0161855D01*
X0415379Y0160471D01*
X0415379Y0154199D01*
X0415952Y0152815D01*
X0416939Y0151827D01*
X0416939Y0149273D01*
X0418208Y0148004D01*
X0418995Y0147217D01*
X0414293Y0147217D01*
X0411428Y0150082D01*
X0411428Y0151906D01*
X0412336Y0152815D01*
X0412909Y0154199D01*
X0412909Y0160471D01*
X0412336Y0161855D01*
X0411309Y0162882D01*
X0411309Y0165948D01*
X0409459Y0167799D01*
X0408191Y0169067D01*
X0375422Y0169067D01*
X0375334Y0169155D01*
X0374358Y0169559D01*
X0373301Y0169559D01*
X0372324Y0169155D01*
X0371172Y0167372D02*
X0309368Y0167372D01*
X0309368Y0165798D02*
X0371410Y0165798D01*
X0373829Y0166902D02*
X0407294Y0166902D01*
X0409144Y0165051D01*
X0409144Y0157335D01*
X0409262Y0157217D01*
X0409262Y0149185D01*
X0413396Y0145051D01*
X0478160Y0145051D01*
X0489302Y0133910D01*
X0489302Y0125209D01*
X0493067Y0124892D02*
X0495536Y0124892D01*
X0495536Y0123319D02*
X0493067Y0123319D01*
X0492932Y0121746D02*
X0495672Y0121746D01*
X0496626Y0120172D02*
X0491977Y0120172D01*
X0486626Y0120172D02*
X0481977Y0120172D01*
X0482932Y0121746D02*
X0485672Y0121746D01*
X0485536Y0123319D02*
X0483067Y0123319D01*
X0483067Y0124892D02*
X0485536Y0124892D01*
X0485536Y0126466D02*
X0483067Y0126466D01*
X0483067Y0128039D02*
X0485536Y0128039D01*
X0486061Y0129612D02*
X0482542Y0129612D01*
X0481467Y0131186D02*
X0487136Y0131186D01*
X0487136Y0132759D02*
X0481467Y0132759D01*
X0481311Y0134332D02*
X0485817Y0134332D01*
X0484243Y0135906D02*
X0479738Y0135906D01*
X0478165Y0137479D02*
X0482670Y0137479D01*
X0481097Y0139052D02*
X0476591Y0139052D01*
X0475018Y0140625D02*
X0479524Y0140625D01*
X0477950Y0142199D02*
X0473445Y0142199D01*
X0470286Y0142296D02*
X0404341Y0142296D01*
X0399420Y0147217D01*
X0399420Y0157059D01*
X0399144Y0157335D01*
X0395379Y0157932D02*
X0392909Y0157932D01*
X0392909Y0159505D02*
X0395379Y0159505D01*
X0395630Y0161079D02*
X0392658Y0161079D01*
X0391540Y0162652D02*
X0396749Y0162652D01*
X0401540Y0162652D02*
X0406749Y0162652D01*
X0406908Y0164225D02*
X0309368Y0164225D01*
X0309368Y0162652D02*
X0376749Y0162652D01*
X0375630Y0161079D02*
X0309368Y0161079D01*
X0309368Y0159505D02*
X0375379Y0159505D01*
X0375379Y0157932D02*
X0309368Y0157932D01*
X0309368Y0156359D02*
X0375379Y0156359D01*
X0375379Y0154785D02*
X0309368Y0154785D01*
X0309368Y0153212D02*
X0375787Y0153212D01*
X0377293Y0151639D02*
X0309368Y0151639D01*
X0309368Y0150065D02*
X0377569Y0150065D01*
X0377569Y0148492D02*
X0309368Y0148492D01*
X0309368Y0146919D02*
X0377569Y0146919D01*
X0377569Y0145345D02*
X0309368Y0145345D01*
X0309368Y0143772D02*
X0379133Y0143772D01*
X0380706Y0142199D02*
X0309368Y0142199D01*
X0309368Y0140625D02*
X0382279Y0140625D01*
X0383853Y0139052D02*
X0309368Y0139052D01*
X0309368Y0137479D02*
X0385426Y0137479D01*
X0386999Y0135906D02*
X0309368Y0135906D01*
X0309368Y0134332D02*
X0388573Y0134332D01*
X0389577Y0136390D02*
X0379735Y0146233D01*
X0379735Y0156744D01*
X0379144Y0157335D01*
X0382909Y0157932D02*
X0385379Y0157932D01*
X0385379Y0159505D02*
X0382909Y0159505D01*
X0382658Y0161079D02*
X0385630Y0161079D01*
X0386749Y0162652D02*
X0381540Y0162652D01*
X0382909Y0156359D02*
X0385379Y0156359D01*
X0385379Y0154785D02*
X0382909Y0154785D01*
X0382501Y0153212D02*
X0385787Y0153212D01*
X0387293Y0151639D02*
X0381900Y0151639D01*
X0381900Y0150065D02*
X0387412Y0150065D01*
X0387412Y0148492D02*
X0381900Y0148492D01*
X0382111Y0146919D02*
X0387412Y0146919D01*
X0387412Y0145345D02*
X0383684Y0145345D01*
X0385257Y0143772D02*
X0388975Y0143772D01*
X0390549Y0142199D02*
X0386831Y0142199D01*
X0388404Y0140625D02*
X0392122Y0140625D01*
X0393695Y0139052D02*
X0389977Y0139052D01*
X0389577Y0136390D02*
X0456506Y0136390D01*
X0459302Y0133595D01*
X0459302Y0125209D01*
X0463067Y0124892D02*
X0465536Y0124892D01*
X0465536Y0123319D02*
X0463067Y0123319D01*
X0462932Y0121746D02*
X0465672Y0121746D01*
X0466626Y0120172D02*
X0461977Y0120172D01*
X0456626Y0120172D02*
X0451977Y0120172D01*
X0451467Y0119662D02*
X0452494Y0120689D01*
X0453067Y0122073D01*
X0453067Y0128345D01*
X0452494Y0129729D01*
X0451434Y0130788D01*
X0450051Y0131362D01*
X0448553Y0131362D01*
X0447169Y0130788D01*
X0446109Y0129729D01*
X0445536Y0128345D01*
X0445536Y0122073D01*
X0446109Y0120689D01*
X0447136Y0119662D01*
X0447136Y0115318D01*
X0445767Y0113949D01*
X0439096Y0113949D01*
X0440198Y0115051D01*
X0441467Y0116320D01*
X0441467Y0119662D01*
X0442494Y0120689D01*
X0443067Y0122073D01*
X0443067Y0128345D01*
X0442494Y0129729D01*
X0441434Y0130788D01*
X0440051Y0131362D01*
X0438553Y0131362D01*
X0437169Y0130788D01*
X0436109Y0129729D01*
X0435536Y0128345D01*
X0435536Y0122073D01*
X0436109Y0120689D01*
X0437136Y0119662D01*
X0437136Y0118114D01*
X0435924Y0116902D01*
X0430238Y0116902D01*
X0431467Y0118131D01*
X0431467Y0119662D01*
X0432494Y0120689D01*
X0433067Y0122073D01*
X0433067Y0128345D01*
X0432494Y0129729D01*
X0431434Y0130788D01*
X0430051Y0131362D01*
X0428553Y0131362D01*
X0427169Y0130788D01*
X0426109Y0129729D01*
X0425536Y0128345D01*
X0425536Y0122073D01*
X0426109Y0120689D01*
X0426944Y0119855D01*
X0421938Y0119855D01*
X0422379Y0120296D01*
X0422813Y0120945D01*
X0423112Y0121666D01*
X0423264Y0122431D01*
X0423264Y0125196D01*
X0419314Y0125196D01*
X0419314Y0125222D01*
X0419289Y0125222D01*
X0419289Y0131559D01*
X0418911Y0131559D01*
X0418146Y0131406D01*
X0417425Y0131108D01*
X0416776Y0130674D01*
X0416224Y0130122D01*
X0415790Y0129473D01*
X0415492Y0128752D01*
X0415339Y0127987D01*
X0415339Y0125222D01*
X0419289Y0125222D01*
X0419289Y0125196D01*
X0415339Y0125196D01*
X0415339Y0122431D01*
X0415492Y0121666D01*
X0415790Y0120945D01*
X0416224Y0120296D01*
X0416665Y0119855D01*
X0405795Y0119855D01*
X0405791Y0119859D01*
X0404850Y0120248D01*
X0403832Y0120248D01*
X0402891Y0119859D01*
X0402171Y0119139D01*
X0401782Y0118198D01*
X0401782Y0117180D01*
X0401897Y0116902D01*
X0395952Y0116902D01*
X0395948Y0116906D01*
X0395007Y0117296D01*
X0393989Y0117296D01*
X0393049Y0116906D01*
X0392329Y0116186D01*
X0391939Y0115246D01*
X0391939Y0114227D01*
X0392055Y0113949D01*
X0386110Y0113949D01*
X0386105Y0113953D01*
X0385165Y0114343D01*
X0384147Y0114343D01*
X0383206Y0113953D01*
X0382486Y0113233D01*
X0382097Y0112293D01*
X0382097Y0111275D01*
X0382486Y0110334D01*
X0383206Y0109614D01*
X0384147Y0109225D01*
X0385165Y0109225D01*
X0386105Y0109614D01*
X0386110Y0109618D01*
X0447561Y0109618D01*
X0448829Y0110887D01*
X0450198Y0112256D01*
X0451467Y0113525D01*
X0451467Y0119662D01*
X0451467Y0118599D02*
X0502569Y0118599D01*
X0502569Y0117026D02*
X0451467Y0117026D01*
X0451467Y0115452D02*
X0502569Y0115452D01*
X0502569Y0113879D02*
X0451467Y0113879D01*
X0450248Y0112306D02*
X0502569Y0112306D01*
X0502569Y0110732D02*
X0448675Y0110732D01*
X0446664Y0111784D02*
X0384656Y0111784D01*
X0382321Y0110732D02*
X0309368Y0110732D01*
X0309368Y0109159D02*
X0502569Y0109159D01*
X0502569Y0107586D02*
X0309368Y0107586D01*
X0309368Y0106013D02*
X0501807Y0106013D01*
X0500233Y0104439D02*
X0309368Y0104439D01*
X0309368Y0102866D02*
X0498660Y0102866D01*
X0497136Y0101293D02*
X0490217Y0101293D01*
X0488386Y0101293D02*
X0480217Y0101293D01*
X0478386Y0101293D02*
X0470217Y0101293D01*
X0468386Y0101293D02*
X0460217Y0101293D01*
X0458386Y0101293D02*
X0450217Y0101293D01*
X0448386Y0101293D02*
X0440217Y0101293D01*
X0438386Y0101293D02*
X0430217Y0101293D01*
X0428386Y0101293D02*
X0420217Y0101293D01*
X0418386Y0101293D02*
X0309368Y0101293D01*
X0309368Y0099719D02*
X0416105Y0099719D01*
X0415536Y0098146D02*
X0309368Y0098146D01*
X0309368Y0096573D02*
X0415536Y0096573D01*
X0415536Y0094999D02*
X0309368Y0094999D01*
X0309368Y0093426D02*
X0415536Y0093426D01*
X0415627Y0091853D02*
X0309368Y0091853D01*
X0309368Y0090279D02*
X0416519Y0090279D01*
X0416939Y0088706D02*
X0309368Y0088706D01*
X0309368Y0087133D02*
X0416939Y0087133D01*
X0416939Y0085559D02*
X0309368Y0085559D01*
X0309368Y0083986D02*
X0418249Y0083986D01*
X0419823Y0082413D02*
X0309368Y0082413D01*
X0309368Y0080840D02*
X0421396Y0080840D01*
X0422235Y0079266D02*
X0309368Y0079266D01*
X0309368Y0077693D02*
X0422235Y0077693D01*
X0422235Y0076120D02*
X0309368Y0076120D01*
X0309368Y0074546D02*
X0422235Y0074546D01*
X0422235Y0072973D02*
X0405755Y0072973D01*
X0419105Y0086193D02*
X0419105Y0095012D01*
X0419302Y0095209D01*
X0423067Y0094999D02*
X0425536Y0094999D01*
X0425536Y0093426D02*
X0423067Y0093426D01*
X0422976Y0091853D02*
X0425627Y0091853D01*
X0426519Y0090279D02*
X0422084Y0090279D01*
X0421270Y0088706D02*
X0426782Y0088706D01*
X0426782Y0087133D02*
X0421270Y0087133D01*
X0422801Y0085559D02*
X0426782Y0085559D01*
X0427108Y0083986D02*
X0424374Y0083986D01*
X0425947Y0082413D02*
X0428681Y0082413D01*
X0430254Y0080840D02*
X0426565Y0080840D01*
X0426565Y0079266D02*
X0431828Y0079266D01*
X0432235Y0077693D02*
X0426565Y0077693D01*
X0426565Y0076120D02*
X0432235Y0076120D01*
X0432235Y0074546D02*
X0426565Y0074546D01*
X0426565Y0072973D02*
X0432235Y0072973D01*
X0436565Y0072973D02*
X0442235Y0072973D01*
X0442235Y0074546D02*
X0436565Y0074546D01*
X0436565Y0076120D02*
X0442235Y0076120D01*
X0442235Y0077693D02*
X0436565Y0077693D01*
X0436565Y0079266D02*
X0442235Y0079266D01*
X0441081Y0080840D02*
X0436379Y0080840D01*
X0434806Y0082413D02*
X0439508Y0082413D01*
X0437935Y0083986D02*
X0433232Y0083986D01*
X0431659Y0085559D02*
X0437609Y0085559D01*
X0437609Y0087133D02*
X0431113Y0087133D01*
X0431113Y0088706D02*
X0437609Y0088706D01*
X0436519Y0090279D02*
X0432084Y0090279D01*
X0432976Y0091853D02*
X0435627Y0091853D01*
X0435536Y0093426D02*
X0433067Y0093426D01*
X0433067Y0094999D02*
X0435536Y0094999D01*
X0435536Y0096573D02*
X0433067Y0096573D01*
X0433067Y0098146D02*
X0435536Y0098146D01*
X0436105Y0099719D02*
X0432498Y0099719D01*
X0429302Y0095209D02*
X0428947Y0094855D01*
X0428947Y0085209D01*
X0434400Y0079756D01*
X0434400Y0057433D01*
X0424400Y0057433D02*
X0424400Y0080898D01*
X0419105Y0086193D01*
X0423067Y0096573D02*
X0425536Y0096573D01*
X0425536Y0098146D02*
X0423067Y0098146D01*
X0422498Y0099719D02*
X0426105Y0099719D01*
X0439302Y0095209D02*
X0439774Y0094736D01*
X0439774Y0085209D01*
X0444400Y0080583D01*
X0444400Y0057433D01*
X0454400Y0057433D02*
X0454400Y0080425D01*
X0449617Y0085209D01*
X0449617Y0094894D01*
X0449302Y0095209D01*
X0453067Y0094999D02*
X0455536Y0094999D01*
X0455536Y0093426D02*
X0453067Y0093426D01*
X0452976Y0091853D02*
X0455627Y0091853D01*
X0456519Y0090279D02*
X0452084Y0090279D01*
X0451782Y0088706D02*
X0457294Y0088706D01*
X0457294Y0087133D02*
X0451782Y0087133D01*
X0452328Y0085559D02*
X0457294Y0085559D01*
X0457620Y0083986D02*
X0453902Y0083986D01*
X0455475Y0082413D02*
X0459193Y0082413D01*
X0460766Y0080840D02*
X0456565Y0080840D01*
X0456565Y0079266D02*
X0462235Y0079266D01*
X0462235Y0077693D02*
X0456565Y0077693D01*
X0456565Y0076120D02*
X0462235Y0076120D01*
X0462235Y0074546D02*
X0456565Y0074546D01*
X0456565Y0072973D02*
X0462235Y0072973D01*
X0466565Y0072973D02*
X0472235Y0072973D01*
X0472235Y0074546D02*
X0466565Y0074546D01*
X0466565Y0076120D02*
X0472235Y0076120D01*
X0472235Y0077693D02*
X0466565Y0077693D01*
X0466565Y0079266D02*
X0472182Y0079266D01*
X0470609Y0080840D02*
X0466565Y0080840D01*
X0465317Y0082413D02*
X0469035Y0082413D01*
X0467462Y0083986D02*
X0463744Y0083986D01*
X0462171Y0085559D02*
X0467136Y0085559D01*
X0467136Y0087133D02*
X0461624Y0087133D01*
X0461624Y0088706D02*
X0467136Y0088706D01*
X0466519Y0090279D02*
X0462084Y0090279D01*
X0462976Y0091853D02*
X0465627Y0091853D01*
X0465536Y0093426D02*
X0463067Y0093426D01*
X0463067Y0094999D02*
X0465536Y0094999D01*
X0465536Y0096573D02*
X0463067Y0096573D01*
X0463067Y0098146D02*
X0465536Y0098146D01*
X0466105Y0099719D02*
X0462498Y0099719D01*
X0459302Y0095209D02*
X0459459Y0095051D01*
X0459459Y0085209D01*
X0464400Y0080268D01*
X0464400Y0057433D01*
X0474400Y0057433D02*
X0474400Y0080110D01*
X0469302Y0085209D01*
X0469302Y0095209D01*
X0473067Y0094999D02*
X0475536Y0094999D01*
X0475536Y0093426D02*
X0473067Y0093426D01*
X0472976Y0091853D02*
X0475627Y0091853D01*
X0476519Y0090279D02*
X0472084Y0090279D01*
X0471467Y0088706D02*
X0476979Y0088706D01*
X0476979Y0087133D02*
X0471467Y0087133D01*
X0472013Y0085559D02*
X0476979Y0085559D01*
X0476979Y0083986D02*
X0473587Y0083986D01*
X0475160Y0082413D02*
X0477894Y0082413D01*
X0476565Y0080840D02*
X0479467Y0080840D01*
X0481040Y0079266D02*
X0476565Y0079266D01*
X0476565Y0077693D02*
X0482235Y0077693D01*
X0482235Y0076120D02*
X0476565Y0076120D01*
X0476565Y0074546D02*
X0482235Y0074546D01*
X0482235Y0072973D02*
X0476565Y0072973D01*
X0484400Y0078969D02*
X0479144Y0084225D01*
X0479144Y0095051D01*
X0479302Y0095209D01*
X0483067Y0094999D02*
X0485536Y0094999D01*
X0485536Y0093426D02*
X0483067Y0093426D01*
X0482976Y0091853D02*
X0485627Y0091853D01*
X0486519Y0090279D02*
X0482084Y0090279D01*
X0481309Y0088706D02*
X0486821Y0088706D01*
X0486821Y0087133D02*
X0481309Y0087133D01*
X0481309Y0085559D02*
X0486821Y0085559D01*
X0486821Y0083986D02*
X0482445Y0083986D01*
X0484018Y0082413D02*
X0487736Y0082413D01*
X0488987Y0084225D02*
X0494400Y0078811D01*
X0494400Y0057433D01*
X0484400Y0057433D02*
X0484400Y0078969D01*
X0486565Y0079266D02*
X0490883Y0079266D01*
X0492235Y0077693D02*
X0486565Y0077693D01*
X0486565Y0076120D02*
X0492235Y0076120D01*
X0492235Y0074546D02*
X0486565Y0074546D01*
X0486565Y0072973D02*
X0492235Y0072973D01*
X0496565Y0072973D02*
X0502235Y0072973D01*
X0502235Y0074546D02*
X0496565Y0074546D01*
X0496565Y0076120D02*
X0502235Y0076120D01*
X0502235Y0077693D02*
X0496565Y0077693D01*
X0496565Y0079266D02*
X0502235Y0079266D01*
X0503208Y0080840D02*
X0495434Y0080840D01*
X0493861Y0082413D02*
X0504934Y0082413D01*
X0506635Y0083986D02*
X0492287Y0083986D01*
X0491152Y0085559D02*
X0508336Y0085559D01*
X0510037Y0087133D02*
X0491152Y0087133D01*
X0491152Y0088706D02*
X0511738Y0088706D01*
X0512084Y0090279D02*
X0513438Y0090279D01*
X0512976Y0091853D02*
X0515066Y0091853D01*
X0517530Y0091114D02*
X0504400Y0078969D01*
X0504400Y0057433D01*
X0514400Y0057433D02*
X0514400Y0077158D01*
X0520483Y0083240D01*
X0521373Y0080840D02*
X0531056Y0080840D01*
X0531025Y0080809D02*
X0530620Y0079832D01*
X0530620Y0078775D01*
X0531025Y0077798D01*
X0531773Y0077051D01*
X0532749Y0076646D01*
X0533807Y0076646D01*
X0534783Y0077051D01*
X0535531Y0077798D01*
X0535935Y0078775D01*
X0535935Y0079832D01*
X0535531Y0080809D01*
X0535443Y0080896D01*
X0535443Y0088537D01*
X0535531Y0088625D01*
X0535935Y0089602D01*
X0535935Y0090659D01*
X0535531Y0091636D01*
X0534783Y0092383D01*
X0533807Y0092788D01*
X0532749Y0092788D01*
X0531773Y0092383D01*
X0531025Y0091636D01*
X0530620Y0090659D01*
X0530620Y0089602D01*
X0531025Y0088625D01*
X0531113Y0088537D01*
X0531113Y0080896D01*
X0531025Y0080809D01*
X0530620Y0079266D02*
X0519571Y0079266D01*
X0517997Y0077693D02*
X0531130Y0077693D01*
X0533278Y0079303D02*
X0533278Y0090130D01*
X0535935Y0090279D02*
X0552766Y0090279D01*
X0552766Y0088706D02*
X0535564Y0088706D01*
X0535443Y0087133D02*
X0552766Y0087133D01*
X0552766Y0085559D02*
X0535443Y0085559D01*
X0535443Y0083986D02*
X0552766Y0083986D01*
X0552766Y0082413D02*
X0535443Y0082413D01*
X0535500Y0080840D02*
X0552766Y0080840D01*
X0552766Y0079266D02*
X0535935Y0079266D01*
X0535426Y0077693D02*
X0552766Y0077693D01*
X0552766Y0076120D02*
X0516565Y0076120D01*
X0516565Y0074546D02*
X0552766Y0074546D01*
X0552766Y0072973D02*
X0516565Y0072973D01*
X0512235Y0072973D02*
X0506565Y0072973D01*
X0506565Y0074546D02*
X0512235Y0074546D01*
X0512235Y0076120D02*
X0506565Y0076120D01*
X0506565Y0077693D02*
X0512235Y0077693D01*
X0513446Y0079266D02*
X0507910Y0079266D01*
X0509611Y0080840D02*
X0515020Y0080840D01*
X0516593Y0082413D02*
X0511312Y0082413D01*
X0513013Y0083986D02*
X0518022Y0083986D01*
X0519394Y0085559D02*
X0514714Y0085559D01*
X0516414Y0087133D02*
X0531113Y0087133D01*
X0531113Y0085559D02*
X0521571Y0085559D01*
X0522944Y0083986D02*
X0531113Y0083986D01*
X0531113Y0082413D02*
X0522910Y0082413D01*
X0518403Y0088706D02*
X0530991Y0088706D01*
X0530620Y0090279D02*
X0519954Y0090279D01*
X0519994Y0091853D02*
X0531242Y0091853D01*
X0532458Y0093426D02*
X0552605Y0093426D01*
X0552274Y0091853D02*
X0535314Y0091853D01*
X0532983Y0094999D02*
X0698920Y0094999D01*
X0698920Y0093426D02*
X0562179Y0093426D01*
X0563161Y0091853D02*
X0698920Y0091853D01*
X0698920Y0090279D02*
X0616394Y0090279D01*
X0616644Y0088706D02*
X0698920Y0088706D01*
X0698920Y0087133D02*
X0616152Y0087133D01*
X0616152Y0085559D02*
X0698920Y0085559D01*
X0698920Y0083986D02*
X0616152Y0083986D01*
X0616152Y0082413D02*
X0698920Y0082413D01*
X0698920Y0080840D02*
X0616152Y0080840D01*
X0616152Y0079266D02*
X0698920Y0079266D01*
X0698920Y0077693D02*
X0616152Y0077693D01*
X0616152Y0076120D02*
X0632774Y0076120D01*
X0632097Y0074546D02*
X0616152Y0074546D01*
X0616152Y0072973D02*
X0632235Y0072973D01*
X0634400Y0074126D02*
X0634656Y0074382D01*
X0634400Y0074126D02*
X0634400Y0057433D01*
X0644400Y0057433D02*
X0644498Y0057532D01*
X0644498Y0074382D01*
X0642617Y0076120D02*
X0636538Y0076120D01*
X0637215Y0074546D02*
X0641939Y0074546D01*
X0642312Y0072973D02*
X0636842Y0072973D01*
X0646685Y0072973D02*
X0663164Y0072973D01*
X0654400Y0075307D02*
X0654341Y0075366D01*
X0647057Y0074546D02*
X0698920Y0074546D01*
X0698920Y0076120D02*
X0646380Y0076120D01*
X0611821Y0076120D02*
X0605469Y0076120D01*
X0606565Y0074546D02*
X0611821Y0074546D01*
X0611821Y0072973D02*
X0606565Y0072973D01*
X0604400Y0074126D02*
X0596270Y0082256D01*
X0569695Y0082256D01*
X0559853Y0092099D01*
X0557526Y0093426D02*
X0557258Y0093426D01*
X0554931Y0092099D02*
X0554931Y0057965D01*
X0554400Y0057433D01*
X0554792Y0057825D01*
X0604400Y0057433D02*
X0604400Y0074126D01*
X0603896Y0077693D02*
X0611821Y0077693D01*
X0611821Y0079266D02*
X0602322Y0079266D01*
X0600749Y0080840D02*
X0611821Y0080840D01*
X0611821Y0082413D02*
X0599176Y0082413D01*
X0597602Y0083986D02*
X0611821Y0083986D01*
X0611821Y0085559D02*
X0569454Y0085559D01*
X0567881Y0087133D02*
X0611821Y0087133D01*
X0611329Y0088706D02*
X0566308Y0088706D01*
X0564734Y0090279D02*
X0611580Y0090279D01*
X0613987Y0089146D02*
X0613987Y0057847D01*
X0614400Y0057433D01*
X0532562Y0096573D02*
X0698920Y0096573D01*
X0698920Y0098146D02*
X0523002Y0098146D01*
X0523002Y0099719D02*
X0698920Y0099719D01*
X0698920Y0101293D02*
X0523002Y0101293D01*
X0523002Y0102866D02*
X0698920Y0102866D01*
X0698920Y0104439D02*
X0522953Y0104439D01*
X0523199Y0106013D02*
X0676883Y0106013D01*
X0678427Y0105599D02*
X0682979Y0105599D01*
X0687376Y0106777D01*
X0691318Y0109053D01*
X0694537Y0112271D01*
X0696812Y0116213D01*
X0697991Y0120610D01*
X0697991Y0125162D01*
X0696812Y0129559D01*
X0694537Y0133501D01*
X0691318Y0136719D01*
X0687376Y0138995D01*
X0682979Y0140173D01*
X0678427Y0140173D01*
X0674030Y0138995D01*
X0670088Y0136719D01*
X0666870Y0133501D01*
X0664594Y0129559D01*
X0663416Y0125162D01*
X0663416Y0120610D01*
X0664594Y0116213D01*
X0666870Y0112271D01*
X0670088Y0109053D01*
X0674030Y0106777D01*
X0678427Y0105599D01*
X0684524Y0106013D02*
X0698920Y0106013D01*
X0698920Y0107586D02*
X0688777Y0107586D01*
X0691424Y0109159D02*
X0698920Y0109159D01*
X0698920Y0110732D02*
X0692998Y0110732D01*
X0694556Y0112306D02*
X0698920Y0112306D01*
X0698920Y0113879D02*
X0695465Y0113879D01*
X0696373Y0115452D02*
X0698920Y0115452D01*
X0698920Y0117026D02*
X0697030Y0117026D01*
X0697452Y0118599D02*
X0698920Y0118599D01*
X0698920Y0120172D02*
X0697873Y0120172D01*
X0697991Y0121746D02*
X0698920Y0121746D01*
X0698920Y0123319D02*
X0697991Y0123319D01*
X0697991Y0124892D02*
X0698920Y0124892D01*
X0698920Y0126466D02*
X0697641Y0126466D01*
X0697220Y0128039D02*
X0698920Y0128039D01*
X0698920Y0129612D02*
X0696782Y0129612D01*
X0695873Y0131186D02*
X0698920Y0131186D01*
X0698920Y0132759D02*
X0694965Y0132759D01*
X0693705Y0134332D02*
X0698920Y0134332D01*
X0698920Y0135906D02*
X0692132Y0135906D01*
X0690003Y0137479D02*
X0698920Y0137479D01*
X0698920Y0139052D02*
X0687164Y0139052D01*
X0698920Y0140625D02*
X0491260Y0140625D01*
X0492919Y0139052D02*
X0674242Y0139052D01*
X0671404Y0137479D02*
X0501499Y0137479D01*
X0502471Y0135906D02*
X0616044Y0135906D01*
X0616556Y0136417D02*
X0615385Y0135246D01*
X0614750Y0133715D01*
X0614750Y0132058D01*
X0615385Y0130527D01*
X0616556Y0129355D01*
X0618087Y0128721D01*
X0625319Y0128721D01*
X0626850Y0129355D01*
X0628022Y0130527D01*
X0628656Y0132058D01*
X0628656Y0133715D01*
X0628022Y0135246D01*
X0626850Y0136417D01*
X0625319Y0137051D01*
X0618087Y0137051D01*
X0616556Y0136417D01*
X0615006Y0134332D02*
X0503949Y0134332D01*
X0505523Y0132759D02*
X0614750Y0132759D01*
X0615112Y0131186D02*
X0510476Y0131186D01*
X0508127Y0131186D02*
X0506900Y0131186D01*
X0504735Y0130485D02*
X0499813Y0135406D01*
X0498128Y0137479D02*
X0494577Y0137479D01*
X0496235Y0135906D02*
X0497156Y0135906D01*
X0493260Y0132759D02*
X0491467Y0132759D01*
X0491467Y0134332D02*
X0491601Y0134332D01*
X0491467Y0131186D02*
X0494918Y0131186D01*
X0496061Y0129612D02*
X0492542Y0129612D01*
X0493067Y0128039D02*
X0495536Y0128039D01*
X0495536Y0126466D02*
X0493067Y0126466D01*
X0499302Y0125209D02*
X0499302Y0130012D01*
X0480128Y0148201D01*
X0421073Y0148201D01*
X0419105Y0150170D01*
X0419105Y0157296D01*
X0419144Y0157335D01*
X0415379Y0157932D02*
X0412909Y0157932D01*
X0412909Y0159505D02*
X0415379Y0159505D01*
X0415630Y0161079D02*
X0412658Y0161079D01*
X0411540Y0162652D02*
X0416749Y0162652D01*
X0421540Y0162652D02*
X0426470Y0162652D01*
X0426618Y0162800D02*
X0426066Y0162248D01*
X0425633Y0161599D01*
X0425334Y0160878D01*
X0425182Y0160113D01*
X0425182Y0157348D01*
X0429131Y0157348D01*
X0429131Y0163684D01*
X0428754Y0163684D01*
X0427988Y0163532D01*
X0427267Y0163234D01*
X0426618Y0162800D01*
X0425417Y0161079D02*
X0422658Y0161079D01*
X0422909Y0159505D02*
X0425182Y0159505D01*
X0425182Y0157932D02*
X0422909Y0157932D01*
X0422909Y0156359D02*
X0425182Y0156359D01*
X0425182Y0157322D02*
X0425182Y0154557D01*
X0425334Y0153792D01*
X0425633Y0153071D01*
X0426066Y0152422D01*
X0426618Y0151870D01*
X0427267Y0151436D01*
X0427988Y0151138D01*
X0428754Y0150985D01*
X0429131Y0150985D01*
X0429131Y0157322D01*
X0425182Y0157322D01*
X0425182Y0154785D02*
X0422909Y0154785D01*
X0422501Y0153212D02*
X0425574Y0153212D01*
X0426964Y0151639D02*
X0421270Y0151639D01*
X0416939Y0151639D02*
X0411428Y0151639D01*
X0411444Y0150065D02*
X0416939Y0150065D01*
X0417720Y0148492D02*
X0413018Y0148492D01*
X0410040Y0145345D02*
X0404353Y0145345D01*
X0402780Y0146919D02*
X0408467Y0146919D01*
X0407097Y0148492D02*
X0401585Y0148492D01*
X0401585Y0150065D02*
X0407097Y0150065D01*
X0407097Y0151639D02*
X0401585Y0151639D01*
X0402501Y0153212D02*
X0405787Y0153212D01*
X0405379Y0154785D02*
X0402909Y0154785D01*
X0402909Y0156359D02*
X0405379Y0156359D01*
X0405379Y0157932D02*
X0402909Y0157932D01*
X0402909Y0159505D02*
X0405379Y0159505D01*
X0405630Y0161079D02*
X0402658Y0161079D01*
X0395379Y0156359D02*
X0392909Y0156359D01*
X0392909Y0154785D02*
X0395379Y0154785D01*
X0395787Y0153212D02*
X0392501Y0153212D01*
X0391743Y0151639D02*
X0397254Y0151639D01*
X0397254Y0150065D02*
X0391743Y0150065D01*
X0391743Y0148492D02*
X0397254Y0148492D01*
X0397254Y0146919D02*
X0391953Y0146919D01*
X0393527Y0145345D02*
X0398229Y0145345D01*
X0399802Y0143772D02*
X0395100Y0143772D01*
X0396673Y0142199D02*
X0401375Y0142199D01*
X0396467Y0139343D02*
X0389577Y0146233D01*
X0389577Y0156902D01*
X0389144Y0157335D01*
X0408313Y0168945D02*
X0497097Y0168945D01*
X0497097Y0169116D02*
X0497097Y0167088D01*
X0497204Y0166688D01*
X0497411Y0166329D01*
X0497705Y0166035D01*
X0498031Y0165847D01*
X0497294Y0165110D01*
X0497294Y0159835D01*
X0497628Y0159500D01*
X0492909Y0159500D01*
X0492909Y0160471D01*
X0492336Y0161855D01*
X0491277Y0162914D01*
X0489893Y0163488D01*
X0488395Y0163488D01*
X0487011Y0162914D01*
X0485952Y0161855D01*
X0485379Y0160471D01*
X0485379Y0154199D01*
X0485952Y0152815D01*
X0487011Y0151755D01*
X0488395Y0151182D01*
X0489893Y0151182D01*
X0491277Y0151755D01*
X0492336Y0152815D01*
X0492909Y0154199D01*
X0492909Y0155170D01*
X0528457Y0155170D01*
X0528820Y0154806D01*
X0529797Y0154402D01*
X0530854Y0154402D01*
X0531831Y0154806D01*
X0532578Y0155554D01*
X0532983Y0156531D01*
X0532983Y0157588D01*
X0532578Y0158565D01*
X0531831Y0159312D01*
X0530854Y0159717D01*
X0529797Y0159717D01*
X0529274Y0159500D01*
X0503967Y0159500D01*
X0504302Y0159835D01*
X0504302Y0165110D01*
X0503565Y0165847D01*
X0503891Y0166035D01*
X0504184Y0166329D01*
X0504391Y0166688D01*
X0504498Y0167088D01*
X0504498Y0169116D01*
X0501044Y0169116D01*
X0501044Y0169609D01*
X0500552Y0169609D01*
X0500551Y0169609D02*
X0500551Y0169116D01*
X0497097Y0169116D01*
X0497097Y0167372D02*
X0409886Y0167372D01*
X0411309Y0165798D02*
X0497982Y0165798D01*
X0497294Y0164225D02*
X0411309Y0164225D01*
X0412909Y0156359D02*
X0415379Y0156359D01*
X0415379Y0154785D02*
X0412909Y0154785D01*
X0412501Y0153212D02*
X0415787Y0153212D01*
X0429131Y0153212D02*
X0429157Y0153212D01*
X0429131Y0154785D02*
X0429157Y0154785D01*
X0429131Y0156359D02*
X0429157Y0156359D01*
X0429157Y0157322D02*
X0429157Y0150985D01*
X0429534Y0150985D01*
X0430300Y0151138D01*
X0431021Y0151436D01*
X0431670Y0151870D01*
X0432222Y0152422D01*
X0432655Y0153071D01*
X0432954Y0153792D01*
X0433106Y0154557D01*
X0433106Y0157322D01*
X0429157Y0157322D01*
X0429157Y0157348D01*
X0429131Y0157348D01*
X0429131Y0157322D01*
X0429157Y0157322D01*
X0429157Y0157348D02*
X0433106Y0157348D01*
X0433106Y0160113D01*
X0432954Y0160878D01*
X0432655Y0161599D01*
X0432222Y0162248D01*
X0431670Y0162800D01*
X0431021Y0163234D01*
X0430300Y0163532D01*
X0429534Y0163684D01*
X0429157Y0163684D01*
X0429157Y0157348D01*
X0429131Y0157932D02*
X0429157Y0157932D01*
X0429131Y0159505D02*
X0429157Y0159505D01*
X0429131Y0161079D02*
X0429157Y0161079D01*
X0429131Y0162652D02*
X0429157Y0162652D01*
X0431818Y0162652D02*
X0436749Y0162652D01*
X0437011Y0162914D02*
X0435952Y0161855D01*
X0435379Y0160471D01*
X0435379Y0154199D01*
X0435952Y0152815D01*
X0437011Y0151755D01*
X0438395Y0151182D01*
X0439893Y0151182D01*
X0441277Y0151755D01*
X0442336Y0152815D01*
X0442909Y0154199D01*
X0442909Y0160471D01*
X0442336Y0161855D01*
X0441277Y0162914D01*
X0439893Y0163488D01*
X0438395Y0163488D01*
X0437011Y0162914D01*
X0435630Y0161079D02*
X0432871Y0161079D01*
X0433106Y0159505D02*
X0435379Y0159505D01*
X0435379Y0157932D02*
X0433106Y0157932D01*
X0433106Y0156359D02*
X0435379Y0156359D01*
X0435379Y0154785D02*
X0433106Y0154785D01*
X0432714Y0153212D02*
X0435787Y0153212D01*
X0437293Y0151639D02*
X0431324Y0151639D01*
X0429157Y0151639D02*
X0429131Y0151639D01*
X0440995Y0151639D02*
X0447293Y0151639D01*
X0447011Y0151755D02*
X0448395Y0151182D01*
X0449893Y0151182D01*
X0451277Y0151755D01*
X0452336Y0152815D01*
X0452909Y0154199D01*
X0452909Y0160471D01*
X0452336Y0161855D01*
X0451277Y0162914D01*
X0449893Y0163488D01*
X0448395Y0163488D01*
X0447011Y0162914D01*
X0445952Y0161855D01*
X0445379Y0160471D01*
X0445379Y0154199D01*
X0445952Y0152815D01*
X0447011Y0151755D01*
X0445787Y0153212D02*
X0442501Y0153212D01*
X0442909Y0154785D02*
X0445379Y0154785D01*
X0445379Y0156359D02*
X0442909Y0156359D01*
X0442909Y0157932D02*
X0445379Y0157932D01*
X0445379Y0159505D02*
X0442909Y0159505D01*
X0442658Y0161079D02*
X0445630Y0161079D01*
X0446749Y0162652D02*
X0441540Y0162652D01*
X0451540Y0162652D02*
X0456749Y0162652D01*
X0457011Y0162914D02*
X0455952Y0161855D01*
X0455379Y0160471D01*
X0455379Y0154199D01*
X0455952Y0152815D01*
X0457011Y0151755D01*
X0458395Y0151182D01*
X0459893Y0151182D01*
X0461277Y0151755D01*
X0462336Y0152815D01*
X0462909Y0154199D01*
X0462909Y0160471D01*
X0462336Y0161855D01*
X0461277Y0162914D01*
X0459893Y0163488D01*
X0458395Y0163488D01*
X0457011Y0162914D01*
X0455630Y0161079D02*
X0452658Y0161079D01*
X0452909Y0159505D02*
X0455379Y0159505D01*
X0455379Y0157932D02*
X0452909Y0157932D01*
X0452909Y0156359D02*
X0455379Y0156359D01*
X0455379Y0154785D02*
X0452909Y0154785D01*
X0452501Y0153212D02*
X0455787Y0153212D01*
X0457293Y0151639D02*
X0450995Y0151639D01*
X0460995Y0151639D02*
X0467293Y0151639D01*
X0467011Y0151755D02*
X0468395Y0151182D01*
X0469893Y0151182D01*
X0471277Y0151755D01*
X0472336Y0152815D01*
X0472909Y0154199D01*
X0472909Y0160471D01*
X0472336Y0161855D01*
X0471277Y0162914D01*
X0469893Y0163488D01*
X0468395Y0163488D01*
X0467011Y0162914D01*
X0465952Y0161855D01*
X0465379Y0160471D01*
X0465379Y0154199D01*
X0465952Y0152815D01*
X0467011Y0151755D01*
X0465787Y0153212D02*
X0462501Y0153212D01*
X0462909Y0154785D02*
X0465379Y0154785D01*
X0465379Y0156359D02*
X0462909Y0156359D01*
X0462909Y0157932D02*
X0465379Y0157932D01*
X0465379Y0159505D02*
X0462909Y0159505D01*
X0462658Y0161079D02*
X0465630Y0161079D01*
X0466749Y0162652D02*
X0461540Y0162652D01*
X0471540Y0162652D02*
X0476749Y0162652D01*
X0477011Y0162914D02*
X0475952Y0161855D01*
X0475379Y0160471D01*
X0475379Y0154199D01*
X0475952Y0152815D01*
X0477011Y0151755D01*
X0478395Y0151182D01*
X0479893Y0151182D01*
X0481277Y0151755D01*
X0482336Y0152815D01*
X0482909Y0154199D01*
X0482909Y0160471D01*
X0482336Y0161855D01*
X0481277Y0162914D01*
X0479893Y0163488D01*
X0478395Y0163488D01*
X0477011Y0162914D01*
X0475630Y0161079D02*
X0472658Y0161079D01*
X0472909Y0159505D02*
X0475379Y0159505D01*
X0475379Y0157932D02*
X0472909Y0157932D01*
X0472909Y0156359D02*
X0475379Y0156359D01*
X0475379Y0154785D02*
X0472909Y0154785D01*
X0472501Y0153212D02*
X0475787Y0153212D01*
X0477293Y0151639D02*
X0470995Y0151639D01*
X0480995Y0151639D02*
X0487293Y0151639D01*
X0485787Y0153212D02*
X0482501Y0153212D01*
X0482909Y0154785D02*
X0485379Y0154785D01*
X0485379Y0156359D02*
X0482909Y0156359D01*
X0482909Y0157932D02*
X0485379Y0157932D01*
X0485379Y0159505D02*
X0482909Y0159505D01*
X0482658Y0161079D02*
X0485630Y0161079D01*
X0486749Y0162652D02*
X0481540Y0162652D01*
X0489144Y0157335D02*
X0500969Y0157335D01*
X0500798Y0157506D01*
X0500798Y0162473D01*
X0504302Y0162652D02*
X0698920Y0162652D01*
X0698920Y0164225D02*
X0504302Y0164225D01*
X0503613Y0165798D02*
X0698920Y0165798D01*
X0698920Y0167372D02*
X0504498Y0167372D01*
X0504498Y0168945D02*
X0698920Y0168945D01*
X0698920Y0170518D02*
X0504498Y0170518D01*
X0504498Y0169609D02*
X0504498Y0171637D01*
X0504391Y0172037D01*
X0504184Y0172396D01*
X0503891Y0172690D01*
X0503531Y0172897D01*
X0503131Y0173004D01*
X0501044Y0173004D01*
X0501044Y0169609D01*
X0504498Y0169609D01*
X0504360Y0172092D02*
X0698920Y0172092D01*
X0698920Y0161079D02*
X0504302Y0161079D01*
X0503972Y0159505D02*
X0529286Y0159505D01*
X0531365Y0159505D02*
X0698920Y0159505D01*
X0698920Y0157932D02*
X0532840Y0157932D01*
X0532911Y0156359D02*
X0698920Y0156359D01*
X0698920Y0154785D02*
X0531780Y0154785D01*
X0530325Y0157059D02*
X0530050Y0157335D01*
X0500969Y0157335D01*
X0497623Y0159505D02*
X0492909Y0159505D01*
X0492658Y0161079D02*
X0497294Y0161079D01*
X0497294Y0162652D02*
X0491540Y0162652D01*
X0492909Y0154785D02*
X0528871Y0154785D01*
X0501044Y0170518D02*
X0500552Y0170518D01*
X0500552Y0172092D02*
X0501044Y0172092D01*
X0492501Y0153212D02*
X0698920Y0153212D01*
X0698920Y0151639D02*
X0490995Y0151639D01*
X0484626Y0146919D02*
X0698920Y0146919D01*
X0698920Y0148492D02*
X0482968Y0148492D01*
X0481326Y0150065D02*
X0698920Y0150065D01*
X0698920Y0145345D02*
X0486285Y0145345D01*
X0487943Y0143772D02*
X0698920Y0143772D01*
X0698920Y0142199D02*
X0489602Y0142199D01*
X0479302Y0133280D02*
X0479302Y0125209D01*
X0475536Y0124892D02*
X0473067Y0124892D01*
X0473067Y0123319D02*
X0475536Y0123319D01*
X0475672Y0121746D02*
X0472932Y0121746D01*
X0471977Y0120172D02*
X0476626Y0120172D01*
X0475536Y0126466D02*
X0473067Y0126466D01*
X0473067Y0128039D02*
X0475536Y0128039D01*
X0476061Y0129612D02*
X0472542Y0129612D01*
X0471467Y0131186D02*
X0477136Y0131186D01*
X0476760Y0132759D02*
X0471467Y0132759D01*
X0471467Y0134332D02*
X0475187Y0134332D01*
X0473614Y0135906D02*
X0469896Y0135906D01*
X0468322Y0137479D02*
X0472040Y0137479D01*
X0470467Y0139052D02*
X0466749Y0139052D01*
X0463396Y0139343D02*
X0396467Y0139343D01*
X0415883Y0129612D02*
X0309368Y0129612D01*
X0309368Y0128039D02*
X0415350Y0128039D01*
X0415339Y0126466D02*
X0309368Y0126466D01*
X0309368Y0124892D02*
X0415339Y0124892D01*
X0415339Y0123319D02*
X0309368Y0123319D01*
X0309368Y0121746D02*
X0415476Y0121746D01*
X0416347Y0120172D02*
X0405033Y0120172D01*
X0403649Y0120172D02*
X0309368Y0120172D01*
X0309368Y0118599D02*
X0401948Y0118599D01*
X0401846Y0117026D02*
X0395659Y0117026D01*
X0393338Y0117026D02*
X0309368Y0117026D01*
X0309368Y0115452D02*
X0392025Y0115452D01*
X0394498Y0114736D02*
X0436821Y0114736D01*
X0439302Y0117217D01*
X0439302Y0125209D01*
X0443067Y0124892D02*
X0445536Y0124892D01*
X0445536Y0123319D02*
X0443067Y0123319D01*
X0442932Y0121746D02*
X0445672Y0121746D01*
X0446626Y0120172D02*
X0441977Y0120172D01*
X0441467Y0118599D02*
X0447136Y0118599D01*
X0447136Y0117026D02*
X0441467Y0117026D01*
X0440599Y0115452D02*
X0447136Y0115452D01*
X0449302Y0114422D02*
X0449302Y0125209D01*
X0453067Y0124892D02*
X0455536Y0124892D01*
X0455536Y0123319D02*
X0453067Y0123319D01*
X0452932Y0121746D02*
X0455672Y0121746D01*
X0455536Y0126466D02*
X0453067Y0126466D01*
X0453067Y0128039D02*
X0455536Y0128039D01*
X0456061Y0129612D02*
X0452542Y0129612D01*
X0450476Y0131186D02*
X0457136Y0131186D01*
X0457075Y0132759D02*
X0309368Y0132759D01*
X0309368Y0131186D02*
X0417613Y0131186D01*
X0419289Y0131186D02*
X0419314Y0131186D01*
X0419314Y0131559D02*
X0419314Y0125222D01*
X0423264Y0125222D01*
X0423264Y0127987D01*
X0423112Y0128752D01*
X0422813Y0129473D01*
X0422379Y0130122D01*
X0421827Y0130674D01*
X0421178Y0131108D01*
X0420457Y0131406D01*
X0419692Y0131559D01*
X0419314Y0131559D01*
X0420990Y0131186D02*
X0428127Y0131186D01*
X0430476Y0131186D02*
X0438127Y0131186D01*
X0440476Y0131186D02*
X0448127Y0131186D01*
X0446061Y0129612D02*
X0442542Y0129612D01*
X0443067Y0128039D02*
X0445536Y0128039D01*
X0445536Y0126466D02*
X0443067Y0126466D01*
X0435536Y0126466D02*
X0433067Y0126466D01*
X0433067Y0128039D02*
X0435536Y0128039D01*
X0436061Y0129612D02*
X0432542Y0129612D01*
X0429302Y0125209D02*
X0429302Y0119028D01*
X0427963Y0117689D01*
X0404341Y0117689D01*
X0422256Y0120172D02*
X0426626Y0120172D01*
X0425672Y0121746D02*
X0423127Y0121746D01*
X0423264Y0123319D02*
X0425536Y0123319D01*
X0425536Y0124892D02*
X0423264Y0124892D01*
X0423264Y0126466D02*
X0425536Y0126466D01*
X0425536Y0128039D02*
X0423253Y0128039D01*
X0422720Y0129612D02*
X0426061Y0129612D01*
X0419314Y0129612D02*
X0419289Y0129612D01*
X0419289Y0128039D02*
X0419314Y0128039D01*
X0419289Y0126466D02*
X0419314Y0126466D01*
X0433067Y0124892D02*
X0435536Y0124892D01*
X0435536Y0123319D02*
X0433067Y0123319D01*
X0432932Y0121746D02*
X0435672Y0121746D01*
X0436626Y0120172D02*
X0431977Y0120172D01*
X0431467Y0118599D02*
X0437136Y0118599D01*
X0436048Y0117026D02*
X0430362Y0117026D01*
X0446664Y0111784D02*
X0449302Y0114422D01*
X0452498Y0099719D02*
X0456105Y0099719D01*
X0455536Y0098146D02*
X0453067Y0098146D01*
X0453067Y0096573D02*
X0455536Y0096573D01*
X0446105Y0099719D02*
X0442498Y0099719D01*
X0443067Y0098146D02*
X0445536Y0098146D01*
X0445536Y0096573D02*
X0443067Y0096573D01*
X0443067Y0094999D02*
X0445536Y0094999D01*
X0445536Y0093426D02*
X0443067Y0093426D01*
X0442976Y0091853D02*
X0445627Y0091853D01*
X0446519Y0090279D02*
X0442084Y0090279D01*
X0441939Y0088706D02*
X0447451Y0088706D01*
X0447451Y0087133D02*
X0441939Y0087133D01*
X0442486Y0085559D02*
X0447451Y0085559D01*
X0447777Y0083986D02*
X0444059Y0083986D01*
X0445632Y0082413D02*
X0449350Y0082413D01*
X0450924Y0080840D02*
X0446565Y0080840D01*
X0446565Y0079266D02*
X0452235Y0079266D01*
X0452235Y0077693D02*
X0446565Y0077693D01*
X0446565Y0076120D02*
X0452235Y0076120D01*
X0452235Y0074546D02*
X0446565Y0074546D01*
X0446565Y0072973D02*
X0452235Y0072973D01*
X0485592Y0080840D02*
X0489309Y0080840D01*
X0488987Y0084225D02*
X0488987Y0094894D01*
X0489302Y0095209D01*
X0493067Y0094999D02*
X0495536Y0094999D01*
X0495536Y0093426D02*
X0493067Y0093426D01*
X0492976Y0091853D02*
X0495627Y0091853D01*
X0496519Y0090279D02*
X0492084Y0090279D01*
X0493067Y0096573D02*
X0495536Y0096573D01*
X0495536Y0098146D02*
X0493067Y0098146D01*
X0492498Y0099719D02*
X0496105Y0099719D01*
X0499302Y0100445D02*
X0504735Y0105878D01*
X0504735Y0130485D01*
X0509656Y0125563D02*
X0533278Y0125563D01*
X0534245Y0128039D02*
X0664187Y0128039D01*
X0663765Y0126466D02*
X0626733Y0126466D01*
X0626850Y0126417D02*
X0625319Y0127051D01*
X0618087Y0127051D01*
X0616556Y0126417D01*
X0615385Y0125246D01*
X0614750Y0123715D01*
X0614750Y0122058D01*
X0615385Y0120527D01*
X0616556Y0119355D01*
X0618087Y0118721D01*
X0625319Y0118721D01*
X0626850Y0119355D01*
X0628022Y0120527D01*
X0628656Y0122058D01*
X0628656Y0123715D01*
X0628022Y0125246D01*
X0626850Y0126417D01*
X0628168Y0124892D02*
X0663416Y0124892D01*
X0663416Y0123319D02*
X0628656Y0123319D01*
X0628527Y0121746D02*
X0663416Y0121746D01*
X0663533Y0120172D02*
X0627668Y0120172D01*
X0626850Y0116417D02*
X0625319Y0117051D01*
X0618087Y0117051D01*
X0616556Y0116417D01*
X0615385Y0115246D01*
X0614750Y0113715D01*
X0614750Y0112058D01*
X0615385Y0110527D01*
X0616556Y0109355D01*
X0618087Y0108721D01*
X0625319Y0108721D01*
X0626850Y0109355D01*
X0628022Y0110527D01*
X0628656Y0112058D01*
X0628656Y0113715D01*
X0628022Y0115246D01*
X0626850Y0116417D01*
X0627815Y0115452D02*
X0665033Y0115452D01*
X0664376Y0117026D02*
X0625381Y0117026D01*
X0628588Y0113879D02*
X0665942Y0113879D01*
X0666850Y0112306D02*
X0628656Y0112306D01*
X0628107Y0110732D02*
X0668409Y0110732D01*
X0669982Y0109159D02*
X0626378Y0109159D01*
X0617029Y0109159D02*
X0523199Y0109159D01*
X0522503Y0110732D02*
X0615299Y0110732D01*
X0614750Y0112306D02*
X0506900Y0112306D01*
X0506900Y0113879D02*
X0614819Y0113879D01*
X0615591Y0115452D02*
X0506900Y0115452D01*
X0506900Y0117026D02*
X0618025Y0117026D01*
X0615739Y0120172D02*
X0612716Y0120172D01*
X0612697Y0120124D02*
X0613386Y0121789D01*
X0613386Y0123590D01*
X0612697Y0125254D01*
X0611423Y0126528D01*
X0609759Y0127217D01*
X0607957Y0127217D01*
X0606293Y0126528D01*
X0605019Y0125254D01*
X0604330Y0123590D01*
X0604330Y0121789D01*
X0605019Y0120124D01*
X0606293Y0118851D01*
X0607957Y0118161D01*
X0609759Y0118161D01*
X0611423Y0118851D01*
X0612697Y0120124D01*
X0613368Y0121746D02*
X0614880Y0121746D01*
X0614750Y0123319D02*
X0613386Y0123319D01*
X0612846Y0124892D02*
X0615238Y0124892D01*
X0616673Y0126466D02*
X0611485Y0126466D01*
X0606231Y0126466D02*
X0601763Y0126466D01*
X0600815Y0127414D02*
X0603583Y0124646D01*
X0603583Y0122702D01*
X0598871Y0122702D01*
X0598871Y0122677D01*
X0603583Y0122677D01*
X0603583Y0120732D01*
X0600815Y0117964D01*
X0598871Y0117964D01*
X0598871Y0122677D01*
X0598845Y0122677D01*
X0594133Y0122677D01*
X0594133Y0120732D01*
X0596901Y0117964D01*
X0598845Y0117964D01*
X0598845Y0122677D01*
X0598845Y0122702D01*
X0594133Y0122702D01*
X0594133Y0124646D01*
X0596901Y0127414D01*
X0598845Y0127414D01*
X0598845Y0122702D01*
X0598871Y0122702D01*
X0598871Y0127414D01*
X0600815Y0127414D01*
X0598871Y0126466D02*
X0598845Y0126466D01*
X0598845Y0124892D02*
X0598871Y0124892D01*
X0598845Y0123319D02*
X0598871Y0123319D01*
X0598845Y0121746D02*
X0598871Y0121746D01*
X0598845Y0120172D02*
X0598871Y0120172D01*
X0598845Y0118599D02*
X0598871Y0118599D01*
X0601450Y0118599D02*
X0606900Y0118599D01*
X0604999Y0120172D02*
X0603023Y0120172D01*
X0603583Y0121746D02*
X0604348Y0121746D01*
X0604330Y0123319D02*
X0603583Y0123319D01*
X0603337Y0124892D02*
X0604869Y0124892D01*
X0610815Y0118599D02*
X0663955Y0118599D01*
X0664625Y0129612D02*
X0627107Y0129612D01*
X0628295Y0131186D02*
X0665533Y0131186D01*
X0666441Y0132759D02*
X0628656Y0132759D01*
X0628400Y0134332D02*
X0667701Y0134332D01*
X0669275Y0135906D02*
X0627362Y0135906D01*
X0616299Y0129612D02*
X0512542Y0129612D01*
X0513067Y0128039D02*
X0532310Y0128039D01*
X0535781Y0126466D02*
X0595952Y0126466D01*
X0594379Y0124892D02*
X0535876Y0124892D01*
X0534792Y0123319D02*
X0594133Y0123319D01*
X0594133Y0121746D02*
X0512932Y0121746D01*
X0513067Y0123319D02*
X0531764Y0123319D01*
X0511977Y0120172D02*
X0594693Y0120172D01*
X0596266Y0118599D02*
X0506900Y0118599D01*
X0502569Y0120172D02*
X0501977Y0120172D01*
X0509302Y0125209D02*
X0509656Y0125563D01*
X0506900Y0110732D02*
X0516494Y0110732D01*
X0515798Y0109159D02*
X0506900Y0109159D01*
X0506900Y0107586D02*
X0519252Y0107586D01*
X0519745Y0107586D02*
X0672629Y0107586D01*
X0530325Y0095051D02*
X0530168Y0095209D01*
X0518938Y0095209D01*
X0519498Y0095769D01*
X0519498Y0100465D01*
X0515994Y0099719D02*
X0512498Y0099719D01*
X0513067Y0098146D02*
X0515994Y0098146D01*
X0515994Y0101293D02*
X0510217Y0101293D01*
X0508386Y0101293D02*
X0503211Y0101293D01*
X0502498Y0099719D02*
X0506105Y0099719D01*
X0505536Y0098146D02*
X0503067Y0098146D01*
X0503067Y0096573D02*
X0505536Y0096573D01*
X0505536Y0094999D02*
X0503067Y0094999D01*
X0503067Y0093426D02*
X0505536Y0093426D01*
X0505627Y0091853D02*
X0502976Y0091853D01*
X0502084Y0090279D02*
X0506519Y0090279D01*
X0509302Y0095209D02*
X0518938Y0095209D01*
X0515994Y0102866D02*
X0504785Y0102866D01*
X0506358Y0104439D02*
X0516044Y0104439D01*
X0515798Y0106013D02*
X0506900Y0106013D01*
X0499302Y0100445D02*
X0499302Y0095209D01*
X0485536Y0096573D02*
X0483067Y0096573D01*
X0483067Y0098146D02*
X0485536Y0098146D01*
X0486105Y0099719D02*
X0482498Y0099719D01*
X0476105Y0099719D02*
X0472498Y0099719D01*
X0473067Y0098146D02*
X0475536Y0098146D01*
X0475536Y0096573D02*
X0473067Y0096573D01*
X0519252Y0109159D02*
X0519744Y0109159D01*
X0519744Y0110732D02*
X0519252Y0110732D01*
X0479302Y0133280D02*
X0470286Y0142296D01*
X0463396Y0139343D02*
X0469302Y0133437D01*
X0469302Y0125209D01*
X0465536Y0126466D02*
X0463067Y0126466D01*
X0463067Y0128039D02*
X0465536Y0128039D01*
X0466061Y0129612D02*
X0462542Y0129612D01*
X0461467Y0131186D02*
X0467136Y0131186D01*
X0466918Y0132759D02*
X0461467Y0132759D01*
X0461467Y0134332D02*
X0465344Y0134332D01*
X0463771Y0135906D02*
X0460053Y0135906D01*
X0460198Y0135760D02*
X0460198Y0135760D01*
X0411526Y0175238D02*
X0309368Y0175238D01*
X0309368Y0176812D02*
X0412461Y0176812D01*
X0490478Y0211425D02*
X0698920Y0211425D01*
X0698920Y0212998D02*
X0492412Y0212998D01*
X0492909Y0214571D02*
X0698920Y0214571D01*
X0698920Y0216145D02*
X0492909Y0216145D01*
X0492909Y0217718D02*
X0698920Y0217718D01*
X0698920Y0219291D02*
X0492909Y0219291D01*
X0492747Y0220864D02*
X0698920Y0220864D01*
X0698920Y0222438D02*
X0491754Y0222438D01*
X0489119Y0224011D02*
X0698920Y0224011D01*
X0698920Y0225584D02*
X0561145Y0225584D01*
X0558560Y0225584D02*
X0490692Y0225584D01*
X0498987Y0232847D02*
X0509302Y0232847D01*
X0511777Y0231878D02*
X0542011Y0231878D01*
X0540438Y0233451D02*
X0511928Y0233451D01*
X0510882Y0235024D02*
X0538865Y0235024D01*
X0537292Y0236598D02*
X0503096Y0236598D01*
X0503152Y0235024D02*
X0507721Y0235024D01*
X0502340Y0238171D02*
X0530521Y0238171D01*
X0532098Y0238171D02*
X0535718Y0238171D01*
X0534145Y0239744D02*
X0533781Y0239744D01*
X0531309Y0240721D02*
X0528357Y0243673D01*
X0496861Y0243673D01*
X0498117Y0241318D02*
X0527650Y0241318D01*
X0528837Y0239744D02*
X0499948Y0239744D01*
X0485633Y0238171D02*
X0482340Y0238171D01*
X0483096Y0236598D02*
X0484877Y0236598D01*
X0484821Y0235024D02*
X0483152Y0235024D01*
X0459459Y0249579D02*
X0517530Y0249579D01*
X0519812Y0250757D02*
X0528053Y0250757D01*
X0529626Y0249184D02*
X0520089Y0249184D01*
X0526480Y0252331D02*
X0459770Y0252331D01*
X0458987Y0253904D02*
X0524906Y0253904D01*
X0534915Y0260197D02*
X0541251Y0260197D01*
X0542824Y0258624D02*
X0536453Y0258624D01*
X0537992Y0257051D02*
X0544397Y0257051D01*
X0545971Y0255477D02*
X0539530Y0255477D01*
X0541068Y0253904D02*
X0547544Y0253904D01*
X0549117Y0252331D02*
X0542606Y0252331D01*
X0544144Y0250757D02*
X0549813Y0250757D01*
X0549813Y0249184D02*
X0545682Y0249184D01*
X0547221Y0247611D02*
X0549813Y0247611D01*
X0549813Y0246038D02*
X0549022Y0246038D01*
X0548042Y0243673D02*
X0504971Y0287729D01*
X0486821Y0287729D01*
X0483858Y0290090D02*
X0479785Y0290090D01*
X0480587Y0288517D02*
X0483056Y0288517D01*
X0483056Y0286944D02*
X0481259Y0286944D01*
X0482832Y0285370D02*
X0483854Y0285370D01*
X0482097Y0283044D02*
X0503750Y0283044D01*
X0546073Y0240721D01*
X0560107Y0252331D02*
X0698920Y0252331D01*
X0698920Y0253904D02*
X0560221Y0253904D01*
X0559978Y0255477D02*
X0698920Y0255477D01*
X0698920Y0257051D02*
X0558378Y0257051D01*
X0556779Y0258624D02*
X0698920Y0258624D01*
X0698920Y0260197D02*
X0555179Y0260197D01*
X0553580Y0261771D02*
X0698920Y0261771D01*
X0698920Y0263344D02*
X0551980Y0263344D01*
X0550380Y0264917D02*
X0698920Y0264917D01*
X0698920Y0266491D02*
X0548781Y0266491D01*
X0547181Y0268064D02*
X0698920Y0268064D01*
X0698920Y0269637D02*
X0545582Y0269637D01*
X0543982Y0271211D02*
X0698920Y0271211D01*
X0698920Y0272784D02*
X0542383Y0272784D01*
X0540783Y0274357D02*
X0698920Y0274357D01*
X0698920Y0275930D02*
X0539183Y0275930D01*
X0537215Y0279107D02*
X0545089Y0279107D01*
X0547746Y0279077D02*
X0698920Y0279077D01*
X0698920Y0277504D02*
X0547244Y0277504D01*
X0547303Y0280650D02*
X0698920Y0280650D01*
X0698920Y0282224D02*
X0537160Y0282224D01*
X0535587Y0283797D02*
X0698920Y0283797D01*
X0698920Y0285370D02*
X0534013Y0285370D01*
X0532440Y0286944D02*
X0698920Y0286944D01*
X0698920Y0288517D02*
X0530867Y0288517D01*
X0529293Y0290090D02*
X0571329Y0290090D01*
X0571531Y0289944D02*
X0572304Y0289550D01*
X0573129Y0289282D01*
X0573632Y0289202D01*
X0573632Y0293870D01*
X0575207Y0293870D01*
X0575207Y0289202D01*
X0575710Y0289282D01*
X0576535Y0289550D01*
X0577309Y0289944D01*
X0578010Y0290454D01*
X0578624Y0291067D01*
X0579134Y0291769D01*
X0579528Y0292542D01*
X0579796Y0293367D01*
X0579875Y0293870D01*
X0575207Y0293870D01*
X0575207Y0295445D01*
X0579875Y0295445D01*
X0579796Y0295948D01*
X0579528Y0296774D01*
X0579134Y0297547D01*
X0578624Y0298248D01*
X0578010Y0298862D01*
X0577309Y0299372D01*
X0576535Y0299766D01*
X0575710Y0300034D01*
X0575207Y0300114D01*
X0575207Y0295445D01*
X0573632Y0295445D01*
X0573632Y0293870D01*
X0568964Y0293870D01*
X0569044Y0293367D01*
X0569312Y0292542D01*
X0569706Y0291769D01*
X0570216Y0291067D01*
X0570829Y0290454D01*
X0571531Y0289944D01*
X0573632Y0290090D02*
X0575207Y0290090D01*
X0575207Y0291664D02*
X0573632Y0291664D01*
X0573632Y0293237D02*
X0575207Y0293237D01*
X0575207Y0294810D02*
X0683672Y0294810D01*
X0683672Y0295445D02*
X0683672Y0293870D01*
X0685246Y0293870D01*
X0685246Y0289202D01*
X0685750Y0289282D01*
X0686575Y0289550D01*
X0687348Y0289944D01*
X0688050Y0290454D01*
X0688663Y0291067D01*
X0689173Y0291769D01*
X0689567Y0292542D01*
X0689835Y0293367D01*
X0689915Y0293870D01*
X0685247Y0293870D01*
X0685247Y0295445D01*
X0689915Y0295445D01*
X0689835Y0295948D01*
X0689567Y0296774D01*
X0689173Y0297547D01*
X0688663Y0298248D01*
X0688050Y0298862D01*
X0687348Y0299372D01*
X0686575Y0299766D01*
X0685750Y0300034D01*
X0685246Y0300114D01*
X0685246Y0295445D01*
X0683672Y0295445D01*
X0683672Y0300114D01*
X0683168Y0300034D01*
X0682343Y0299766D01*
X0681570Y0299372D01*
X0680868Y0298862D01*
X0680255Y0298248D01*
X0679745Y0297547D01*
X0679351Y0296774D01*
X0679083Y0295948D01*
X0679003Y0295445D01*
X0683672Y0295445D01*
X0683672Y0296384D02*
X0685246Y0296384D01*
X0685246Y0297957D02*
X0683672Y0297957D01*
X0683672Y0299530D02*
X0685246Y0299530D01*
X0687037Y0299530D02*
X0698920Y0299530D01*
X0698920Y0297957D02*
X0688875Y0297957D01*
X0689694Y0296384D02*
X0698920Y0296384D01*
X0698920Y0294810D02*
X0685247Y0294810D01*
X0685246Y0293237D02*
X0683672Y0293237D01*
X0683672Y0293870D02*
X0683672Y0289202D01*
X0683168Y0289282D01*
X0682343Y0289550D01*
X0681570Y0289944D01*
X0680868Y0290454D01*
X0680255Y0291067D01*
X0679745Y0291769D01*
X0679351Y0292542D01*
X0679083Y0293367D01*
X0679003Y0293870D01*
X0683672Y0293870D01*
X0683672Y0291664D02*
X0685246Y0291664D01*
X0685246Y0290090D02*
X0683672Y0290090D01*
X0681368Y0290090D02*
X0577510Y0290090D01*
X0579057Y0291664D02*
X0679821Y0291664D01*
X0679125Y0293237D02*
X0579753Y0293237D01*
X0579654Y0296384D02*
X0679224Y0296384D01*
X0680043Y0297957D02*
X0578836Y0297957D01*
X0576998Y0299530D02*
X0681881Y0299530D01*
X0689793Y0293237D02*
X0698920Y0293237D01*
X0698920Y0291664D02*
X0689097Y0291664D01*
X0687550Y0290090D02*
X0698920Y0290090D01*
X0698920Y0301104D02*
X0518280Y0301104D01*
X0516707Y0302677D02*
X0698920Y0302677D01*
X0698920Y0304250D02*
X0515134Y0304250D01*
X0513560Y0305823D02*
X0698920Y0305823D01*
X0698920Y0307397D02*
X0511987Y0307397D01*
X0510414Y0308970D02*
X0698920Y0308970D01*
X0698920Y0310543D02*
X0508840Y0310543D01*
X0507267Y0312117D02*
X0698920Y0312117D01*
X0698920Y0313690D02*
X0505694Y0313690D01*
X0504120Y0315263D02*
X0698920Y0315263D01*
X0698920Y0326277D02*
X0494105Y0326277D01*
X0498829Y0317492D02*
X0487057Y0317492D01*
X0486821Y0317729D01*
X0498829Y0317492D02*
X0537215Y0279107D01*
X0525518Y0275930D02*
X0519534Y0275930D01*
X0521072Y0274357D02*
X0527091Y0274357D01*
X0528664Y0272784D02*
X0522610Y0272784D01*
X0524148Y0271211D02*
X0530238Y0271211D01*
X0531811Y0269637D02*
X0525686Y0269637D01*
X0527224Y0268064D02*
X0533384Y0268064D01*
X0534958Y0266491D02*
X0528763Y0266491D01*
X0530301Y0264917D02*
X0536531Y0264917D01*
X0538104Y0263344D02*
X0531839Y0263344D01*
X0533377Y0261771D02*
X0539678Y0261771D01*
X0523944Y0277504D02*
X0517995Y0277504D01*
X0516457Y0279077D02*
X0522371Y0279077D01*
X0520798Y0280650D02*
X0514919Y0280650D01*
X0513381Y0282224D02*
X0519224Y0282224D01*
X0517651Y0283797D02*
X0511843Y0283797D01*
X0510305Y0285370D02*
X0516078Y0285370D01*
X0514505Y0286944D02*
X0508766Y0286944D01*
X0507228Y0288517D02*
X0512931Y0288517D01*
X0511358Y0290090D02*
X0489785Y0290090D01*
X0484415Y0294810D02*
X0479228Y0294810D01*
X0480587Y0296384D02*
X0483056Y0296384D01*
X0483056Y0297957D02*
X0480587Y0297957D01*
X0480345Y0299530D02*
X0483298Y0299530D01*
X0467333Y0292394D02*
X0467286Y0292394D01*
X0464111Y0289219D01*
X0475601Y0277729D01*
X0476821Y0277729D01*
X0480587Y0277504D02*
X0482859Y0277504D01*
X0482859Y0279077D02*
X0480587Y0279077D01*
X0479224Y0280650D02*
X0484140Y0280650D01*
X0482097Y0283044D02*
X0477412Y0287729D01*
X0476821Y0287729D01*
X0473858Y0290090D02*
X0470837Y0290090D01*
X0470837Y0291664D02*
X0509785Y0291664D01*
X0521427Y0297957D02*
X0570004Y0297957D01*
X0570216Y0298248D02*
X0569706Y0297547D01*
X0569312Y0296774D01*
X0569044Y0295948D01*
X0568964Y0295445D01*
X0573632Y0295445D01*
X0573632Y0300114D01*
X0573129Y0300034D01*
X0572304Y0299766D01*
X0571531Y0299372D01*
X0570829Y0298862D01*
X0570216Y0298248D01*
X0571842Y0299530D02*
X0519854Y0299530D01*
X0523000Y0296384D02*
X0569185Y0296384D01*
X0569086Y0293237D02*
X0526147Y0293237D01*
X0527720Y0291664D02*
X0569782Y0291664D01*
X0573632Y0294810D02*
X0524573Y0294810D01*
X0504655Y0279077D02*
X0490783Y0279077D01*
X0490783Y0279370D02*
X0489275Y0280878D01*
X0502853Y0280878D01*
X0509350Y0274382D01*
X0489078Y0274382D01*
X0490783Y0276087D01*
X0490783Y0277716D01*
X0486834Y0277716D01*
X0486834Y0277741D01*
X0490783Y0277741D01*
X0490783Y0279370D01*
X0489503Y0280650D02*
X0503081Y0280650D01*
X0506228Y0277504D02*
X0490783Y0277504D01*
X0490627Y0275930D02*
X0507801Y0275930D01*
X0509173Y0269637D02*
X0490238Y0269637D01*
X0490587Y0268064D02*
X0510746Y0268064D01*
X0512320Y0266491D02*
X0490587Y0266491D01*
X0489335Y0264917D02*
X0513893Y0264917D01*
X0483016Y0275930D02*
X0480348Y0275930D01*
X0479854Y0282224D02*
X0474168Y0282224D01*
X0472595Y0283797D02*
X0478281Y0283797D01*
X0473854Y0285370D02*
X0471021Y0285370D01*
X0469448Y0286944D02*
X0473056Y0286944D01*
X0473056Y0288517D02*
X0467875Y0288517D01*
X0464111Y0289219D02*
X0457315Y0296015D01*
X0439522Y0305823D02*
X0430520Y0305823D01*
X0430783Y0307397D02*
X0437949Y0307397D01*
X0436376Y0308970D02*
X0430783Y0308970D01*
X0429610Y0310543D02*
X0434802Y0310543D01*
X0433229Y0312117D02*
X0371924Y0312117D01*
X0371836Y0313690D02*
X0431656Y0313690D01*
X0430082Y0315263D02*
X0429681Y0315263D01*
X0430916Y0317492D02*
X0427057Y0317492D01*
X0426821Y0317729D01*
X0423961Y0315263D02*
X0419681Y0315263D01*
X0420587Y0316837D02*
X0423056Y0316837D01*
X0423056Y0318410D02*
X0420587Y0318410D01*
X0419892Y0319983D02*
X0423751Y0319983D01*
X0424033Y0310543D02*
X0419331Y0310543D01*
X0420587Y0308970D02*
X0422859Y0308970D01*
X0422859Y0307397D02*
X0420587Y0307397D01*
X0420241Y0305823D02*
X0423123Y0305823D01*
X0426809Y0308970D02*
X0426834Y0308970D01*
X0426809Y0310543D02*
X0426834Y0310543D01*
X0414311Y0310543D02*
X0371394Y0310543D01*
X0370475Y0305823D02*
X0413401Y0305823D01*
X0439681Y0315263D02*
X0443961Y0315263D01*
X0443056Y0316169D02*
X0445262Y0313963D01*
X0448381Y0313963D01*
X0450587Y0316169D01*
X0450587Y0319288D01*
X0448381Y0321494D01*
X0445262Y0321494D01*
X0443056Y0319288D01*
X0443056Y0316169D01*
X0443056Y0316837D02*
X0440587Y0316837D01*
X0440587Y0318410D02*
X0443056Y0318410D01*
X0443751Y0319983D02*
X0439892Y0319983D01*
X0439121Y0324703D02*
X0444522Y0324703D01*
X0445262Y0323963D02*
X0448381Y0323963D01*
X0450587Y0326169D01*
X0450587Y0329288D01*
X0448381Y0331494D01*
X0445262Y0331494D01*
X0443056Y0329288D01*
X0443056Y0326169D01*
X0445262Y0323963D01*
X0443056Y0326277D02*
X0440587Y0326277D01*
X0440587Y0327850D02*
X0443056Y0327850D01*
X0443191Y0329423D02*
X0440452Y0329423D01*
X0438878Y0330997D02*
X0444764Y0330997D01*
X0448878Y0330997D02*
X0454764Y0330997D01*
X0453191Y0329423D02*
X0450452Y0329423D01*
X0450587Y0327850D02*
X0453056Y0327850D01*
X0453056Y0326277D02*
X0450587Y0326277D01*
X0449121Y0324703D02*
X0454522Y0324703D01*
X0453751Y0319983D02*
X0449892Y0319983D01*
X0450587Y0318410D02*
X0453056Y0318410D01*
X0453115Y0316837D02*
X0450587Y0316837D01*
X0449681Y0315263D02*
X0453961Y0315263D01*
X0486844Y0334143D02*
X0487008Y0334143D01*
X0573632Y0299530D02*
X0575207Y0299530D01*
X0575207Y0297957D02*
X0573632Y0297957D01*
X0573632Y0296384D02*
X0575207Y0296384D01*
X0633672Y0247610D02*
X0633672Y0237768D01*
X0463747Y0255477D02*
X0459895Y0255477D01*
X0460587Y0257051D02*
X0463056Y0257051D01*
X0463056Y0258624D02*
X0460587Y0258624D01*
X0459677Y0260197D02*
X0463965Y0260197D01*
X0458381Y0263963D02*
X0460587Y0266169D01*
X0460587Y0269288D01*
X0458381Y0271494D01*
X0455262Y0271494D01*
X0453056Y0269288D01*
X0453056Y0266169D01*
X0455262Y0263963D01*
X0458381Y0263963D01*
X0459335Y0264917D02*
X0464308Y0264917D01*
X0463056Y0266491D02*
X0460587Y0266491D01*
X0460587Y0268064D02*
X0463056Y0268064D01*
X0463405Y0269637D02*
X0460238Y0269637D01*
X0458664Y0271211D02*
X0464978Y0271211D01*
X0464688Y0272784D02*
X0424703Y0272784D01*
X0424978Y0271211D02*
X0423129Y0271211D01*
X0423405Y0269637D02*
X0420238Y0269637D01*
X0420587Y0268064D02*
X0423056Y0268064D01*
X0422521Y0266491D02*
X0420587Y0266491D01*
X0420948Y0264917D02*
X0419910Y0264917D01*
X0419105Y0262374D02*
X0421467Y0262374D01*
X0426821Y0267729D01*
X0431900Y0264343D02*
X0435286Y0267729D01*
X0436821Y0267729D01*
X0439335Y0264917D02*
X0444029Y0264917D01*
X0445180Y0263766D02*
X0442859Y0266087D01*
X0442859Y0267716D01*
X0446809Y0267716D01*
X0446834Y0267716D01*
X0446834Y0267741D01*
X0450783Y0267741D01*
X0450783Y0269370D01*
X0448462Y0271691D01*
X0446834Y0271691D01*
X0446834Y0267741D01*
X0446809Y0267741D01*
X0446809Y0271691D01*
X0445180Y0271691D01*
X0442859Y0269370D01*
X0442859Y0267741D01*
X0446809Y0267741D01*
X0446809Y0267716D01*
X0446809Y0263766D01*
X0445180Y0263766D01*
X0446834Y0263766D02*
X0448462Y0263766D01*
X0450783Y0266087D01*
X0450783Y0267716D01*
X0446834Y0267716D01*
X0446834Y0263766D01*
X0446809Y0264917D02*
X0446834Y0264917D01*
X0446809Y0266491D02*
X0446834Y0266491D01*
X0446809Y0268064D02*
X0446834Y0268064D01*
X0446809Y0269637D02*
X0446834Y0269637D01*
X0446809Y0271211D02*
X0446834Y0271211D01*
X0448943Y0271211D02*
X0454978Y0271211D01*
X0453405Y0269637D02*
X0450516Y0269637D01*
X0450783Y0268064D02*
X0453056Y0268064D01*
X0453056Y0266491D02*
X0450783Y0266491D01*
X0449613Y0264917D02*
X0454308Y0264917D01*
X0450587Y0259288D02*
X0448381Y0261494D01*
X0445262Y0261494D01*
X0443056Y0259288D01*
X0443056Y0256169D01*
X0445262Y0253963D01*
X0448381Y0253963D01*
X0450587Y0256169D01*
X0450587Y0259288D01*
X0450587Y0258624D02*
X0453056Y0258624D01*
X0453056Y0257051D02*
X0450587Y0257051D01*
X0449895Y0255477D02*
X0453747Y0255477D01*
X0454656Y0253904D02*
X0439495Y0253904D01*
X0439895Y0255477D02*
X0443747Y0255477D01*
X0443056Y0257051D02*
X0440587Y0257051D01*
X0440587Y0258624D02*
X0443056Y0258624D01*
X0443965Y0260197D02*
X0439677Y0260197D01*
X0436821Y0257729D02*
X0436821Y0253516D01*
X0441069Y0252331D02*
X0454656Y0252331D01*
X0455218Y0250757D02*
X0442642Y0250757D01*
X0444215Y0249184D02*
X0456792Y0249184D01*
X0459459Y0249579D02*
X0456821Y0252217D01*
X0456821Y0257729D01*
X0453965Y0260197D02*
X0449677Y0260197D01*
X0442859Y0266491D02*
X0440587Y0266491D01*
X0440587Y0268064D02*
X0442859Y0268064D01*
X0443127Y0269637D02*
X0440238Y0269637D01*
X0438664Y0271211D02*
X0444700Y0271211D01*
X0426821Y0277729D02*
X0426585Y0277729D01*
X0422057Y0273201D01*
X0374420Y0273201D01*
X0364971Y0282650D01*
X0367615Y0286944D02*
X0357294Y0286944D01*
X0357294Y0288517D02*
X0361276Y0288517D01*
X0358852Y0290090D02*
X0357294Y0290090D01*
X0357294Y0291664D02*
X0358083Y0291664D01*
X0358018Y0293237D02*
X0357294Y0293237D01*
X0357294Y0294810D02*
X0358570Y0294810D01*
X0357294Y0296384D02*
X0360313Y0296384D01*
X0364971Y0292650D02*
X0379892Y0277729D01*
X0416821Y0277729D01*
X0420587Y0277504D02*
X0423056Y0277504D01*
X0423056Y0279077D02*
X0420587Y0279077D01*
X0419224Y0280650D02*
X0424418Y0280650D01*
X0421725Y0275930D02*
X0420348Y0275930D01*
X0414418Y0280650D02*
X0380033Y0280650D01*
X0368628Y0275930D02*
X0359398Y0275930D01*
X0360971Y0274357D02*
X0370201Y0274357D01*
X0371775Y0272784D02*
X0362545Y0272784D01*
X0364118Y0271211D02*
X0373348Y0271211D01*
X0367055Y0277504D02*
X0357825Y0277504D01*
X0357294Y0279077D02*
X0359924Y0279077D01*
X0358503Y0280650D02*
X0357294Y0280650D01*
X0357294Y0282224D02*
X0358018Y0282224D01*
X0358150Y0283797D02*
X0357294Y0283797D01*
X0357294Y0285370D02*
X0359013Y0285370D01*
X0355128Y0277138D02*
X0364538Y0267729D01*
X0416821Y0267729D01*
X0414308Y0264917D02*
X0309368Y0264917D01*
X0309368Y0263344D02*
X0416630Y0263344D01*
X0416478Y0261771D02*
X0309368Y0261771D01*
X0309368Y0260197D02*
X0417523Y0260197D01*
X0420686Y0260197D02*
X0423965Y0260197D01*
X0423056Y0258624D02*
X0309368Y0258624D01*
X0309368Y0257051D02*
X0423056Y0257051D01*
X0423747Y0255477D02*
X0309368Y0255477D01*
X0309368Y0253904D02*
X0429735Y0253904D01*
X0429002Y0252331D02*
X0428892Y0252331D01*
X0423097Y0252331D02*
X0309368Y0252331D01*
X0309368Y0250757D02*
X0422491Y0250757D01*
X0426241Y0241951D02*
X0428199Y0241951D01*
X0431654Y0241951D01*
X0431654Y0238555D01*
X0429567Y0238555D01*
X0429166Y0238663D01*
X0428947Y0238789D01*
X0428728Y0238663D01*
X0428328Y0238555D01*
X0426241Y0238555D01*
X0426241Y0241951D01*
X0426241Y0241318D02*
X0425748Y0241318D01*
X0425748Y0239744D02*
X0426241Y0239744D01*
X0431654Y0239744D02*
X0432146Y0239744D01*
X0432146Y0241318D02*
X0431654Y0241318D01*
X0452965Y0227158D02*
X0309368Y0227158D01*
X0309368Y0225584D02*
X0451915Y0225584D01*
X0455362Y0222438D02*
X0456535Y0222438D01*
X0362714Y0266491D02*
X0309368Y0266491D01*
X0309368Y0268064D02*
X0361140Y0268064D01*
X0359567Y0269637D02*
X0309368Y0269637D01*
X0309368Y0271211D02*
X0357994Y0271211D01*
X0356420Y0272784D02*
X0309368Y0272784D01*
X0309368Y0274357D02*
X0354847Y0274357D01*
X0364758Y0326277D02*
X0365183Y0326277D01*
X0383132Y0113879D02*
X0309368Y0113879D01*
X0309368Y0112306D02*
X0382102Y0112306D01*
D22*
X0654400Y0075307D02*
X0654400Y0057433D01*
D23*
X0644498Y0074382D03*
X0634656Y0074382D03*
X0520483Y0083240D03*
X0517530Y0091114D03*
X0404341Y0117689D03*
X0394498Y0114736D03*
X0384656Y0111784D03*
X0547057Y0234815D03*
X0551979Y0237768D03*
X0546073Y0240721D03*
X0548042Y0243673D03*
X0517530Y0249579D03*
M02*
