G75*
%MOIN*%
%OFA0B0*%
%FSLAX25Y25*%
%IPPOS*%
%LPD*%
%AMOC8*
5,1,8,0,0,1.08239X$1,22.5*
%
%ADD10R,0.06000X0.25500*%
%ADD11C,0.04775*%
%ADD12OC8,0.04775*%
%ADD13C,0.04775*%
%ADD14C,0.05575*%
%ADD15OC8,0.06300*%
%ADD16C,0.06300*%
%ADD17R,0.03937X0.04331*%
%ADD18R,0.04331X0.03937*%
%ADD19R,0.03937X0.06299*%
%ADD20C,0.07874*%
%ADD21R,0.06890X0.04724*%
%ADD22R,0.06890X0.03937*%
%ADD23R,0.04134X0.04252*%
%ADD24C,0.01575*%
%ADD25C,0.02559*%
%ADD26C,0.02362*%
D10*
X0414400Y0057433D03*
X0424400Y0057433D03*
X0434400Y0057433D03*
X0444400Y0057433D03*
X0454400Y0057433D03*
X0464400Y0057433D03*
X0474400Y0057433D03*
X0484400Y0057433D03*
X0494400Y0057433D03*
X0504400Y0057433D03*
X0514400Y0057433D03*
X0524400Y0057433D03*
X0534400Y0057433D03*
X0544400Y0057433D03*
X0554400Y0057433D03*
X0564400Y0057433D03*
X0574400Y0057433D03*
X0584400Y0057433D03*
X0594400Y0057433D03*
X0604400Y0057433D03*
X0614400Y0057433D03*
X0624400Y0057433D03*
X0634400Y0057433D03*
X0644400Y0057433D03*
X0654400Y0057433D03*
D11*
X0456821Y0317729D03*
D12*
X0446821Y0317729D03*
X0436821Y0317729D03*
X0426821Y0317729D03*
X0416821Y0317729D03*
X0416821Y0307729D03*
X0426821Y0307729D03*
X0426821Y0297729D03*
X0416821Y0297729D03*
X0416821Y0287729D03*
X0426821Y0287729D03*
X0426821Y0277729D03*
X0416821Y0277729D03*
X0416821Y0267729D03*
X0426821Y0267729D03*
X0436821Y0267729D03*
X0446821Y0267729D03*
X0456821Y0267729D03*
X0466821Y0267729D03*
X0476821Y0267729D03*
X0486821Y0267729D03*
X0486821Y0277729D03*
X0476821Y0277729D03*
X0476821Y0287729D03*
X0486821Y0287729D03*
X0486821Y0297729D03*
X0476821Y0297729D03*
X0476821Y0307729D03*
X0486821Y0307729D03*
X0486821Y0317729D03*
X0476821Y0317729D03*
X0466821Y0317729D03*
X0466821Y0327729D03*
X0476821Y0327729D03*
X0456821Y0327729D03*
X0446821Y0327729D03*
X0436821Y0327729D03*
X0426821Y0327729D03*
X0531743Y0331548D03*
X0531743Y0321548D03*
X0476821Y0257729D03*
X0466821Y0257729D03*
X0456821Y0257729D03*
X0446821Y0257729D03*
X0436821Y0257729D03*
X0426821Y0257729D03*
D13*
X0429144Y0219722D02*
X0429144Y0214948D01*
X0419144Y0214948D02*
X0419144Y0219722D01*
X0409144Y0219722D02*
X0409144Y0214948D01*
X0399144Y0214948D02*
X0399144Y0219722D01*
X0389144Y0219722D02*
X0389144Y0214948D01*
X0379144Y0214948D02*
X0379144Y0219722D01*
X0439144Y0219722D02*
X0439144Y0214948D01*
X0449144Y0214948D02*
X0449144Y0219722D01*
X0459144Y0219722D02*
X0459144Y0214948D01*
X0469144Y0214948D02*
X0469144Y0219722D01*
X0479144Y0219722D02*
X0479144Y0214948D01*
X0489144Y0214948D02*
X0489144Y0219722D01*
X0489144Y0159722D02*
X0489144Y0154948D01*
X0479144Y0154948D02*
X0479144Y0159722D01*
X0469144Y0159722D02*
X0469144Y0154948D01*
X0459144Y0154948D02*
X0459144Y0159722D01*
X0449144Y0159722D02*
X0449144Y0154948D01*
X0439144Y0154948D02*
X0439144Y0159722D01*
X0429144Y0159722D02*
X0429144Y0154948D01*
X0419144Y0154948D02*
X0419144Y0159722D01*
X0409144Y0159722D02*
X0409144Y0154948D01*
X0399144Y0154948D02*
X0399144Y0159722D01*
X0389144Y0159722D02*
X0389144Y0154948D01*
X0379144Y0154948D02*
X0379144Y0159722D01*
X0419302Y0127596D02*
X0419302Y0122822D01*
X0429302Y0122822D02*
X0429302Y0127596D01*
X0439302Y0127596D02*
X0439302Y0122822D01*
X0449302Y0122822D02*
X0449302Y0127596D01*
X0459302Y0127596D02*
X0459302Y0122822D01*
X0469302Y0122822D02*
X0469302Y0127596D01*
X0479302Y0127596D02*
X0479302Y0122822D01*
X0489302Y0122822D02*
X0489302Y0127596D01*
X0499302Y0127596D02*
X0499302Y0122822D01*
X0509302Y0122822D02*
X0509302Y0127596D01*
X0509302Y0097596D02*
X0509302Y0092822D01*
X0499302Y0092822D02*
X0499302Y0097596D01*
X0489302Y0097596D02*
X0489302Y0092822D01*
X0479302Y0092822D02*
X0479302Y0097596D01*
X0469302Y0097596D02*
X0469302Y0092822D01*
X0459302Y0092822D02*
X0459302Y0097596D01*
X0449302Y0097596D02*
X0449302Y0092822D01*
X0439302Y0092822D02*
X0439302Y0097596D01*
X0429302Y0097596D02*
X0429302Y0092822D01*
X0419302Y0092822D02*
X0419302Y0097596D01*
D14*
X0618916Y0112886D02*
X0624491Y0112886D01*
X0624491Y0122886D02*
X0618916Y0122886D01*
X0618916Y0132886D02*
X0624491Y0132886D01*
X0498987Y0230059D02*
X0498987Y0235634D01*
X0488987Y0235634D02*
X0488987Y0230059D01*
X0478987Y0230059D02*
X0478987Y0235634D01*
X0367758Y0282650D02*
X0362183Y0282650D01*
X0362183Y0292650D02*
X0367758Y0292650D01*
X0367758Y0302650D02*
X0362183Y0302650D01*
X0362183Y0312650D02*
X0367758Y0312650D01*
X0367758Y0322650D02*
X0362183Y0322650D01*
X0362183Y0332650D02*
X0367758Y0332650D01*
D15*
X0598858Y0122689D03*
D16*
X0608858Y0122689D03*
D17*
X0609420Y0149264D03*
X0602727Y0149264D03*
X0618475Y0149146D03*
X0625168Y0149146D03*
X0613396Y0096036D03*
X0606703Y0096036D03*
D18*
X0605128Y0180288D03*
X0595286Y0180288D03*
X0595286Y0186981D03*
X0605128Y0186981D03*
X0614971Y0186981D03*
X0614971Y0180288D03*
X0663396Y0180327D03*
X0663396Y0187020D03*
X0673042Y0186981D03*
X0673042Y0180288D03*
X0694695Y0251154D03*
X0694695Y0257847D03*
X0694695Y0264933D03*
X0694695Y0271626D03*
X0531624Y0304343D03*
X0531624Y0311036D03*
D19*
X0594794Y0199382D03*
X0604636Y0199382D03*
X0614479Y0199382D03*
X0624321Y0199382D03*
X0634164Y0199382D03*
X0644006Y0199382D03*
X0653849Y0199382D03*
X0663691Y0199382D03*
X0670187Y0199382D03*
D20*
X0684459Y0294658D03*
X0574420Y0294658D03*
D21*
X0683376Y0243870D03*
D22*
X0683376Y0278516D03*
X0683376Y0283634D03*
D23*
X0613494Y0104894D03*
X0606605Y0104894D03*
D24*
X0607097Y0105386D01*
X0607097Y0112768D01*
X0598858Y0121007D01*
X0598858Y0122689D01*
X0599223Y0123054D01*
X0599223Y0133437D01*
X0602727Y0136941D01*
X0602727Y0149264D01*
X0609420Y0149264D02*
X0618357Y0149264D01*
X0618475Y0149146D01*
X0618475Y0142729D01*
X0621861Y0139343D01*
X0621861Y0133044D01*
X0621703Y0132886D01*
X0629026Y0122886D02*
X0634459Y0128319D01*
X0634459Y0149308D01*
X0634297Y0149146D01*
X0625168Y0149146D01*
X0634459Y0149308D02*
X0634459Y0180449D01*
X0634621Y0180288D01*
X0663435Y0180288D01*
X0663396Y0180327D01*
X0663435Y0180288D02*
X0673042Y0180288D01*
X0673042Y0186981D02*
X0673042Y0190524D01*
X0670187Y0193378D01*
X0670187Y0199382D01*
X0663691Y0199382D02*
X0663691Y0187315D01*
X0663396Y0187020D01*
X0654341Y0193477D02*
X0653849Y0193969D01*
X0653849Y0199382D01*
X0663199Y0199874D02*
X0663199Y0230878D01*
X0644006Y0235307D02*
X0638593Y0240721D01*
X0546073Y0240721D01*
X0548042Y0243673D02*
X0683180Y0243673D01*
X0683376Y0243870D01*
X0683573Y0243673D01*
X0691743Y0243673D01*
X0694695Y0246626D01*
X0694695Y0251154D01*
X0694695Y0257847D02*
X0694695Y0264933D01*
X0633840Y0264933D01*
X0633672Y0264765D01*
X0633672Y0247610D01*
X0633672Y0237768D02*
X0634164Y0237276D01*
X0634164Y0199382D01*
X0634656Y0199874D01*
X0634164Y0199382D02*
X0634459Y0199087D01*
X0634459Y0180681D01*
X0634459Y0180449D01*
X0634621Y0180288D02*
X0614971Y0180288D01*
X0605128Y0180288D01*
X0595286Y0180288D01*
X0595286Y0186981D02*
X0594794Y0187473D01*
X0594794Y0199382D01*
X0604636Y0199382D02*
X0604636Y0187473D01*
X0605128Y0186981D01*
X0614479Y0187473D02*
X0614971Y0186981D01*
X0614479Y0187473D02*
X0614479Y0199382D01*
X0614479Y0229402D01*
X0606113Y0237768D01*
X0551979Y0237768D01*
X0547057Y0234815D02*
X0599223Y0234815D01*
X0604636Y0229402D01*
X0604636Y0199382D01*
X0624321Y0199382D02*
X0624321Y0193969D01*
X0624813Y0193477D01*
X0644006Y0199382D02*
X0644006Y0235307D01*
X0633840Y0264933D02*
X0546776Y0264933D01*
X0541152Y0270557D01*
X0541152Y0326351D01*
X0536231Y0331272D01*
X0532018Y0331272D01*
X0531743Y0331548D01*
X0502491Y0331548D01*
X0498829Y0335209D01*
X0453554Y0335209D01*
X0451585Y0333240D01*
X0451585Y0332422D01*
X0451357Y0332650D01*
X0364971Y0332650D01*
X0383672Y0305681D02*
X0405325Y0327335D01*
X0426428Y0327335D01*
X0426821Y0327729D01*
X0436821Y0327729D02*
X0441743Y0322807D01*
X0441743Y0316508D01*
X0437806Y0312571D01*
X0406309Y0312571D01*
X0399144Y0305406D01*
X0399144Y0217335D01*
X0399420Y0217059D01*
X0399420Y0200366D01*
X0394498Y0195445D01*
X0394498Y0114736D01*
X0384656Y0111784D02*
X0384656Y0195445D01*
X0389577Y0200366D01*
X0389577Y0216902D01*
X0389144Y0217335D01*
X0389144Y0305248D01*
X0406309Y0322414D01*
X0432136Y0322414D01*
X0436821Y0317729D01*
X0446821Y0317729D02*
X0446821Y0317650D01*
X0431900Y0302729D01*
X0411231Y0302729D01*
X0409262Y0300760D01*
X0409262Y0217453D01*
X0409144Y0217335D01*
X0409262Y0217217D01*
X0409262Y0200366D01*
X0404341Y0195445D01*
X0404341Y0117689D01*
X0428947Y0132453D02*
X0429144Y0132650D01*
X0429144Y0157335D01*
X0419144Y0157335D02*
X0419144Y0195406D01*
X0414183Y0200366D01*
X0414183Y0255485D01*
X0412215Y0257453D01*
X0412215Y0284028D01*
X0415916Y0287729D01*
X0416821Y0287729D01*
X0422057Y0282965D02*
X0426821Y0287729D01*
X0422057Y0282965D02*
X0422057Y0251548D01*
X0424026Y0249579D01*
X0424026Y0200366D01*
X0428947Y0195445D01*
X0428947Y0174776D01*
X0414400Y0174559D02*
X0414183Y0174776D01*
X0414400Y0174559D02*
X0414400Y0057433D01*
X0424400Y0057433D02*
X0424400Y0195071D01*
X0419105Y0200366D01*
X0419105Y0207453D01*
X0419144Y0217335D01*
X0419144Y0262335D01*
X0419105Y0262374D01*
X0426821Y0257729D02*
X0429144Y0255406D01*
X0429144Y0217335D01*
X0428947Y0207296D01*
X0428947Y0200366D01*
X0434400Y0194914D01*
X0434400Y0057433D01*
X0444400Y0057433D02*
X0444400Y0194756D01*
X0438790Y0200366D01*
X0438790Y0216981D01*
X0439144Y0217335D01*
X0449144Y0217335D02*
X0449617Y0216862D01*
X0449617Y0200366D01*
X0454400Y0195583D01*
X0454400Y0057433D01*
X0464400Y0057433D02*
X0464400Y0194441D01*
X0459459Y0200366D01*
X0459459Y0217020D01*
X0459144Y0217335D01*
X0454538Y0224973D02*
X0454538Y0200366D01*
X0459144Y0195760D01*
X0459144Y0157335D01*
X0449144Y0157335D02*
X0449144Y0195918D01*
X0444695Y0200366D01*
X0444695Y0230878D01*
X0452569Y0239736D01*
X0452569Y0263477D01*
X0456821Y0267729D01*
X0462412Y0263319D02*
X0466821Y0267729D01*
X0462412Y0263319D02*
X0462412Y0252532D01*
X0464380Y0250563D01*
X0464380Y0200366D01*
X0469144Y0194618D01*
X0469144Y0157335D01*
X0479144Y0157335D02*
X0479144Y0194461D01*
X0474223Y0200366D01*
X0474223Y0246626D01*
X0467333Y0253516D01*
X0467333Y0257217D01*
X0466821Y0257729D01*
X0472254Y0262374D02*
X0482097Y0262374D01*
X0493908Y0250563D01*
X0493908Y0224973D01*
X0499813Y0219067D01*
X0499813Y0135406D01*
X0509302Y0125209D02*
X0509302Y0232847D01*
X0509302Y0288319D01*
X0494892Y0302729D01*
X0471821Y0302729D01*
X0456821Y0317729D01*
X0451601Y0322414D02*
X0469302Y0322414D01*
X0473987Y0317729D01*
X0476821Y0317729D01*
X0482648Y0313555D02*
X0476821Y0307729D01*
X0486821Y0307729D02*
X0486900Y0307650D01*
X0496861Y0307650D01*
X0514400Y0290110D01*
X0514400Y0057433D01*
X0504735Y0057768D02*
X0504735Y0262374D01*
X0505719Y0263359D01*
X0505719Y0283044D01*
X0495876Y0292886D01*
X0481664Y0292886D01*
X0476821Y0297729D01*
X0495876Y0313555D02*
X0506211Y0303221D01*
X0524400Y0285032D01*
X0524400Y0057433D01*
X0504735Y0057768D02*
X0504400Y0057433D01*
X0494400Y0057433D02*
X0494400Y0193969D01*
X0488987Y0200366D01*
X0488987Y0217177D01*
X0489144Y0217335D01*
X0479144Y0217335D02*
X0479144Y0200366D01*
X0484400Y0194126D01*
X0484400Y0057433D01*
X0474400Y0057433D02*
X0474400Y0194284D01*
X0469302Y0200366D01*
X0469302Y0217177D01*
X0469144Y0217335D01*
X0484065Y0227768D02*
X0478987Y0232847D01*
X0484065Y0227768D02*
X0484065Y0199382D01*
X0489144Y0194303D01*
X0489144Y0157335D01*
X0530325Y0157059D02*
X0530325Y0095051D01*
X0530325Y0088162D01*
X0533278Y0085209D01*
X0621861Y0085209D01*
X0621703Y0085366D01*
X0621703Y0094933D01*
X0621821Y0095051D01*
X0621703Y0094933D02*
X0621703Y0096027D01*
X0621694Y0096036D01*
X0613396Y0096036D01*
X0606703Y0096036D02*
X0606703Y0089189D01*
X0606660Y0089146D01*
X0541152Y0089146D01*
X0537806Y0092492D01*
X0537806Y0323792D01*
X0534262Y0327335D01*
X0501782Y0327335D01*
X0496861Y0332256D01*
X0460443Y0332256D01*
X0456821Y0328634D01*
X0456821Y0327729D01*
X0451585Y0332422D02*
X0451585Y0322430D01*
X0451585Y0301744D01*
X0447648Y0300760D02*
X0440758Y0293870D01*
X0447648Y0300760D02*
X0447648Y0306666D01*
X0451601Y0322414D02*
X0451585Y0322430D01*
X0466821Y0327729D02*
X0468908Y0327729D01*
X0473239Y0323398D01*
X0490955Y0323398D01*
X0527372Y0286981D01*
X0527372Y0086193D01*
X0531309Y0082256D01*
X0596270Y0082256D01*
X0604400Y0074126D01*
X0604400Y0057433D01*
X0584459Y0057492D02*
X0584400Y0057433D01*
X0584459Y0057492D02*
X0584459Y0074382D01*
X0579538Y0079303D01*
X0533278Y0079303D01*
X0520483Y0083240D02*
X0520483Y0261390D01*
X0500798Y0268280D02*
X0500798Y0240721D01*
X0496861Y0243673D02*
X0496861Y0257689D01*
X0486821Y0267729D01*
X0486821Y0277729D02*
X0491349Y0277729D01*
X0500798Y0268280D01*
X0476821Y0277729D02*
X0476428Y0278122D01*
X0447215Y0278122D01*
X0436821Y0267729D01*
X0441743Y0262374D02*
X0441743Y0242689D01*
X0446664Y0239736D02*
X0446664Y0257571D01*
X0446821Y0257729D01*
X0446664Y0239736D02*
X0433869Y0226941D01*
X0433869Y0200366D01*
X0439144Y0195091D01*
X0439144Y0157335D01*
X0399144Y0157335D02*
X0399144Y0195170D01*
X0404341Y0200366D01*
X0404341Y0305248D01*
X0406821Y0307729D01*
X0416821Y0307729D01*
X0416585Y0317492D02*
X0406309Y0317492D01*
X0394498Y0305681D01*
X0394498Y0200366D01*
X0389144Y0195012D01*
X0389144Y0157335D01*
X0379144Y0157335D02*
X0379144Y0195839D01*
X0379144Y0196036D01*
X0379144Y0195839D02*
X0383672Y0200366D01*
X0383672Y0305681D01*
X0379735Y0297807D02*
X0373829Y0291902D01*
X0373829Y0166902D01*
X0517530Y0091114D02*
X0517530Y0249579D01*
X0531309Y0240721D02*
X0531624Y0241036D01*
X0531624Y0304343D01*
X0531624Y0311036D02*
X0531743Y0311154D01*
X0531743Y0321548D01*
X0495876Y0313555D02*
X0482648Y0313555D01*
X0416821Y0317729D02*
X0416585Y0317492D01*
X0545089Y0279107D02*
X0545680Y0278516D01*
X0683376Y0278516D01*
X0683770Y0278122D01*
X0691743Y0278122D01*
X0694695Y0275170D01*
X0694695Y0271626D01*
X0683534Y0278359D02*
X0683376Y0278516D01*
X0683376Y0283634D02*
X0683376Y0293575D01*
X0684459Y0294658D01*
X0554931Y0231862D02*
X0554931Y0227925D01*
X0554931Y0227038D01*
X0554931Y0092099D01*
X0559853Y0092099D02*
X0559853Y0227925D01*
X0663199Y0199874D02*
X0663691Y0199382D01*
X0533278Y0125563D02*
X0533278Y0090130D01*
X0606660Y0089146D02*
X0613987Y0089146D01*
X0621585Y0085485D02*
X0621703Y0085366D01*
X0621861Y0085209D02*
X0646467Y0085209D01*
X0654400Y0077276D01*
X0654400Y0057433D01*
X0644400Y0057433D02*
X0644400Y0074284D01*
X0644498Y0074382D01*
X0634656Y0074382D02*
X0634656Y0057689D01*
X0634400Y0057433D01*
X0621703Y0096027D02*
X0621703Y0105011D01*
X0621586Y0104894D01*
X0613494Y0104894D01*
X0621703Y0105011D02*
X0621703Y0112886D01*
X0621703Y0122886D02*
X0609055Y0122886D01*
X0608858Y0122689D01*
X0621703Y0122886D02*
X0629026Y0122886D01*
D25*
X0373829Y0166902D03*
X0414183Y0174776D03*
X0428947Y0174776D03*
X0428947Y0132453D03*
X0499813Y0135406D03*
X0533278Y0125563D03*
X0530325Y0095051D03*
X0533278Y0090130D03*
X0533278Y0079303D03*
X0554931Y0092099D03*
X0559853Y0092099D03*
X0613987Y0089146D03*
X0530325Y0157059D03*
X0624813Y0193477D03*
X0654341Y0193477D03*
X0663199Y0230878D03*
X0633672Y0237768D03*
X0633672Y0247610D03*
X0559853Y0227925D03*
X0554931Y0231862D03*
X0531309Y0240721D03*
X0509302Y0232847D03*
X0500798Y0240721D03*
X0496861Y0243673D03*
X0520483Y0261390D03*
X0545089Y0279107D03*
X0472254Y0262374D03*
X0441743Y0262374D03*
X0419105Y0262374D03*
X0441743Y0242689D03*
X0454538Y0224973D03*
X0440758Y0293870D03*
X0451585Y0301744D03*
X0447648Y0306666D03*
X0379735Y0297807D03*
D26*
X0517530Y0249579D03*
X0546073Y0240721D03*
X0548042Y0243673D03*
X0551979Y0237768D03*
X0547057Y0234815D03*
X0404341Y0117689D03*
X0394498Y0114736D03*
X0384656Y0111784D03*
X0517530Y0091114D03*
X0520483Y0083240D03*
X0634656Y0074382D03*
X0644498Y0074382D03*
M02*
