%
M48
M72
T01C0.01181
T02C0.01378
T03C0.03200
T04C0.04000
T05C0.06299
T06C0.13000
%
T01
X384656Y111784
X394498Y114736
X404341Y117689
X517530Y91114
X520483Y83240
X634656Y74382
X644498Y74382
X547057Y234815
X551979Y237768
X546073Y240721
X548042Y243673
X517530Y249579
T02
X373829Y166902
X414183Y174776
X428947Y174776
X428947Y132453
X499813Y135406
X533278Y125563
X530325Y95051
X533278Y90130
X533278Y79303
X554931Y92099
X559853Y92099
X613987Y89146
X530325Y157059
X624813Y193477
X654341Y193477
X663199Y230878
X633672Y237768
X633672Y247610
X559853Y227925
X554931Y231862
X531309Y240721
X509302Y232847
X500798Y240721
X496861Y243673
X520483Y261390
X545089Y279107
X472254Y262374
X441743Y262374
X419105Y262374
X441743Y242689
X454538Y224973
X440758Y293870
X451585Y301744
X447648Y306666
X379735Y297807
T03
X416821Y297729
X426821Y297729
X426821Y307729
X416821Y307729
X416821Y317729
X426821Y317729
X436821Y317729
X446821Y317729
X456821Y317729
X466821Y317729
X476821Y317729
X486821Y317729
X486821Y307729
X476821Y307729
X476821Y297729
X486821Y297729
X486821Y287729
X476821Y287729
X476821Y277729
X486821Y277729
X486821Y267729
X476821Y267729
X466821Y267729
X456821Y267729
X446821Y267729
X436821Y267729
X426821Y267729
X426821Y277729
X416821Y277729
X416821Y267729
X426821Y257729
X436821Y257729
X446821Y257729
X456821Y257729
X466821Y257729
X476821Y257729
X426821Y287729
X416821Y287729
X426821Y327729
X436821Y327729
X446821Y327729
X456821Y327729
X466821Y327729
X476821Y327729
X531743Y331548
X531743Y321548
X489144Y217335
X479144Y217335
X469144Y217335
X459144Y217335
X449144Y217335
X439144Y217335
X429144Y217335
X419144Y217335
X409144Y217335
X399144Y217335
X389144Y217335
X379144Y217335
X379144Y157335
X389144Y157335
X399144Y157335
X409144Y157335
X419144Y157335
X429144Y157335
X439144Y157335
X449144Y157335
X459144Y157335
X469144Y157335
X479144Y157335
X489144Y157335
X489302Y125209
X499302Y125209
X509302Y125209
X479302Y125209
X469302Y125209
X459302Y125209
X449302Y125209
X439302Y125209
X429302Y125209
X419302Y125209
X419302Y95209
X429302Y95209
X439302Y95209
X449302Y95209
X459302Y95209
X469302Y95209
X479302Y95209
X489302Y95209
X499302Y95209
X509302Y95209
X598858Y122689
X608858Y122689
T04
X621703Y122886
X621703Y112886
X621703Y132886
X498987Y232847
X488987Y232847
X478987Y232847
X364971Y282650
X364971Y292650
X364971Y302650
X364971Y312650
X364971Y322650
X364971Y332650
T05
X574420Y294658
X684459Y294658
T06
X680703Y122886
M30
